<svg width="102" height="53" viewBox="0 0 102 53" fill="none" xmlns="http://www.w3.org/2000/svg">
<path d="M57.4823 0C58.4411 0 59.3999 0 60.3877 0C60.3877 0.509813 60.3877 1.01963 60.3877 1.54489C59.9238 1.54489 59.4599 1.54489 58.9819 1.54489C58.9819 2.76844 58.9819 3.99199 58.9819 5.25262C60.3427 5.25262 61.7036 5.25262 63.1056 5.25262C63.1056 4.02907 63.1056 2.80552 63.1056 1.54489C62.6417 1.54489 62.1778 1.54489 61.6998 1.54489C61.6998 1.03508 61.6998 0.525262 61.6998 0C62.6586 0 63.6174 0 64.6052 0C64.6052 1.73337 64.6052 3.46673 64.6052 5.25262C64.9688 5.24453 65.3324 5.23644 65.707 5.22811C67.4523 5.19178 69.1976 5.17023 70.9431 5.15607C71.0229 5.1554 71.1026 5.15474 71.1848 5.15406C76.4815 5.11128 81.6972 5.39771 86.9636 6.01863C87.0414 6.02776 87.1191 6.03689 87.1993 6.0463C88.8087 6.23528 90.4174 6.43188 92.0244 6.644C92.1871 6.66512 92.1871 6.66512 92.3531 6.68666C92.4994 6.70637 92.4994 6.70637 92.6487 6.72648C92.7335 6.73777 92.8183 6.74907 92.9057 6.76071C93.0965 6.79751 93.0965 6.79751 93.1902 6.90051C93.1902 8.42995 93.1902 9.95939 93.1902 11.5352C90.4067 11.5352 87.6232 11.5352 84.7553 11.5352C84.7553 12.8607 84.7553 14.1862 84.7553 15.5519C84.1986 15.6538 84.1986 15.6538 83.6306 15.7579C83.3031 16.0119 83.1962 16.1626 83.0683 16.5754C83.0683 16.9706 83.1524 17.1801 83.3495 17.5087C83.6452 17.7553 83.9241 17.7479 84.2867 17.7147C84.5287 17.6163 84.6382 17.5482 84.7802 17.3084C84.8259 17.1973 84.8259 17.1973 84.8725 17.0839C84.9266 16.9522 84.9807 16.8205 85.0365 16.6848C85.5313 16.6848 86.0262 16.6848 86.536 16.6848C86.5129 17.4714 86.3361 18.0266 85.88 18.6417C85.248 19.2431 84.6067 19.5143 83.7727 19.4909C83.0975 19.4184 82.5168 19.0598 82.0374 18.5387C81.5816 17.8357 81.4013 17.1383 81.475 16.2728C81.6021 15.487 81.976 14.9507 82.506 14.419C82.9661 14.11 82.9661 14.11 83.2558 14.11C83.2558 13.2603 83.2558 12.4106 83.2558 11.5352C77.132 11.5352 71.0082 11.5352 64.6989 11.5352C64.6989 19.1484 64.6989 26.7616 64.6989 34.6055C65.3793 34.6055 66.0597 34.6055 66.7608 34.6055C66.7608 35.6251 66.7608 36.6448 66.7608 37.6953C67.1628 37.6953 67.5649 37.6953 67.9792 37.6953C68.6969 37.9657 69.1796 38.4799 69.5197 39.2273C69.6705 40.1477 69.5869 40.8218 69.1038 41.609C68.7475 42.07 68.3108 42.2759 67.7917 42.433C67.4515 42.433 67.1113 42.433 66.7608 42.433C66.7608 44.4722 66.7608 46.5115 66.7608 48.6125C67.0082 48.6465 67.2556 48.6805 67.5105 48.7155C67.7534 48.8224 67.9722 48.93 68.2017 49.0631C68.2649 49.0986 68.3281 49.1342 68.3932 49.1708C68.9845 49.5103 69.5526 49.8914 70.1157 50.2841C70.9535 50.8644 71.6525 51.1564 72.6652 50.9813C73.381 50.7131 74.7566 50.0925 75.102 49.3335C75.0092 49.3016 75.0092 49.3016 74.9145 49.2691C74.5269 49.0738 74.2173 48.7983 73.8836 48.5095C73.7928 48.4373 73.7019 48.3651 73.6083 48.2907C72.4266 47.1837 71.7696 45.4273 71.6136 43.7566C71.5842 43.2211 71.591 42.6859 71.5977 42.1497C71.5984 41.9812 71.5989 41.8127 71.5993 41.6442C71.6007 41.2066 71.6044 40.7692 71.6086 40.3317C71.6124 39.8828 71.6141 39.434 71.616 38.9851C71.62 38.1089 71.6263 37.2326 71.6343 36.3564C72.0702 36.1747 72.5037 36.0036 72.9464 35.8414C72.9773 34.7878 73.0082 33.7342 73.0401 32.6487C73.7899 32.3397 73.7899 32.3397 74.4459 32.2367C74.4459 30.0275 74.4459 27.8183 74.4459 25.5422C76.6728 25.5422 78.8996 25.5422 81.1939 25.5422C81.1939 24.5225 81.1939 23.5029 81.1939 22.4524C83.0496 22.4524 84.9053 22.4524 86.8172 22.4524C86.8172 23.472 86.8172 24.4916 86.8172 25.5422C89.044 25.5422 91.2708 25.5422 93.5651 25.5422C93.5651 27.7514 93.5651 29.9606 93.5651 32.2367C93.7816 32.2707 93.9981 32.3047 94.2212 32.3397C94.5923 32.4926 94.5923 32.4926 94.9709 32.6487C95.0019 33.7023 95.0328 34.7559 95.0647 35.8414C95.4667 35.9774 95.8688 36.1133 96.2831 36.2534C96.4597 36.4476 96.3915 36.7832 96.3934 37.0416C96.394 37.1133 96.3946 37.185 96.3952 37.2588C96.3971 37.4978 96.3982 37.7368 96.3991 37.9757C96.3995 38.0576 96.3999 38.1396 96.4003 38.224C96.4022 38.6593 96.4036 39.0946 96.4044 39.5299C96.4055 39.9755 96.4087 40.4211 96.4124 40.8667C96.4149 41.2123 96.4157 41.5579 96.416 41.9035C96.4164 42.0675 96.4175 42.2314 96.4193 42.3953C96.4308 43.5458 96.3867 44.78 95.9082 45.8317C95.565 45.7672 95.2632 45.6623 94.9417 45.5163C94.8589 45.479 94.7761 45.4417 94.6909 45.4032C94.6287 45.3747 94.5664 45.3462 94.5023 45.3167C94.5148 45.257 94.5272 45.1973 94.54 45.1357C94.5566 45.0553 94.5732 44.9748 94.5902 44.8919C94.6147 44.7736 94.6147 44.7736 94.6396 44.6529C94.7371 44.1413 94.7952 43.6579 94.7941 43.1344C94.7941 42.9489 94.7941 42.9489 94.7941 42.7597C94.7936 42.6277 94.7932 42.4957 94.7927 42.3597C94.7925 42.2221 94.7923 42.0844 94.7923 41.9467C94.7919 41.5861 94.791 41.2255 94.7899 40.8648C94.789 40.4961 94.7886 40.1275 94.7881 39.7588C94.7871 39.0366 94.7855 38.3145 94.7835 37.5923C94.0418 37.345 93.3 37.0978 92.5582 36.8506C92.2133 36.7357 91.8684 36.6208 91.5235 36.5058C89.3 35.7644 87.0746 35.0303 84.849 34.2965C84.8181 39.8025 84.7872 45.3085 84.7553 50.9813C85.8292 50.364 85.8292 50.364 86.8406 49.6746C87.8867 48.9144 88.8784 48.529 90.1209 48.4194C91.7072 48.2526 92.7614 47.6287 93.8463 46.3467C94.1539 46.5002 94.4021 46.6954 94.6664 46.926C94.7413 46.9911 94.8162 47.0561 94.8933 47.1231C94.9499 47.1728 95.0064 47.2225 95.0647 47.2736C94.6776 48.1563 94.0181 48.7034 93.284 49.2305C93.0617 49.3089 93.0617 49.3089 92.9091 49.3335C93.2222 49.7159 93.5701 49.9575 93.9693 50.2153C94.0292 50.2551 94.089 50.2949 94.1507 50.3358C94.9826 50.8796 95.6802 51.148 96.6579 50.9813C97.5066 50.6732 98.266 50.0945 99.0056 49.5561C99.9735 48.857 100.839 48.5095 102 48.5095C102 49.0533 102 49.5971 102 50.1574C101.82 50.1956 101.641 50.2339 101.455 50.2733C100.642 50.4834 100.024 50.8878 99.3301 51.3849C97.8459 52.4458 96.6561 52.9721 94.8695 52.686C94.0157 52.4322 93.2757 51.8223 92.5375 51.3056C91.4608 50.5563 90.5024 50.0325 89.1979 50.3127C88.2307 50.6511 87.3698 51.3476 86.5227 51.9474C85.3708 52.7552 84.2085 52.8998 82.8732 52.686C82.0193 52.4322 81.2793 51.8223 80.5411 51.3056C79.4645 50.5563 78.506 50.0325 77.2016 50.3127C76.2344 50.6511 75.3734 51.3476 74.5264 51.9474C73.3745 52.7552 72.2121 52.8998 70.8768 52.686C70.023 52.4322 69.283 51.8223 68.5448 51.3056C67.4681 50.5563 66.5097 50.0325 65.2052 50.3127C64.238 50.6511 63.3771 51.3476 62.53 51.9474C61.7248 52.5121 60.969 52.7681 60.0128 52.7837C59.9462 52.7856 59.8796 52.7875 59.811 52.7895C58.6671 52.7751 57.752 52.1646 56.8204 51.4963C56.0912 50.9749 55.4096 50.5449 54.577 50.2604C54.3914 50.1924 54.2058 50.1244 54.0146 50.0544C54.0146 45.9759 54.0146 41.8974 54.0146 37.6953C54.4786 37.6953 54.9425 37.6953 55.4205 37.6953C55.4205 36.6757 55.4205 35.656 55.4205 34.6055C56.1009 34.6055 56.7813 34.6055 57.4823 34.6055C57.4823 26.9923 57.4823 19.3791 57.4823 11.5352C56.338 11.5352 55.1937 11.5352 54.0146 11.5352C54.0146 9.46193 54.0146 7.38869 54.0146 5.25262C55.159 5.25262 56.3033 5.25262 57.4823 5.25262C57.4823 3.51926 57.4823 1.78589 57.4823 0ZM55.4205 6.90051C55.4205 7.88614 55.4205 8.87178 55.4205 9.88729C59.5958 9.88729 63.7711 9.88729 68.0729 9.88729C67.8873 9.64938 67.7017 9.41147 67.5105 9.16634C67.4 8.98089 67.2914 8.79393 67.1854 8.60526C66.5959 7.69668 65.9629 6.97299 64.9274 6.78018C63.5147 6.59556 62.0761 6.68278 60.6584 6.74492C60.0673 6.76833 59.4759 6.7785 58.8845 6.78987C57.7293 6.81399 56.5751 6.85374 55.4205 6.90051ZM67.6043 6.90051C67.7303 7.06298 67.8566 7.22527 67.9835 7.38695C68.1145 7.55472 68.2442 7.72366 68.3731 7.89337C69.3942 9.30941 69.3942 9.30941 70.8223 10.0349C71.3194 10.0524 71.8038 9.99905 72.2903 9.88729C72.1643 9.72481 72.038 9.56252 71.9111 9.40084C71.7801 9.23308 71.6504 9.06413 71.5215 8.89443C70.5004 7.47839 70.5004 7.47839 69.0723 6.75286C68.5752 6.73541 68.0909 6.78875 67.6043 6.90051ZM71.8217 6.90051C71.9478 7.06298 72.0741 7.22527 72.201 7.38695C72.332 7.55472 72.4617 7.72366 72.5905 7.89337C73.6116 9.30941 73.6116 9.30941 75.0398 10.0349C75.5369 10.0524 76.0212 9.99905 76.5078 9.88729C76.3817 9.72481 76.2555 9.56252 76.1285 9.40084C75.9976 9.23308 75.8679 9.06413 75.739 8.89443C74.7179 7.47839 74.7179 7.47839 73.2898 6.75286C72.7926 6.73541 72.3083 6.78875 71.8217 6.90051ZM76.0392 6.90051C76.1139 6.99545 76.1887 7.0904 76.2657 7.18822C76.4466 7.41815 76.6219 7.65009 76.7921 7.8898C77.487 8.8578 78.2011 9.84927 79.3512 10.087C80.0693 10.1683 80.7828 10.1509 81.5031 10.117C81.8626 10.1026 82.2221 10.1015 82.5819 10.0988C83.2596 10.0919 83.9366 10.0734 84.614 10.0505C85.3866 10.0249 86.1593 10.0126 86.9321 10.0013C88.5187 9.97778 90.1046 9.9376 91.6907 9.88729C91.6907 9.37748 91.6907 8.86766 91.6907 8.3424C89.3393 8.0396 86.9861 7.75784 84.6308 7.49378C84.1166 7.43612 83.6025 7.37781 83.0886 7.31791C80.7329 7.04372 78.4098 6.80904 76.0392 6.90051ZM60.1065 11.5352C60.4794 12.0132 60.8492 12.4697 61.2535 12.9123C61.3066 12.9707 61.3597 13.0291 61.4144 13.0893C61.5252 13.2112 61.6362 13.333 61.7472 13.4546C61.9181 13.6418 62.0884 13.8295 62.2587 14.0173C62.3668 14.136 62.475 14.2548 62.5832 14.3735C62.6343 14.4298 62.6853 14.4861 62.7379 14.5441C62.9355 14.8127 62.9355 14.8127 63.1994 14.9339C63.1994 13.8123 63.1994 12.6908 63.1994 11.5352C62.1787 11.5352 61.1581 11.5352 60.1065 11.5352ZM58.9819 12.7711C58.9819 13.8587 58.9819 14.9463 58.9819 16.0668C59.9716 16.0668 60.9613 16.0668 61.981 16.0668C61.6143 15.5968 61.252 15.1473 60.8545 14.7123C60.8035 14.6561 60.7525 14.6 60.7 14.5422C60.5935 14.4251 60.487 14.3082 60.3803 14.1914C60.2163 14.0117 60.0528 13.8315 59.8893 13.6511C59.7854 13.5371 59.6815 13.423 59.5775 13.309C59.5285 13.2549 59.4795 13.2009 59.429 13.1452C59.2379 12.8862 59.2379 12.8862 58.9819 12.7711ZM60.1065 17.7147C60.4794 18.1928 60.8492 18.6492 61.2535 19.0919C61.3066 19.1503 61.3597 19.2087 61.4144 19.2689C61.5252 19.3908 61.6362 19.5125 61.7472 19.6341C61.9181 19.8213 62.0884 20.009 62.2587 20.1968C62.3668 20.3156 62.475 20.4343 62.5832 20.5531C62.6343 20.6094 62.6853 20.6657 62.7379 20.7237C62.9355 20.9922 62.9355 20.9922 63.1994 21.1135C63.1994 19.9919 63.1994 18.8703 63.1994 17.7147C62.1787 17.7147 61.1581 17.7147 60.1065 17.7147ZM58.9819 18.9506C58.9819 20.0382 58.9819 21.1258 58.9819 22.2464C59.9716 22.2464 60.9613 22.2464 61.981 22.2464C61.6143 21.7763 61.252 21.3269 60.8545 20.8918C60.8035 20.8357 60.7525 20.7796 60.7 20.7217C60.5935 20.6047 60.487 20.4878 60.3803 20.371C60.2163 20.1913 60.0528 20.011 59.8893 19.8307C59.7854 19.7166 59.6815 19.6026 59.5775 19.4885C59.5285 19.4345 59.4795 19.3804 59.429 19.3247C59.2379 19.0658 59.2379 19.0658 58.9819 18.9506ZM60.1065 23.8943C60.4794 24.3724 60.8492 24.8288 61.2535 25.2714C61.3066 25.3298 61.3597 25.3882 61.4144 25.4484C61.5252 25.5703 61.6362 25.6921 61.7472 25.8137C61.9181 26.0009 62.0884 26.1886 62.2587 26.3764C62.3668 26.4952 62.475 26.6139 62.5832 26.7326C62.6343 26.7889 62.6853 26.8452 62.7379 26.9033C62.9355 27.1718 62.9355 27.1718 63.1994 27.293C63.1994 26.1715 63.1994 25.0499 63.1994 23.8943C62.1787 23.8943 61.1581 23.8943 60.1065 23.8943ZM82.5997 24.1003C82.5997 24.5761 82.5997 25.0519 82.5997 25.5422C83.5276 25.5422 84.4554 25.5422 85.4114 25.5422C85.4114 25.0663 85.4114 24.5905 85.4114 24.1003C84.4835 24.1003 83.5557 24.1003 82.5997 24.1003ZM58.9819 25.1302C58.9819 26.2178 58.9819 27.3054 58.9819 28.426C59.9716 28.426 60.9613 28.426 61.981 28.426C61.6143 27.9559 61.252 27.5064 60.8545 27.0714C60.8035 27.0152 60.7525 26.9591 60.7 26.9013C60.5935 26.7842 60.487 26.6673 60.3803 26.5505C60.2163 26.3708 60.0528 26.1906 59.8893 26.0103C59.7854 25.8962 59.6815 25.7821 59.5775 25.6681C59.5285 25.614 59.4795 25.56 59.429 25.5043C59.2379 25.2454 59.2379 25.2454 58.9819 25.1302ZM75.9455 27.1901C75.9455 28.6515 75.9455 30.113 75.9455 31.6187C76.5255 31.4913 77.0462 31.3709 77.6023 31.1797C77.6676 31.1574 77.733 31.1351 77.8003 31.1122C77.9403 31.0644 78.0803 31.0164 78.2202 30.9682C78.4424 30.8918 78.6648 30.8163 78.8873 30.7411C79.5193 30.5274 80.1511 30.3132 80.7821 30.0959C81.1698 29.9624 81.558 29.8309 81.9466 29.7005C82.0935 29.6508 82.2403 29.6005 82.3869 29.5493C83.8327 29.0457 84.7852 29.2601 86.2062 29.752C86.3545 29.8025 86.5029 29.8529 86.6513 29.9032C87.0397 30.0351 87.4278 30.168 87.8158 30.3013C88.4376 30.5148 89.0597 30.7271 89.6821 30.9386C89.8983 31.0123 90.1144 31.0867 90.3304 31.1613C90.4638 31.2068 90.5971 31.2522 90.7305 31.2977C90.8461 31.3374 90.9617 31.3771 91.0808 31.418C91.46 31.5386 91.46 31.5386 92.0656 31.6187C92.0656 30.1573 92.0656 28.6958 92.0656 27.1901C86.7459 27.1901 81.4263 27.1901 75.9455 27.1901ZM60.2003 30.0738C60.5669 30.5439 60.9293 30.9934 61.3268 31.4284C61.3777 31.4846 61.4287 31.5407 61.4813 31.5985C61.5877 31.7156 61.6943 31.8325 61.8009 31.9493C61.965 32.129 62.1285 32.3092 62.292 32.4895C62.3959 32.6036 62.4998 32.7177 62.6037 32.8317C62.6527 32.8858 62.7017 32.9398 62.7522 32.9955C62.9433 33.2544 62.9433 33.2544 63.1994 33.3696C63.1994 32.282 63.1994 31.1944 63.1994 30.0738C62.2097 30.0738 61.22 30.0738 60.2003 30.0738ZM82.3984 31.1866C82.2777 31.2279 82.157 31.269 82.0364 31.31C81.7814 31.3968 81.5266 31.4844 81.2719 31.5725C80.8768 31.7093 80.4812 31.8446 80.0855 31.9796C80.0202 32.0018 79.955 32.0241 79.8878 32.047C79.7566 32.0917 79.6255 32.1364 79.4943 32.1812C79.2991 32.2478 79.1039 32.3146 78.9087 32.3814C77.7696 32.7709 76.6264 33.1434 75.4798 33.5055C75.3661 33.5417 75.2524 33.5778 75.1353 33.615C75.0393 33.6452 74.9433 33.6753 74.8443 33.7064C74.6385 33.7603 74.6385 33.7603 74.5397 33.8846C74.5328 34.1269 74.5318 34.3695 74.5338 34.612C74.5346 34.7449 74.5355 34.8778 74.5364 35.0147C74.5375 35.1176 74.5385 35.2205 74.5397 35.3265C75.3524 35.1765 76.1312 34.9154 76.9171 34.649C77.0563 34.6022 77.1954 34.5555 77.3346 34.5088C77.6998 34.3862 78.0648 34.2631 78.4297 34.1397C78.795 34.0164 79.1605 33.8936 79.5259 33.7707C79.5971 33.7468 79.6683 33.7228 79.7416 33.6982C80.0932 33.5799 80.4449 33.4617 80.7967 33.3439C81.3792 33.1487 81.9613 32.9526 82.5409 32.747C82.6701 32.702 82.6701 32.702 82.802 32.6561C82.9528 32.6034 83.1034 32.5495 83.2534 32.494C84.1499 32.1844 84.9487 32.5507 85.8133 32.8482C85.9358 32.8898 86.0583 32.9313 86.1807 32.9727C86.5037 33.0822 86.8264 33.1924 87.1491 33.3028C87.4668 33.4115 87.7847 33.5195 88.1026 33.6275C88.165 33.6487 88.2274 33.6699 88.2918 33.6918C88.4179 33.7347 88.5441 33.7775 88.6702 33.8204C88.7962 33.8631 88.9221 33.9059 89.048 33.9487C89.9543 34.2567 90.8609 34.5633 91.7689 34.865C91.893 34.9063 92.0171 34.9477 92.1411 34.9893C92.3121 35.0466 92.4832 35.1033 92.6544 35.1599C92.7999 35.2083 92.7999 35.2083 92.9484 35.2577C93.194 35.3394 93.194 35.3394 93.4714 35.3265C93.4714 34.8506 93.4714 34.3748 93.4714 33.8846C92.7833 33.5861 92.0791 33.3541 91.3711 33.1202C91.2386 33.0762 91.1062 33.0322 90.9737 32.9881C90.6254 32.8724 90.2769 32.7569 89.9284 32.6415C89.513 32.504 89.0978 32.366 88.6825 32.2281C88.3456 32.1162 88.0086 32.0045 87.6715 31.8932C87.0741 31.6958 86.4775 31.4966 85.8829 31.289C85.7845 31.255 85.686 31.2209 85.5846 31.1859C85.4064 31.124 85.2284 31.0613 85.0508 30.9974C84.0584 30.6547 83.3724 30.8462 82.3984 31.1866ZM58.9819 31.2068C58.9819 32.3284 58.9819 33.4499 58.9819 34.6055C60.0025 34.6055 61.0231 34.6055 62.0747 34.6055C61.7018 34.1274 61.332 33.671 60.9277 33.2284C60.8746 33.17 60.8216 33.1116 60.7669 33.0514C60.656 32.9295 60.5451 32.8077 60.434 32.6861C60.2632 32.4989 60.0929 32.3112 59.9226 32.1234C59.8144 32.0047 59.7062 31.8859 59.598 31.7672C59.547 31.7109 59.4959 31.6546 59.4433 31.5965C59.2457 31.328 59.2457 31.328 58.9819 31.2068ZM82.5422 34.3963C82.4772 34.4179 82.4122 34.4395 82.3453 34.4618C82.128 34.5341 81.9108 34.6066 81.6936 34.6791C81.5408 34.73 81.388 34.7809 81.2351 34.8318C80.8293 34.967 80.4234 35.1023 80.0176 35.2376C79.3797 35.4504 78.7417 35.6628 78.1037 35.8753C77.8691 35.9535 77.6345 36.0317 77.3999 36.11C76.6611 36.3563 75.922 36.6014 75.1819 36.8432C75.1152 36.8651 75.0486 36.8869 74.9799 36.9094C74.6686 37.0113 74.3572 37.1129 74.0456 37.2139C73.9384 37.249 73.8311 37.284 73.7206 37.3202C73.5802 37.3657 73.5802 37.3657 73.4371 37.4122C73.2326 37.4684 73.2326 37.4684 73.1338 37.5923C73.1236 37.7785 73.1199 37.9651 73.1187 38.1516C73.1178 38.2714 73.1169 38.3911 73.116 38.5144C73.1156 38.6452 73.1152 38.776 73.1148 38.9107C73.1143 39.0448 73.1137 39.1789 73.1132 39.317C73.1122 39.6021 73.1116 39.8873 73.1113 40.1724C73.1108 40.5345 73.1086 40.8965 73.1059 41.2585C73.1037 41.6067 73.1035 41.9548 73.1031 42.303C73.1019 42.4315 73.1008 42.5599 73.0996 42.6923C73.1033 44.3099 73.5089 45.7757 74.5397 46.9646C75.7139 48.1379 76.8882 48.4146 78.411 48.5967C79.1233 48.687 79.7195 48.8423 80.3504 49.2305C80.4406 49.2848 80.5309 49.3391 80.6239 49.395C81.0214 49.6431 81.4099 49.906 81.7969 50.1735C81.8507 50.2105 81.9045 50.2475 81.96 50.2856C82.1109 50.3897 82.2613 50.495 82.4115 50.6004C82.7283 50.81 82.7283 50.81 83.2558 50.9813C83.2558 45.4414 83.2558 39.9014 83.2558 34.1936C83.0234 34.1936 82.7591 34.324 82.5422 34.3963ZM56.8263 36.2534C56.8263 36.7292 56.8263 37.2051 56.8263 37.6953C59.6098 37.6953 62.3934 37.6953 65.2612 37.6953C65.2612 37.2195 65.2612 36.7436 65.2612 36.2534C62.4777 36.2534 59.6942 36.2534 56.8263 36.2534ZM55.4205 39.3432C55.4205 39.819 55.4205 40.2948 55.4205 40.7851C57.0009 40.797 58.5814 40.8062 60.1619 40.8118C60.8958 40.8144 61.6296 40.818 62.3634 40.8239C63.0031 40.8291 63.6427 40.8324 64.2823 40.8335C64.621 40.8342 64.9597 40.8358 65.2983 40.8395C65.6765 40.8437 66.0545 40.8438 66.4326 40.8435C66.5449 40.8454 66.6571 40.8472 66.7728 40.8491C67.3926 40.8642 67.3926 40.8643 67.9118 40.5441C68.0994 40.2794 68.0994 40.2794 68.0729 39.9483C67.9765 39.6436 67.9273 39.5343 67.698 39.3432C67.4647 39.2975 67.4647 39.2975 67.1981 39.306C67.0425 39.3054 67.0425 39.3054 66.8839 39.3047C66.7701 39.3058 66.6563 39.307 66.539 39.3081C66.4192 39.3081 66.2994 39.308 66.176 39.308C65.8474 39.3079 65.5189 39.3097 65.1903 39.3119C64.8469 39.3138 64.5036 39.314 64.1602 39.3143C63.51 39.3153 62.8598 39.3178 62.2095 39.3209C61.4693 39.3244 60.7291 39.3261 59.9888 39.3276C58.466 39.3309 56.9432 39.3364 55.4205 39.3432ZM55.4205 42.433C55.4205 44.5062 55.4205 46.5794 55.4205 48.7155C56.0081 49.0554 56.5957 49.3953 57.2012 49.7454C57.9158 50.2475 57.9158 50.2475 58.2328 50.4748C59.03 51.0363 59.7092 51.2606 60.6689 51.0843C61.5175 50.7727 62.276 50.1982 63.0165 49.6591C63.743 49.1345 64.4172 48.8444 65.2612 48.6125C65.2612 46.5733 65.2612 44.534 65.2612 42.433C62.0138 42.433 58.7663 42.433 55.4205 42.433Z" fill="#0F00FF"/>
<path d="M91.6903 38.0044C91.8701 38.051 92.0497 38.0983 92.2292 38.146C92.3292 38.1723 92.4293 38.1986 92.5323 38.2257C92.7736 38.3005 92.9721 38.3857 93.1899 38.5194C93.1347 38.758 93.0778 38.996 93.02 39.2339C93.0045 39.3018 92.9889 39.3697 92.9729 39.4397C92.9244 39.6358 92.9244 39.6358 92.815 39.9613C92.446 40.0964 92.2733 39.9962 91.907 39.8647C91.7965 39.8255 91.686 39.7864 91.5721 39.746C91.4874 39.7151 91.4027 39.6841 91.3154 39.6523C91.4106 39.089 91.5095 38.5437 91.6903 38.0044Z" fill="#0F00FF"/>
<path d="M89.0663 37.1804C89.2479 37.2296 89.4295 37.279 89.611 37.3285C89.7627 37.3697 89.7627 37.3697 89.9175 37.4118C90.1042 37.4648 90.2892 37.5254 90.4721 37.5924C90.4158 38.1743 90.2776 38.6905 90.0972 39.2403C90.0272 39.2192 89.9571 39.1981 89.8849 39.1763C89.7926 39.1486 89.7003 39.1208 89.6052 39.0922C89.5139 39.0647 89.4225 39.0373 89.3284 39.0089C89.1166 38.9462 88.9045 38.8857 88.6914 38.8283C88.7405 38.2239 88.8565 37.7419 89.0663 37.1804Z" fill="#0F00FF"/>
<path d="M39.9901 0C40.0519 0.00225699 40.1138 0.00451397 40.1775 0.00683935C40.2394 0.00670659 40.3012 0.00657383 40.3649 0.00643704C40.6449 0.093567 40.7492 0.223953 40.9273 0.476743C40.96 0.760062 40.9712 1.00081 40.9639 1.28298C40.9634 1.36012 40.9628 1.43727 40.9623 1.51675C40.9602 1.76235 40.9555 2.00781 40.9507 2.25337C40.9488 2.42019 40.9471 2.58702 40.9456 2.75385C40.9415 3.16212 40.935 3.57028 40.9273 3.97849C41.0218 3.97687 41.1164 3.97526 41.2138 3.97359C41.5653 3.96799 41.9167 3.96445 42.2681 3.96152C42.4201 3.95997 42.5721 3.95786 42.7241 3.95518C42.9428 3.95143 43.1614 3.94968 43.3801 3.94832C43.4479 3.94672 43.5157 3.94513 43.5855 3.94349C43.8781 3.94338 44.0824 3.95955 44.3412 4.11556C44.6452 4.46994 44.5947 4.89161 44.5916 5.34757C44.5914 5.45664 44.5914 5.45664 44.5912 5.56792C44.5906 5.79983 44.5895 6.03173 44.5883 6.26364C44.5878 6.42101 44.5874 6.57838 44.587 6.73576C44.586 7.12125 44.5843 7.50673 44.5824 7.89221C44.6741 7.89059 44.7659 7.88898 44.8604 7.88731C45.2013 7.88171 45.5422 7.87817 45.8832 7.87524C46.0307 7.87369 46.1781 7.87158 46.3256 7.8689C46.5377 7.86515 46.7499 7.8634 46.9621 7.86204C47.0278 7.86044 47.0935 7.85885 47.1612 7.85721C47.4345 7.8571 47.638 7.87024 47.881 8.01357C48.0501 8.20119 48.0501 8.20119 48.0921 8.46118C48.0707 9.1825 48.0097 9.87918 47.8982 10.5903C47.8821 10.6982 47.8659 10.806 47.8493 10.9171C47.7963 11.2692 47.742 11.621 47.6877 11.9729C47.6502 12.2193 47.6129 12.4656 47.5755 12.712C47.4975 13.2263 47.4188 13.7404 47.3396 14.2544C47.2382 14.9131 47.1381 15.5721 47.0384 16.2312C46.9615 16.739 46.884 17.2468 46.8063 17.7545C46.7692 17.9975 46.7322 18.2406 46.6954 18.4837C46.6439 18.8227 46.5917 19.1615 46.5393 19.5004C46.5166 19.6507 46.5166 19.6507 46.4935 19.8041C46.3141 20.9525 46.3141 20.9525 45.9666 21.2607C45.662 21.4057 45.446 21.4155 45.1155 21.4036C45.0153 21.4008 44.9151 21.398 44.812 21.3951C44.7362 21.3915 44.6605 21.3879 44.5824 21.3842C44.5834 21.4819 44.5844 21.5796 44.5854 21.6802C44.5886 22.0434 44.5909 22.4065 44.5927 22.7697C44.5936 22.9268 44.5949 23.0838 44.5965 23.2408C44.5988 23.4668 44.5999 23.6928 44.6007 23.9188C44.6017 24.0547 44.6027 24.1907 44.6037 24.3307C44.584 24.6546 44.5581 24.8269 44.395 25.092C44.0688 25.3583 43.7345 25.3189 43.3406 25.3108C43.2222 25.309 43.1038 25.3071 42.9818 25.3052C42.8915 25.3028 42.8011 25.3004 42.708 25.298C42.7099 25.3644 42.7119 25.4309 42.7139 25.4994C42.7217 25.8013 42.7266 26.1032 42.7314 26.4051C42.7346 26.5098 42.7377 26.6144 42.7409 26.7222C42.7502 27.4951 42.7502 27.4951 42.5392 27.8386C42.2304 28.0441 42.0308 28.0372 41.677 27.9758C41.4237 27.7843 41.4237 27.7843 41.2084 27.4608C41.1514 27.087 41.1643 26.7249 41.1791 26.3472C41.1888 26.001 41.1985 25.6547 41.2084 25.298C40.528 25.298 39.8476 25.298 39.1466 25.298C39.1466 33.8628 39.1466 42.4277 39.1466 51.2521C39.827 51.2521 40.5074 51.2521 41.2084 51.2521C41.2074 50.99 41.2064 50.7279 41.2053 50.4579C41.1957 47.9921 41.1887 45.5263 41.1842 43.0605C41.1817 41.7927 41.1784 40.5249 41.1731 39.2571C41.1684 38.1523 41.1654 37.0474 41.1643 35.9426C41.1637 35.3574 41.1623 34.7723 41.1589 34.1871C41.1557 33.6365 41.1547 33.086 41.1554 32.5354C41.1553 32.3332 41.1544 32.1309 41.1526 31.9287C41.1502 31.6528 41.1508 31.3771 41.1521 31.1012C41.1507 31.0209 41.1494 30.9407 41.1479 30.858C41.1531 30.4493 41.1948 30.2609 41.4254 29.934C41.677 29.7266 41.677 29.7266 42.0109 29.6687C42.3946 29.7377 42.482 29.7961 42.708 30.1386C42.7448 30.4483 42.7586 30.7203 42.7556 31.0299C42.7565 31.1663 42.7565 31.1663 42.7574 31.3054C42.7589 31.6106 42.7577 31.9158 42.7565 32.221C42.757 32.4396 42.7577 32.6581 42.7585 32.8767C42.7602 33.4708 42.7595 34.0649 42.7583 34.659C42.7574 35.2801 42.7583 35.9012 42.7589 36.5224C42.7595 37.5655 42.7586 38.6086 42.7569 39.6518C42.7548 40.8586 42.7555 42.0654 42.7575 43.2722C42.7592 44.3075 42.7595 45.3427 42.7585 46.378C42.7579 46.9967 42.7578 47.6154 42.7591 48.2341C42.7602 48.8157 42.7594 49.3973 42.7572 49.9789C42.7567 50.1926 42.7569 50.4064 42.7577 50.6201C42.7587 50.9114 42.7575 51.2025 42.7556 51.4937C42.7564 51.5788 42.7573 51.6639 42.7581 51.7515C42.7538 52.0962 42.7449 52.329 42.5578 52.6126C42.2557 52.8605 42.0648 52.8486 41.6894 52.8488C41.6243 52.8494 41.5593 52.85 41.4923 52.8507C41.2733 52.8522 41.0543 52.8507 40.8353 52.8493C40.6771 52.8498 40.519 52.8504 40.3608 52.8513C39.9253 52.853 39.4899 52.8521 39.0544 52.8508C38.585 52.8499 38.1157 52.8514 37.6464 52.8525C36.7267 52.8543 35.807 52.8539 34.8873 52.8527C34.14 52.8518 33.3927 52.8517 32.6455 52.8521C32.5392 52.8522 32.433 52.8522 32.3236 52.8523C32.1078 52.8524 31.892 52.8526 31.6762 52.8527C29.6514 52.8539 27.6266 52.8525 25.6017 52.8503C23.8631 52.8485 22.1245 52.8488 20.3859 52.8507C18.3685 52.8529 16.3511 52.8538 14.3336 52.8525C14.1186 52.8524 13.9036 52.8522 13.6886 52.8521C13.5828 52.8521 13.477 52.852 13.3681 52.8519C12.6214 52.8516 11.8748 52.8522 11.1281 52.8531C10.2186 52.8543 9.3091 52.854 8.39958 52.8518C7.93525 52.8507 7.47093 52.8503 7.0066 52.8516C6.58192 52.8529 6.15728 52.8522 5.73261 52.85C5.5786 52.8495 5.42459 52.8498 5.27058 52.8508C5.06191 52.852 4.85338 52.8508 4.64473 52.8488C4.52863 52.8488 4.41253 52.8487 4.29291 52.8486C3.94634 52.7873 3.83581 52.6886 3.62611 52.385C3.57851 52.1506 3.57851 52.1506 3.5776 51.891C3.57642 51.7934 3.57524 51.6958 3.57402 51.5952C3.57478 51.4905 3.57554 51.3857 3.57632 51.2779C3.57596 51.1697 3.5756 51.0615 3.57523 50.9501C3.57498 50.7215 3.57567 50.493 3.57724 50.2644C3.57924 49.9145 3.57725 49.5647 3.57486 49.2148C3.5751 48.9927 3.57558 48.7706 3.57632 48.5485C3.57556 48.4438 3.5748 48.3391 3.57402 48.2312C3.58279 47.5072 3.58279 47.5072 3.80495 47.1698C4.01505 47.0193 4.12684 46.9709 4.37588 46.9715C4.43774 46.9692 4.49959 46.967 4.56333 46.9646C4.75077 47.0294 4.75077 47.0294 5.12565 47.5444C5.12565 48.7679 5.12565 49.9915 5.12565 51.2521C15.8577 51.2521 26.5898 51.2521 37.647 51.2521C37.647 47.8873 37.647 44.5226 37.647 41.0558C26.915 41.0558 16.1829 41.0558 5.12565 41.0558C5.12565 42.2454 5.12565 43.435 5.12565 44.6606C4.93821 45.0725 4.93821 45.0725 4.78006 45.2077C4.45954 45.3124 4.22864 45.2654 3.90727 45.1755C3.64806 44.9173 3.62614 44.764 3.59419 44.3764C3.59423 44.2217 3.59581 44.067 3.59865 43.9123C3.59905 43.8306 3.59945 43.7488 3.59986 43.6646C3.60143 43.4044 3.60496 43.1442 3.60854 42.884C3.60995 42.7072 3.61123 42.5305 3.61238 42.3537C3.61548 41.921 3.62033 41.4885 3.62611 41.0558C3.53487 41.058 3.44364 41.0602 3.34964 41.0624C3.00993 41.0699 2.67022 41.0746 2.33046 41.0785C2.18364 41.0805 2.03683 41.0833 1.89004 41.0869C1.67855 41.0919 1.46715 41.0943 1.25561 41.0961C1.19038 41.0982 1.12515 41.1003 1.05794 41.1025C0.752587 41.1027 0.535038 41.0567 0.257536 40.9154C-0.0440214 40.4908 -0.000584966 40.0797 0.00575058 39.5556C0.00552453 39.4495 0.00529705 39.3433 0.00506415 39.234C0.00515588 39.0099 0.00641316 38.7857 0.00874802 38.5616C0.0119662 38.218 0.0106836 37.8746 0.00886243 37.531C0.00950887 37.3132 0.0104153 37.0955 0.0116082 36.8778C0.0111433 36.7748 0.0106771 36.6718 0.0101981 36.5657C0.0116823 36.4701 0.013168 36.3746 0.0146971 36.2761C0.0152781 36.192 0.0158576 36.108 0.0164561 36.0214C0.0646912 35.8032 0.0646925 35.8032 0.204457 35.6376C0.544426 35.4303 0.871808 35.4509 1.25067 35.4536C1.3334 35.453 1.41612 35.4524 1.50135 35.4517C1.77908 35.45 2.05677 35.4505 2.33451 35.451C2.5334 35.4502 2.73229 35.4493 2.93118 35.4483C3.47181 35.446 4.01243 35.4458 4.55307 35.4459C5.004 35.446 5.45493 35.4451 5.90587 35.4442C6.96937 35.4422 8.03287 35.4419 9.09637 35.4426C10.1946 35.4433 11.2927 35.441 12.3909 35.4371C13.333 35.434 14.2751 35.4328 15.2171 35.4332C15.7802 35.4334 16.3432 35.4329 16.9062 35.4303C17.4354 35.4281 17.9646 35.4282 18.4939 35.4303C18.6884 35.4307 18.8829 35.4302 19.0774 35.4287C19.3424 35.4268 19.6073 35.4281 19.8723 35.4302C19.9498 35.4289 20.0272 35.4276 20.1069 35.4263C20.4736 35.4326 20.6462 35.457 20.9219 35.7324C21.108 36.1101 21.0677 36.3221 20.9646 36.7301C20.787 36.9963 20.6939 37.0353 20.4023 37.1421C20.1518 37.1518 19.9038 37.1555 19.6533 37.1545C19.5375 37.1546 19.5375 37.1546 19.4194 37.1548C19.16 37.1549 18.9005 37.1544 18.6411 37.1538C18.4554 37.1538 18.2698 37.1538 18.0842 37.1539C17.5794 37.1539 17.0746 37.1533 16.5698 37.1526C16.0426 37.1519 15.5154 37.1519 14.9881 37.1517C13.9894 37.1514 12.9906 37.1506 11.9919 37.1495C10.855 37.1484 9.71812 37.1478 8.58124 37.1473C6.24224 37.1462 3.90324 37.1444 1.56424 37.1421C1.56424 37.8898 1.56424 38.6376 1.56424 39.408C13.4716 39.408 25.3789 39.408 37.647 39.408C37.647 38.6602 37.647 37.9125 37.647 37.1421C37.4684 37.1426 37.2898 37.143 37.1058 37.1435C35.4247 37.1477 33.7435 37.1508 32.0624 37.1528C31.1981 37.1539 30.3338 37.1553 29.4694 37.1577C28.7161 37.1597 27.9628 37.161 27.2095 37.1615C26.8106 37.1618 26.4117 37.1624 26.0128 37.1639C25.6373 37.1653 25.2618 37.1657 24.8864 37.1654C24.7486 37.1655 24.6108 37.1659 24.473 37.1667C24.2848 37.1677 24.0966 37.1673 23.9084 37.1669C23.7504 37.1672 23.7504 37.1672 23.5892 37.1675C23.1942 37.1319 22.933 37.0394 22.6516 36.7301C22.5606 36.422 22.5484 36.2525 22.6281 35.9384C22.7453 35.7002 22.7453 35.7002 23.0265 35.4942C23.2894 35.4689 23.2894 35.4689 23.6153 35.4695C23.7387 35.4692 23.8621 35.4689 23.9893 35.4686C24.1264 35.4693 24.2634 35.4701 24.4005 35.4708C24.5446 35.4709 24.6887 35.4709 24.8328 35.4708C25.2243 35.4707 25.6158 35.4719 26.0073 35.4733C26.4163 35.4746 26.8253 35.4748 27.2344 35.475C28.0091 35.4756 28.7838 35.4773 29.5585 35.4794C30.6052 35.4821 31.6519 35.4832 32.6987 35.4844C34.3481 35.4864 35.9976 35.4905 37.647 35.4942C37.647 32.1295 37.647 28.7647 37.647 25.298C37.214 25.298 36.781 25.298 36.3349 25.298C35.8663 24.886 35.8663 24.886 35.7726 24.577C35.7647 24.3343 35.7625 24.0913 35.7634 23.8484C35.7636 23.7428 35.7636 23.7428 35.7638 23.635C35.7644 23.4104 35.7655 23.1859 35.7667 22.9613C35.7672 22.8089 35.7676 22.6565 35.768 22.5041C35.769 22.1308 35.7707 21.7575 35.7726 21.3842C35.6901 21.3878 35.6076 21.3914 35.5225 21.3951C35.4137 21.3979 35.3048 21.4007 35.1927 21.4036C35.085 21.4071 34.9774 21.4107 34.8665 21.4144C34.5152 21.3805 34.3646 21.3076 34.0856 21.0753C33.9908 20.8346 33.9908 20.8346 33.938 20.533C33.9164 20.4126 33.8948 20.2923 33.8726 20.1683C33.8496 20.0243 33.8269 19.8804 33.8044 19.7364C33.7914 19.655 33.7784 19.5736 33.7649 19.4897C33.6538 18.7916 33.551 18.0922 33.449 17.3925C33.4157 17.1662 33.3825 16.9399 33.3493 16.7136C33.2801 16.2416 33.2112 15.7694 33.1426 15.2973C33.0548 14.6945 32.966 14.0919 32.8769 13.4893C32.8081 13.0229 32.74 12.5563 32.6721 12.0897C32.6397 11.8676 32.607 11.6454 32.574 11.4233C32.5279 11.1123 32.4829 10.8011 32.4381 10.4899C32.4245 10.3998 32.4109 10.3097 32.3969 10.2168C32.3077 9.58632 32.2425 8.94126 32.3049 8.30418C32.4953 8.0299 32.4953 8.0299 32.7735 7.89221C33.102 7.84544 33.102 7.84544 33.4753 7.85198C33.5412 7.85256 33.6071 7.85315 33.675 7.85375C33.8842 7.85604 34.0932 7.86121 34.3023 7.86646C34.4447 7.86853 34.587 7.87041 34.7294 7.8721C35.0772 7.87662 35.4249 7.88373 35.7726 7.89221C35.7716 7.79819 35.7706 7.70417 35.7696 7.6073C35.7664 7.257 35.7641 6.90671 35.7623 6.5564C35.7614 6.40506 35.7601 6.25372 35.7584 6.10239C35.7562 5.8843 35.7551 5.66625 35.7543 5.44815C35.7533 5.31709 35.7523 5.18602 35.7513 5.05099C35.772 4.70848 35.812 4.48492 35.96 4.18448C36.306 3.93101 36.5661 3.95215 36.9657 3.95838C37.036 3.95867 37.1064 3.95896 37.1788 3.95926C37.4032 3.96041 37.6276 3.963 37.852 3.96562C38.0043 3.96665 38.1565 3.96759 38.3087 3.96843C38.6818 3.9707 39.0547 3.97426 39.4277 3.97849C39.4258 3.87823 39.4238 3.77797 39.4218 3.67467C39.415 3.30135 39.4107 2.92804 39.4071 2.55467C39.4053 2.39333 39.4027 2.232 39.3994 2.07069C39.3949 1.83827 39.3928 1.60596 39.3911 1.3735C39.3892 1.30182 39.3872 1.23013 39.3853 1.15627C39.3851 0.785545 39.4209 0.591275 39.6057 0.276692C39.8026 0.0647727 39.8026 0.0647727 39.9901 0ZM37.2721 5.62637C37.2721 6.3741 37.2721 7.12183 37.2721 7.89221C39.1897 7.89221 41.1072 7.89221 43.0829 7.89221C43.0829 7.14448 43.0829 6.39676 43.0829 5.62637C41.1653 5.62637 39.2478 5.62637 37.2721 5.62637ZM33.8982 9.54009C33.9909 10.2878 34.0837 11.0355 34.1793 11.8059C38.1072 11.8059 42.0351 11.8059 46.082 11.8059C46.3193 10.9591 46.3193 10.9591 46.4568 9.54009C42.3125 9.54009 38.1681 9.54009 33.8982 9.54009ZM34.4605 13.4538C34.4503 14.6953 34.4503 14.6953 34.8354 15.7197C34.9741 15.7295 35.1132 15.7322 35.2523 15.732C35.3873 15.7322 35.3873 15.7322 35.5251 15.7325C35.6744 15.7319 35.6744 15.7319 35.8268 15.7313C35.931 15.7314 36.0352 15.7314 36.1426 15.7314C36.489 15.7313 36.8353 15.7305 37.1817 15.7297C37.4211 15.7295 37.6605 15.7294 37.8999 15.7293C38.4669 15.7289 39.0338 15.7281 39.6007 15.7271C40.246 15.7259 40.8913 15.7254 41.5365 15.7248C42.8642 15.7238 44.1919 15.7219 45.5196 15.7197C45.5822 15.3614 45.6447 15.003 45.7071 14.6447C45.7249 14.5424 45.7428 14.4401 45.7612 14.3347C45.7866 14.1888 45.7866 14.1888 45.8125 14.04C45.8282 13.9499 45.8439 13.8598 45.8601 13.767C45.8973 13.5755 45.8973 13.5755 45.8945 13.4538C42.1213 13.4538 38.3481 13.4538 34.4605 13.4538ZM35.0228 17.3675C35.0988 18.5902 35.0988 18.5902 35.3977 19.7364C38.5524 19.7364 41.707 19.7364 44.9573 19.7364C45.1574 18.5574 45.1574 18.5574 45.2385 17.3675C41.8673 17.3675 38.4961 17.3675 35.0228 17.3675ZM37.2721 21.3842C37.2721 22.132 37.2721 22.8797 37.2721 23.6501C39.1897 23.6501 41.1072 23.6501 43.0829 23.6501C43.0829 22.9024 43.0829 22.1546 43.0829 21.3842C41.1653 21.3842 39.2478 21.3842 37.2721 21.3842Z" fill="#0F00FF"/>
<path d="M17.1337 10.3383C17.2328 10.3643 17.332 10.3903 17.4342 10.4171C17.961 10.5624 18.3893 10.699 18.8089 11.085C18.9085 11.3296 18.9085 11.3296 18.9027 11.5999C18.7283 12.0424 18.5223 12.3694 18.2232 12.72C18.1492 12.808 18.0753 12.896 17.9991 12.9867C17.9261 13.0729 17.8532 13.159 17.778 13.2478C17.6523 13.3995 17.5273 13.5517 17.4031 13.7048C17.3509 13.7684 17.2987 13.832 17.245 13.8975C17.1022 14.0798 17.1022 14.0798 17.0282 14.3807C17.7151 14.5894 18.4023 14.7964 19.0898 15.0024C19.3237 15.0727 19.5575 15.1433 19.7913 15.2143C20.127 15.3163 20.463 15.4169 20.7991 15.5173C20.9561 15.5654 20.9561 15.5654 21.1162 15.6145C21.2138 15.6433 21.3113 15.6722 21.4118 15.702C21.4976 15.7278 21.5833 15.7536 21.6716 15.7803C21.9141 15.8249 22.0487 15.8158 22.2766 15.7196C22.4974 15.513 22.4974 15.513 22.7174 15.2509C22.8016 15.1555 22.8858 15.0602 22.9726 14.9619C23.1047 14.8103 23.2365 14.6585 23.3679 14.5063C24.0744 13.6917 24.669 13.1034 25.7216 13.0108C26.3322 13.019 26.9161 13.2059 27.5024 13.3769C27.7019 13.4348 27.9019 13.4904 28.102 13.5457C28.2297 13.5821 28.3573 13.6187 28.4849 13.6554C28.5998 13.6883 28.7147 13.7212 28.8331 13.7551C29.1044 13.8604 29.2347 13.9202 29.3995 14.1747C29.4507 14.5502 29.4408 14.726 29.2446 15.0421C29.1386 15.1608 29.1386 15.1608 29.0304 15.2819C28.9535 15.3703 28.8765 15.4588 28.7972 15.5499C28.6778 15.6849 28.6778 15.6849 28.556 15.8226C28.4107 15.9978 28.2662 16.1738 28.1225 16.3505C28.0527 16.4357 27.9828 16.5209 27.9109 16.6087C27.734 16.8261 27.5588 17.0447 27.3845 17.2645C27.3318 17.3306 27.2791 17.3968 27.2248 17.4649C27.1043 17.6163 26.9843 17.7681 26.8646 17.9203C26.1174 18.855 25.2836 19.6586 24.4007 20.4348C24.1586 20.6564 23.9371 20.8914 23.7117 21.1332C22.4521 22.3897 20.8057 22.8392 19.1403 22.7887C17.9444 22.6999 16.7669 22.2691 15.6224 21.8992C15.6533 22.0012 15.6843 22.1031 15.7161 22.2082C15.7535 22.5633 15.7684 22.9199 15.7864 23.2767C15.7928 23.3742 15.7992 23.4716 15.8058 23.572C15.8263 23.9826 15.8351 24.2948 15.7059 24.684C15.4738 24.9486 15.29 25.0041 14.9664 25.092C14.6851 25.059 14.6851 25.059 14.3908 24.9761C14.2287 24.9305 14.2287 24.9305 14.0632 24.884C13.8956 24.834 13.8956 24.834 13.7245 24.783C13.6142 24.7528 13.5039 24.7227 13.3903 24.6917C12.3975 24.4041 11.5955 24.0446 11.0447 23.0575C11.0089 22.9811 10.9732 22.9048 10.9363 22.8261C10.9018 22.7526 10.8672 22.679 10.8316 22.6032C10.7098 22.1731 10.7049 21.7487 10.6903 21.3005C10.6867 21.2095 10.6831 21.1185 10.6793 21.0248C10.6705 20.8013 10.6627 20.5778 10.6552 20.3543C10.5474 20.3417 10.4397 20.329 10.3288 20.316C9.91861 20.2594 9.52838 20.1576 9.12967 20.0398C9.05611 20.0185 8.98255 19.9972 8.90676 19.9753C8.66569 19.9053 8.42483 19.8346 8.18399 19.7637C8.01501 19.7143 7.84602 19.6648 7.67703 19.6154C7.32354 19.5119 6.97017 19.408 6.61685 19.3038C6.16631 19.1709 5.71542 19.0396 5.26442 18.9087C4.91542 18.8072 4.56669 18.7046 4.21801 18.6017C4.05198 18.5529 3.88587 18.5045 3.71966 18.4564C1.20723 17.7284 1.20723 17.7284 0.486011 16.5118C0.141232 15.8544 0.0462444 15.3533 0.0411997 14.5931C0.0392667 14.5207 0.0373337 14.4483 0.0353421 14.3737C0.0321594 13.9072 0.067228 13.6055 0.345795 13.2478C0.55588 13.1029 0.749076 12.9875 0.972557 12.8745C1.03654 12.8409 1.10051 12.8072 1.16643 12.7726C1.31059 12.6974 1.45509 12.623 1.59987 12.5492C1.8724 12.41 2.14364 12.2681 2.41499 12.1262C2.61359 12.0235 2.81226 11.9211 3.011 11.8188C3.10526 11.7697 3.19951 11.7206 3.29663 11.6701C4.3519 11.1349 5.25027 10.9307 6.39303 11.2624C6.45824 11.281 6.52345 11.2997 6.59064 11.3189C6.80153 11.3795 7.01206 11.4414 7.22261 11.5034C7.3688 11.5455 7.51501 11.5875 7.66124 11.6294C8.34537 11.8263 9.0279 12.029 9.70916 12.2376C9.82026 12.2714 9.93137 12.3052 10.0458 12.34C10.2521 12.403 10.4581 12.4672 10.6637 12.5325C10.7554 12.5607 10.847 12.5888 10.9415 12.6178C11.0202 12.6426 11.099 12.6675 11.1801 12.6931C11.4457 12.7401 11.6177 12.7212 11.8735 12.6299C12.0488 12.4795 12.0488 12.4795 12.1972 12.281C12.2553 12.2098 12.3134 12.1386 12.3733 12.0652C12.4326 11.9903 12.4919 11.9153 12.553 11.8381C13.1514 11.0837 13.7723 10.3959 14.691 10.1709C14.7791 10.1478 14.8672 10.1247 14.9579 10.1009C15.7346 9.9779 16.3806 10.1271 17.1337 10.3383ZM13.8036 12.7328C13.6597 12.9314 13.5607 13.1197 13.4668 13.3508C14.3841 13.8048 14.3841 13.8048 15.3412 13.7628C15.5563 13.569 15.7371 13.3475 15.9211 13.1191C15.9711 13.06 16.0211 13.0009 16.0725 12.94C16.3405 12.6148 16.5341 12.3364 16.6533 11.9089C16.5227 11.8739 16.3918 11.8397 16.2609 11.8059C16.188 11.7868 16.1152 11.7677 16.0401 11.748C15.1191 11.5678 14.425 12.0164 13.8036 12.7328ZM2.8177 13.7821C2.70691 13.8383 2.59613 13.8945 2.48199 13.9525C1.99192 14.1649 1.99192 14.1649 1.56417 14.4837C1.54186 14.9805 1.60774 15.4046 1.88634 15.8033C2.61318 16.5915 3.81457 16.756 4.7734 17.0344C4.92877 17.0799 5.08413 17.1255 5.23947 17.1712C5.56312 17.2661 5.88687 17.3606 6.21071 17.4547C6.62563 17.5754 7.04029 17.697 7.45488 17.8191C7.77478 17.9131 8.0948 18.0066 8.41486 18.1C8.56788 18.1447 8.72086 18.1895 8.8738 18.2345C9.08696 18.2972 9.30026 18.3591 9.51362 18.4209C9.57652 18.4395 9.63943 18.4581 9.70424 18.4773C10.0055 18.5638 10.2464 18.6034 10.5614 18.6034C10.5593 18.4744 10.5571 18.3453 10.5549 18.2124C10.5531 18.0423 10.5514 17.8723 10.5497 17.7022C10.5482 17.6173 10.5466 17.5323 10.545 17.4448C10.5444 17.3624 10.5438 17.2801 10.5431 17.1953C10.5422 17.1198 10.5412 17.0443 10.5402 16.9665C10.5672 16.6907 10.5853 16.5541 10.7489 16.3376C11.3191 16.185 11.76 16.264 12.3173 16.4353C12.3923 16.4574 12.4673 16.4794 12.5446 16.5021C12.702 16.5487 12.8592 16.5961 13.0162 16.6442C13.2561 16.7174 13.4966 16.7874 13.7374 16.8572C13.8908 16.9031 14.0442 16.9491 14.1975 16.9954C14.3049 17.0265 14.3049 17.0265 14.4144 17.0582C14.8155 17.1835 15.0975 17.2955 15.3412 17.6765C15.401 17.9502 15.401 17.9502 15.4189 18.2574C15.4261 18.3676 15.4333 18.4778 15.4408 18.5914C15.4466 18.7058 15.4524 18.8202 15.4584 18.9382C15.4656 19.0542 15.4729 19.1702 15.4804 19.2898C15.498 19.5759 15.5141 19.862 15.5287 20.1483C15.9598 20.28 16.3913 20.4101 16.8232 20.5387C16.9695 20.5825 17.1158 20.6267 17.2619 20.6714C18.8192 21.1473 20.2704 21.4403 21.7846 20.5989C22.2292 20.3096 22.5984 19.9597 22.973 19.5706C23.3789 19.1557 23.8129 18.7791 24.2448 18.3974C24.1637 18.1588 24.1637 18.1588 23.8911 18.0945C23.7741 18.0609 23.657 18.0274 23.5364 17.9928C23.4715 17.9739 23.4066 17.955 23.3398 17.9356C23.1214 17.8723 22.9027 17.8102 22.6841 17.7481C22.5288 17.7033 22.3735 17.6584 22.2182 17.6135C21.8841 17.5169 21.5499 17.4209 21.2156 17.3252C20.4163 17.0964 19.6176 16.8651 18.8188 16.6341C18.5442 16.5547 18.2697 16.4754 17.9951 16.3962C16.2886 15.9031 14.5851 15.3979 12.8823 14.8899C12.2441 14.6996 11.6058 14.5097 10.9674 14.32C10.9008 14.3002 10.8342 14.2804 10.7655 14.2599C9.6152 13.918 8.46445 13.5779 7.31215 13.2441C7.14581 13.1958 6.97952 13.1475 6.81326 13.0989C6.59374 13.0348 6.37407 12.9714 6.15433 12.9083C6.03553 12.8739 5.91672 12.8395 5.79432 12.8042C4.77645 12.5571 3.71492 13.3213 2.8177 13.7821ZM24.3971 15.7454C24.346 15.8025 24.2949 15.8596 24.2422 15.9184C24.1177 16.0576 23.9937 16.1975 23.8699 16.3376C23.9435 16.5599 23.9435 16.5599 24.1291 16.6048C24.1993 16.621 24.2695 16.6371 24.3418 16.6538C24.4555 16.6807 24.4555 16.6807 24.5715 16.7081C24.691 16.735 24.691 16.735 24.813 16.7624C24.893 16.7812 24.973 16.7999 25.0555 16.8192C25.2537 16.8654 25.4521 16.9106 25.6506 16.9555C26.1551 16.342 26.6566 15.726 27.1501 15.1017C25.9685 14.4134 25.276 14.7485 24.3971 15.7454ZM12.061 18.0885C12.0494 18.9459 12.0828 19.7951 12.1371 20.6504C12.1437 20.7736 12.1503 20.8968 12.1571 21.0238C12.1646 21.1424 12.1722 21.2611 12.18 21.3834C12.1863 21.49 12.1927 21.5966 12.1993 21.7064C12.2719 22.1437 12.419 22.4254 12.7416 22.693C13.0372 22.8464 13.317 22.9254 13.6367 22.9999C13.8 23.0388 13.8 23.0388 13.9665 23.0784C14.049 23.0971 14.1316 23.1158 14.2166 23.1351C14.1684 21.6578 14.117 20.1816 14.0291 18.7064C13.6341 18.5137 13.2528 18.3464 12.8342 18.2236C12.7477 18.1978 12.6612 18.1719 12.5721 18.1452C12.3357 18.0772 12.3357 18.0772 12.061 18.0885Z" fill="#0F00FF"/>
<path d="M29.512 43.3067C29.5933 43.306 29.6747 43.3054 29.7585 43.3047C29.8465 43.3046 29.9346 43.3045 30.0253 43.3043C30.1157 43.304 30.206 43.3036 30.2992 43.3033C30.4906 43.3028 30.6821 43.3025 30.8735 43.3025C31.1664 43.3023 31.4593 43.3005 31.7522 43.2985C31.938 43.2982 32.1239 43.298 32.3098 43.2979C32.3974 43.2972 32.4851 43.2964 32.5755 43.2957C32.6983 43.2961 32.6983 43.2961 32.8237 43.2966C32.8956 43.2965 32.9674 43.2963 33.0415 43.2962C33.2715 43.3254 33.4204 43.394 33.6167 43.5276C33.8617 43.9782 33.8329 44.4633 33.8324 44.9723C33.8328 45.0616 33.8332 45.1508 33.8336 45.2428C33.8341 45.4311 33.8342 45.6193 33.8338 45.8076C33.8335 46.0947 33.8357 46.3816 33.838 46.6687C33.8383 46.8521 33.8383 47.0355 33.8382 47.2189C33.8391 47.3042 33.84 47.3895 33.8408 47.4774C33.8372 47.9866 33.7811 48.3394 33.523 48.7802C33.3051 48.9 33.1757 48.8975 32.9331 48.8998C32.8083 48.9013 32.8083 48.9013 32.6809 48.9028C32.5908 48.9033 32.5007 48.9037 32.4079 48.9042C32.3154 48.9047 32.223 48.9053 32.1277 48.9059C31.9318 48.9069 31.736 48.9076 31.5401 48.908C31.2404 48.909 30.9408 48.9122 30.6411 48.9154C30.4509 48.9161 30.2608 48.9166 30.0707 48.917C29.981 48.9183 29.8912 48.9196 29.7988 48.9209C29.715 48.9206 29.6312 48.9203 29.5448 48.9199C29.4713 48.9203 29.3978 48.9207 29.322 48.9211C29.062 48.8728 28.9345 48.7712 28.7432 48.5743C28.6586 48.2952 28.6369 48.1284 28.6344 47.8413C28.6335 47.7564 28.6326 47.6715 28.6317 47.584C28.6313 47.4926 28.6309 47.4011 28.6305 47.307C28.6299 47.2126 28.6294 47.1183 28.6288 47.021C28.628 46.8214 28.6273 46.6218 28.627 46.4221C28.6261 46.1172 28.6232 45.8123 28.6202 45.5074C28.6196 45.3134 28.6191 45.1193 28.6187 44.9253C28.6176 44.8343 28.6164 44.7433 28.6152 44.6495C28.6169 44.1575 28.6353 43.822 28.9307 43.4246C29.1468 43.3058 29.2715 43.308 29.512 43.3067ZM30.149 44.9695C30.149 45.7172 30.149 46.465 30.149 47.2354C30.8604 47.2354 31.5717 47.2354 32.3046 47.2354C32.3046 46.4876 32.3046 45.7399 32.3046 44.9695C31.5933 44.9695 30.8819 44.9695 30.149 44.9695Z" fill="#0F00FF"/>
<path d="M15.2882 43.2918C15.4102 43.2898 15.4102 43.2898 15.5347 43.2878C15.6218 43.2876 15.7088 43.2874 15.7986 43.2871C15.8887 43.2864 15.9788 43.2858 16.0716 43.2851C16.262 43.284 16.4523 43.2835 16.6426 43.2836C16.9339 43.2831 17.2251 43.2794 17.5163 43.2755C17.7013 43.2749 17.8863 43.2745 18.0713 43.2743C18.1584 43.2728 18.2455 43.2713 18.3352 43.2698C18.9391 43.2745 18.9391 43.2745 19.2363 43.5178C19.4261 43.8204 19.4774 43.9894 19.4805 44.352C19.4814 44.4369 19.4823 44.5218 19.4833 44.6093C19.4837 44.7013 19.4841 44.7932 19.4845 44.8879C19.485 44.9824 19.4855 45.0769 19.4861 45.1743C19.487 45.3746 19.4876 45.5748 19.4879 45.7751C19.4889 46.0809 19.4918 46.3867 19.4947 46.6925C19.4953 46.887 19.4958 47.0816 19.4962 47.2761C19.4973 47.3674 19.4985 47.4587 19.4997 47.5528C19.4981 48.0456 19.4804 48.3824 19.1843 48.7803C18.9668 48.8998 18.8366 48.8982 18.5943 48.9016C18.5111 48.9029 18.4279 48.9042 18.3422 48.9056C18.2521 48.9063 18.162 48.9071 18.0691 48.9079C17.9767 48.9087 17.8842 48.9095 17.789 48.9104C17.5931 48.9118 17.3972 48.9129 17.2014 48.9137C16.9017 48.9155 16.602 48.92 16.3023 48.9246C16.1122 48.9256 15.9221 48.9265 15.7319 48.9272C15.5974 48.9299 15.5974 48.9299 15.46 48.9327C14.8393 48.9304 14.8393 48.9304 14.5382 48.6939C14.2628 48.2356 14.2956 47.7781 14.295 47.2491C14.2947 47.1593 14.2944 47.0696 14.2941 46.9771C14.2936 46.7871 14.2934 46.5972 14.2934 46.4072C14.2932 46.1172 14.2915 45.8273 14.2897 45.5373C14.2894 45.3526 14.2892 45.168 14.2892 44.9833C14.2885 44.8968 14.2878 44.8103 14.2871 44.7212C14.29 43.9081 14.29 43.9081 14.4982 43.5277C14.7676 43.3452 14.9742 43.2953 15.2882 43.2918ZM15.8103 44.9696C15.8103 45.7173 15.8103 46.4651 15.8103 47.2355C16.5216 47.2355 17.233 47.2355 17.9659 47.2355C17.9659 46.4877 17.9659 45.74 17.9659 44.9696C17.2545 44.9696 16.5432 44.9696 15.8103 44.9696Z" fill="#0F00FF"/>
<path d="M22.9265 43.2532C23.0163 43.2527 23.1061 43.2522 23.1985 43.2517C23.3879 43.2513 23.5773 43.2523 23.7666 43.2544C24.0561 43.2572 24.3453 43.2544 24.6348 43.2511C24.819 43.2515 25.0033 43.2521 25.1876 43.2532C25.2739 43.2521 25.3602 43.2511 25.4491 43.25C25.8446 43.2579 26.066 43.2856 26.4078 43.5177C26.6655 43.9748 26.6532 44.3579 26.6465 44.8862C26.6467 44.9873 26.6469 45.0885 26.6472 45.1927C26.6471 45.4061 26.6458 45.6195 26.6435 45.8329C26.6403 46.1596 26.6415 46.486 26.6434 46.8126C26.6427 47.0202 26.6418 47.2277 26.6406 47.4352C26.6411 47.5329 26.6416 47.6305 26.642 47.7311C26.6357 48.1187 26.6252 48.3939 26.4572 48.7385C26.0659 48.9699 25.6836 48.9419 25.2461 48.9379C25.1519 48.9383 25.0576 48.9387 24.9605 48.9391C24.7613 48.9393 24.5622 48.9386 24.363 48.9369C24.0581 48.9347 23.7535 48.9368 23.4486 48.9395C23.2551 48.9392 23.0615 48.9387 22.868 48.9379C22.7768 48.9387 22.6856 48.9395 22.5916 48.9404C22.2326 48.9349 21.9759 48.9272 21.6569 48.7385C21.4508 48.3157 21.4712 47.9078 21.4735 47.4352C21.4729 47.3342 21.4723 47.2331 21.4717 47.129C21.4711 46.9154 21.4714 46.7018 21.4726 46.4882C21.4739 46.1618 21.4707 45.8356 21.4671 45.5091C21.467 45.3015 21.4672 45.0938 21.4676 44.8862C21.4664 44.7887 21.4651 44.6913 21.4639 44.5909C21.4695 44.1489 21.4911 43.8994 21.7064 43.5177C22.1157 43.2397 22.4536 43.2474 22.9265 43.2532ZM23.0261 44.9694C23.0261 45.7172 23.0261 46.4649 23.0261 47.2353C23.7065 47.2353 24.387 47.2353 25.088 47.2353C25.088 46.4875 25.088 45.7398 25.088 44.9694C24.4076 44.9694 23.7272 44.9694 23.0261 44.9694Z" fill="#0F00FF"/>
<path d="M8.58767 43.2568C8.72231 43.2564 8.72231 43.2564 8.85966 43.256C9.04904 43.2561 9.23842 43.2575 9.42778 43.2601C9.71724 43.2636 10.0064 43.2622 10.2959 43.2602C10.4802 43.2609 10.6644 43.2619 10.8487 43.2632C10.935 43.2627 11.0213 43.2622 11.1103 43.2617C11.4756 43.269 11.7331 43.2983 12.0689 43.4648C12.35 43.8851 12.3139 44.2868 12.3076 44.7956C12.3078 44.8992 12.3081 45.0028 12.3083 45.1096C12.3082 45.3284 12.3069 45.5473 12.3046 45.7661C12.3014 46.1012 12.3027 46.4359 12.3045 46.771C12.3039 46.9837 12.3029 47.1964 12.3018 47.4091C12.3022 47.5093 12.3027 47.6095 12.3032 47.7127C12.2969 48.1061 12.2881 48.3898 12.1183 48.7399C11.7269 48.9692 11.3442 48.9439 10.9073 48.9415C10.813 48.9421 10.7187 48.9428 10.6216 48.9434C10.4225 48.9442 10.2233 48.9438 10.0242 48.9425C9.71925 48.9411 9.41461 48.9446 9.10973 48.9485C8.91619 48.9486 8.72264 48.9484 8.5291 48.9479C8.43791 48.9493 8.34671 48.9507 8.25276 48.9521C7.63631 48.9427 7.63631 48.9427 7.31806 48.6856C7.13272 48.2343 7.13222 47.8349 7.13462 47.3447C7.13404 47.2461 7.13346 47.1474 7.13286 47.0458C7.1322 46.8377 7.13249 46.6296 7.13368 46.4215C7.13498 46.1034 7.13179 45.7856 7.12822 45.4675C7.12813 45.265 7.1283 45.0625 7.12877 44.86C7.1269 44.7177 7.1269 44.7177 7.125 44.5726C7.13075 44.1365 7.15435 43.8954 7.36749 43.5191C7.77705 43.239 8.1138 43.2493 8.58767 43.2568ZM8.68725 44.9694C8.68725 45.7172 8.68725 46.4649 8.68725 47.2353C9.36767 47.2353 10.0481 47.2353 10.7491 47.2353C10.7491 46.4875 10.7491 45.7398 10.7491 44.9694C10.0687 44.9694 9.38829 44.9694 8.68725 44.9694Z" fill="#0F00FF"/>
</svg>
