<svg width="53" height="55" viewBox="0 0 53 55" fill="none" xmlns="http://www.w3.org/2000/svg">
<path d="M28.8286 0.506641C28.9801 0.573531 28.9801 0.573531 29.1346 0.641771C29.4709 0.790614 29.8066 0.941142 30.1423 1.09166C30.3834 1.19871 30.6245 1.30564 30.8657 1.41247C31.518 1.70171 32.1697 1.99237 32.8213 2.2833C33.5016 2.5868 34.1823 2.88912 34.863 3.19145C35.0688 3.28286 35.0688 3.28286 35.2788 3.3761C35.5586 3.50039 35.8385 3.62466 36.1183 3.74893C36.4735 3.90668 36.8286 4.06457 37.1837 4.22249C39.0871 5.06892 40.993 5.90798 42.9016 6.74027C43.303 6.91532 43.7042 7.09053 44.1055 7.2658C44.3666 7.37983 44.6276 7.49385 44.8887 7.60787C45.0158 7.66338 45.1429 7.7189 45.2739 7.7761C45.9044 8.05134 46.535 8.32608 47.166 8.59988C47.7573 8.85645 48.3481 9.11421 48.9386 9.37285C49.1549 9.46731 49.3713 9.5613 49.588 9.65481C49.8828 9.78211 50.1769 9.91098 50.471 10.0403C50.5568 10.0769 50.6426 10.1134 50.731 10.1511C51.1861 10.3534 51.5235 10.5464 51.8312 10.9724C51.9588 11.4119 51.9891 11.6217 51.8081 12.0419C51.5768 12.3897 51.427 12.4891 51.0682 12.6521C50.9562 12.7039 50.8441 12.7557 50.7287 12.8091C50.6036 12.8642 50.4786 12.9193 50.3498 12.9761C50.1468 13.0675 50.1468 13.0675 49.9398 13.1608C49.4745 13.3695 49.0075 13.5733 48.5403 13.7768C48.3689 13.8517 48.1975 13.9266 48.0261 14.0016C47.6698 14.1572 47.3134 14.3126 46.957 14.4679C46.4997 14.6671 46.0426 14.867 45.5856 15.0671C45.2331 15.2213 44.8805 15.3752 44.5278 15.5289C44.359 15.6025 44.1903 15.6763 44.0217 15.7502C43.7873 15.8528 43.5527 15.9548 43.3181 16.0568C43.1848 16.1149 43.0514 16.1731 42.914 16.233C42.6008 16.3572 42.6008 16.3572 42.3729 16.3572C42.3739 16.4868 42.3749 16.6163 42.376 16.7498C42.3852 17.9731 42.3921 19.1965 42.3965 20.4199C42.3989 21.0488 42.4021 21.6776 42.4073 22.3065C42.4123 22.9138 42.415 23.5212 42.4162 24.1285C42.417 24.3598 42.4186 24.5911 42.4211 24.8223C42.4244 25.1472 42.4249 25.472 42.4247 25.797C42.4263 25.8917 42.4279 25.9865 42.4296 26.0841C42.4237 26.9309 42.1585 27.5598 41.6678 28.2069C40.818 28.9955 39.846 29.558 38.8617 30.1166C38.7943 30.1549 38.7268 30.1931 38.6574 30.2325C35.1044 32.242 31.3166 33.4159 27.3095 33.4195C27.1806 33.4196 27.1806 33.4196 27.0492 33.4197C22.3437 33.4124 17.8919 31.7966 13.8628 29.1539C13.7411 29.0751 13.7411 29.0751 13.6169 28.9948C12.8433 28.4667 12.2932 27.8541 12.0145 26.8788C11.8561 25.9928 11.906 25.0711 11.9135 24.1717C11.9141 23.9459 11.9146 23.7201 11.915 23.4943C11.9163 22.9032 11.9196 22.3122 11.9234 21.7211C11.9269 21.1167 11.9285 20.5123 11.9302 19.9078C11.9338 18.7243 11.9397 17.5407 11.9469 16.3572C11.8078 16.3083 11.6688 16.2594 11.5255 16.209C10.8253 15.9522 10.1428 15.6492 9.45812 15.3466C9.321 15.2863 9.18388 15.2259 9.0426 15.1638C8.75455 15.037 8.46657 14.9101 8.17866 14.783C7.80951 14.62 7.44023 14.4574 7.07089 14.295C6.71754 14.1395 6.36426 13.9838 6.01098 13.8282C5.87828 13.7697 5.74558 13.7113 5.60886 13.6511C5.4867 13.5972 5.36455 13.5432 5.23869 13.4877C5.13095 13.4401 5.02321 13.3926 4.9122 13.3436C4.65376 13.2265 4.65376 13.2265 4.42585 13.1013C4.42754 14.0517 4.4323 15.002 4.4409 15.9523C4.4448 16.3937 4.44766 16.835 4.44813 17.2764C4.44871 17.7843 4.45386 18.2922 4.45923 18.8001C4.45878 18.9578 4.45834 19.1156 4.45787 19.2781C4.45207 20.1822 4.45207 20.1822 4.8226 20.9553C4.9173 21.0496 5.01201 21.1439 5.10958 21.2411C5.33471 21.7359 5.27282 22.3297 5.22353 22.869C4.95466 23.4941 4.60985 23.7798 4.08398 24.1213C4.13721 24.2057 4.19045 24.2901 4.2453 24.3771C4.45809 24.8136 4.51484 25.1745 4.57972 25.6644C4.592 25.7545 4.60428 25.8446 4.61692 25.9374C4.65703 26.2344 4.69529 26.5316 4.73344 26.8289C4.76097 27.0372 4.78859 27.2455 4.81628 27.4537C4.87407 27.8906 4.93095 28.3275 4.98719 28.7646C5.05874 29.3202 5.1324 29.8754 5.20675 30.4305C5.2642 30.8611 5.32054 31.2919 5.37655 31.7227C5.40326 31.9272 5.43029 32.1316 5.45766 32.336C5.92207 35.8197 5.92207 35.8197 5.37666 36.8172C4.95841 37.3704 4.43953 37.7306 3.78351 37.8054C2.96986 37.8351 2.41466 37.7655 1.80488 37.145C1.18845 36.3863 1.09056 35.7744 1.12115 34.7657C1.1528 34.438 1.18868 34.1157 1.2326 33.7902C1.24446 33.6984 1.25632 33.6067 1.26854 33.5121C1.30749 33.2121 1.34738 32.9122 1.38734 32.6123C1.41494 32.4022 1.44249 32.192 1.47001 31.9819C1.52765 31.5429 1.58575 31.104 1.64418 30.6651C1.71888 30.1038 1.79242 29.5424 1.86562 28.9809C1.92226 28.5474 1.9795 28.1141 2.03692 27.6807C2.06427 27.4738 2.09144 27.2668 2.11841 27.0597C2.15623 26.7702 2.19487 26.4808 2.23371 26.1914C2.25006 26.0643 2.25006 26.0643 2.26675 25.9347C2.33517 25.4328 2.44526 24.9737 2.60256 24.497C2.64017 24.373 2.67777 24.249 2.71652 24.1213C2.5614 24.0283 2.5614 24.0283 2.40314 23.9335C1.95149 23.6006 1.7475 23.1776 1.57697 22.6186C1.48271 21.8935 1.66074 21.335 2.03279 20.7402C2.20201 20.6162 2.20201 20.6162 2.37465 20.4897C2.4262 20.089 2.4262 20.089 2.41669 19.609C2.41712 19.5184 2.41755 19.4278 2.41799 19.3344C2.41873 19.1373 2.41869 18.9401 2.41797 18.743C2.41694 18.4308 2.41809 18.1188 2.41986 17.8066C2.42444 16.919 2.42457 16.0314 2.42431 15.1438C2.42431 14.6011 2.42649 14.0585 2.42994 13.5158C2.43117 13.2085 2.42979 12.9014 2.42836 12.5941C2.42938 12.4051 2.43052 12.216 2.43183 12.0269C2.43181 11.8622 2.43179 11.6975 2.43177 11.5278C2.5008 11.0054 2.58881 10.8253 2.94443 10.4715C3.26522 10.2754 3.59903 10.1316 3.94148 9.98759C4.09398 9.92089 4.09398 9.92089 4.24956 9.85284C4.58994 9.70447 4.9312 9.55873 5.2725 9.41294C5.51626 9.3072 5.75995 9.20129 6.00359 9.09522C6.66411 8.80814 7.3254 8.52326 7.98685 8.23879C9.03046 7.7894 10.0728 7.33651 11.1154 6.88423C11.4745 6.72845 11.8336 6.57277 12.1928 6.41728C14.2039 5.54673 16.2101 4.66411 18.2119 3.76801C18.6189 3.58584 19.0261 3.40396 19.4332 3.22219C19.6984 3.10379 19.9636 2.98539 20.2287 2.86698C20.3579 2.8093 20.4871 2.75161 20.6202 2.69218C21.2606 2.40599 21.9007 2.11894 22.5402 1.83017C23.1401 1.55928 23.7408 1.29047 24.342 1.02318C24.5619 0.92497 24.7814 0.825954 25.0007 0.726072C25.2997 0.589953 25.5996 0.456679 25.8998 0.324028C25.9859 0.284016 26.072 0.244003 26.1607 0.202778C27.1373 -0.220758 27.9014 0.086859 28.8286 0.506641ZM26.5271 2.39237C26.4331 2.43369 26.3391 2.47501 26.2423 2.51758C26.1393 2.56361 26.0364 2.60964 25.9303 2.65706C25.8213 2.70521 25.7123 2.75335 25.6 2.80295C25.236 2.96387 24.8723 3.12571 24.5087 3.28754C24.2525 3.40097 23.9964 3.51433 23.7403 3.62764C23.1962 3.86846 22.6522 4.10966 22.1084 4.3512C21.2661 4.72528 20.4235 5.09853 19.5808 5.4716C18.7499 5.83952 17.919 6.20748 17.0882 6.57575C15.0268 7.48947 12.9641 8.3994 10.8999 9.30532C10.6461 9.41678 10.3922 9.52825 10.1384 9.63973C9.60173 9.87537 9.065 10.1109 8.52823 10.3463C8.52823 10.3876 8.52823 10.4289 8.52823 10.4715C10.5946 10.4832 12.6609 10.492 14.7272 10.4975C15.6867 10.5 16.6461 10.5036 17.6056 10.5093C18.442 10.5143 19.2784 10.5175 20.1148 10.5186C20.5576 10.5193 21.0003 10.5208 21.443 10.5245C21.8601 10.5279 22.2771 10.5289 22.6942 10.5282C22.9196 10.5284 23.1449 10.531 23.3703 10.5338C24.1553 10.5298 24.6379 10.4758 25.2796 9.97059C26.5386 9.47126 28.068 9.56894 29.3144 10.0635C29.7685 10.3055 29.9451 10.4758 30.1797 10.9724C30.266 11.5181 30.2335 12.007 29.9518 12.4751C29.7003 12.6566 29.7003 12.6566 29.4034 12.8117C29.3063 12.8638 29.2092 12.916 29.1092 12.9697C27.9594 13.4792 26.2985 13.4059 25.1443 12.9575C24.9378 12.8508 24.9378 12.8508 24.5959 12.6004C24.2964 12.5632 24.2964 12.5632 23.9535 12.5703C23.8197 12.5699 23.686 12.5696 23.5482 12.5692C23.4013 12.5701 23.2544 12.571 23.1031 12.5719C22.9469 12.572 22.7908 12.572 22.6347 12.5718C22.2107 12.5718 21.7867 12.5732 21.3627 12.575C20.9197 12.5765 20.4767 12.5767 20.0336 12.577C19.1946 12.5778 18.3556 12.5798 17.5165 12.5823C16.5614 12.5851 15.6062 12.5865 14.651 12.5878C12.686 12.5904 10.7211 12.5948 8.75614 12.6004C9.03482 12.8045 9.25782 12.9337 9.56368 13.0685C9.65851 13.1105 9.75334 13.1526 9.85104 13.1959C9.95488 13.2414 10.0587 13.2869 10.1657 13.3338C10.2755 13.3824 10.3853 13.4309 10.4985 13.4809C10.865 13.6427 11.2317 13.8039 11.5983 13.9652C11.8576 14.0795 12.1168 14.1939 12.3761 14.3083C13.0645 14.612 13.753 14.9151 14.4417 15.2182C15.2528 15.5753 16.0637 15.9331 16.8746 16.2908C17.5439 16.586 18.2133 16.8808 18.8829 17.1748C20.1007 17.7097 21.3178 18.2462 22.5316 18.7921C23.0611 19.0301 23.5912 19.2668 24.1213 19.5034C24.3713 19.6154 24.621 19.7281 24.8705 19.8414C25.2137 19.9973 25.5577 20.151 25.9019 20.3041C26.0026 20.3506 26.1032 20.397 26.207 20.4448C27.1826 20.8738 27.8014 20.5842 28.7376 20.164C28.8434 20.1173 28.9492 20.0705 29.0583 20.0223C29.4105 19.8664 29.7624 19.7094 30.1143 19.5525C30.3642 19.4416 30.6142 19.3309 30.8642 19.2202C31.3969 18.9841 31.9295 18.7477 32.4619 18.5109C33.7091 17.9561 34.9571 17.4036 36.205 16.8509C36.6234 16.6655 37.0417 16.4801 37.46 16.2947C39.8993 15.2137 42.3423 14.143 44.7873 13.0778C44.9665 12.9997 45.1458 12.9216 45.325 12.8435C46.278 12.4281 47.2312 12.0131 48.1846 11.5985C48.1846 11.5159 48.1846 11.4332 48.1846 11.3481C48.0494 11.289 47.9142 11.2299 47.7749 11.1689C46.4597 10.5939 45.1446 10.0187 43.8295 9.44346C43.1275 9.13643 42.4256 8.82943 41.7236 8.5225C40.877 8.15234 40.0305 7.7821 39.1839 7.41174C39.1135 7.38094 39.0431 7.35014 38.9706 7.31841C37.1402 6.51752 35.3104 5.71465 33.4823 4.90745C33.1747 4.77167 32.8672 4.63595 32.5596 4.50027C31.7191 4.12944 30.8787 3.75839 30.0388 3.38583C29.7039 3.23741 29.3688 3.0895 29.0337 2.94173C28.8808 2.87416 28.7279 2.80636 28.5751 2.73831C28.3699 2.64692 28.1644 2.55638 27.9589 2.46589C27.8449 2.41539 27.731 2.3649 27.6136 2.31287C27.188 2.15275 26.9305 2.21347 26.5271 2.39237ZM13.8841 17.2338C13.8788 18.4007 13.8748 19.5677 13.8723 20.7346C13.8711 21.2765 13.8695 21.8183 13.8669 22.3602C13.8645 22.8831 13.8631 23.406 13.8625 23.9289C13.8621 24.1284 13.8613 24.3279 13.86 24.5274C13.8584 24.8068 13.8581 25.0862 13.8582 25.3656C13.8577 25.5247 13.8572 25.6838 13.8567 25.8476C13.8827 26.2287 13.9226 26.4362 14.112 26.7511C14.2853 26.914 14.2853 26.914 14.494 27.0387C14.5712 27.0885 14.6485 27.1382 14.7281 27.1895C14.8115 27.2411 14.895 27.2927 14.9809 27.3459C15.0676 27.4005 15.1543 27.4551 15.2436 27.5114C20.6327 30.8715 26.5761 32.3276 32.6667 30.5744C35.2596 29.7765 38.2269 28.5496 40.3217 26.6259C40.4906 26.2547 40.4492 25.922 40.4486 25.5078C40.4486 25.374 40.4486 25.374 40.4487 25.2375C40.4486 24.9421 40.4477 24.6466 40.4468 24.3512C40.4466 24.1466 40.4464 23.942 40.4463 23.7374C40.4459 23.1984 40.4448 22.6595 40.4435 22.1205C40.4423 21.5707 40.4418 21.0209 40.4412 20.4711C40.44 19.392 40.4381 18.3129 40.4357 17.2338C38.7365 17.9335 37.0525 18.6698 35.3736 19.4262C35.049 19.5723 34.7243 19.7181 34.3995 19.8638C34.2908 19.9125 34.1821 19.9613 34.07 20.0115C33.8484 20.1109 33.6267 20.2103 33.405 20.3097C32.8393 20.5635 32.2739 20.8182 31.7091 21.0747C31.1538 21.3267 30.5976 21.5764 30.0408 21.8244C29.8311 21.9183 29.6217 22.0131 29.4127 22.1088C29.122 22.2418 28.8303 22.3716 28.5382 22.5008C28.4539 22.5402 28.3695 22.5797 28.2826 22.6204C27.2056 23.087 26.3306 22.7025 25.3046 22.2373C25.1863 22.1849 25.068 22.1326 24.946 22.0787C24.5574 21.9064 24.1696 21.7323 23.7817 21.5581C23.511 21.4377 23.2402 21.3174 22.9693 21.1973C22.3306 20.9137 21.6924 20.629 21.0544 20.3436C19.8431 19.8017 18.6305 19.263 17.4182 18.724C17.0201 18.5467 16.6222 18.3689 16.2243 18.191C15.9811 18.0825 15.7379 17.974 15.4947 17.8656C15.3839 17.8158 15.2732 17.7661 15.1591 17.7149C15.0573 17.6696 14.9556 17.6243 14.8508 17.5777C14.7626 17.5382 14.6744 17.4988 14.5836 17.4582C14.3522 17.364 14.1245 17.2938 13.8841 17.2338Z" fill="#0F00FF"/>
<path d="M15.7931 37.8081C17.3466 38.6717 18.7749 39.7359 20.1519 40.9017C20.2572 40.9906 20.3625 41.0796 20.4711 41.1712C21.1517 41.7587 21.7928 42.3886 22.431 43.0305C22.5404 43.1377 22.6499 43.2449 22.7626 43.3553C23.9745 44.5462 25.0233 45.8213 25.977 47.2673C26.0315 47.3496 26.086 47.4319 26.1421 47.5167C26.1902 47.5904 26.2383 47.6642 26.2879 47.7401C26.4158 47.9335 26.4158 47.9335 26.6473 48.0396C26.6739 47.9731 26.7005 47.9066 26.7279 47.8381C29.4675 42.2717 36.0161 37.7535 41.3882 35.9856C42.5582 35.6241 43.7772 35.3258 44.9941 35.2664C45.0921 35.2585 45.1901 35.2506 45.291 35.2424C45.7447 35.2196 46.0617 35.2325 46.4827 35.4308C46.8936 35.8439 47.2292 36.2986 47.5746 36.778C47.8254 37.1207 48.0856 37.4466 48.3558 37.771C48.8014 38.3083 49.2192 38.8655 49.6351 39.4307C49.9768 39.8843 50.3355 40.319 50.6981 40.7525C51.1197 41.2743 51.298 41.5454 51.3293 42.2669C51.2156 42.7085 51.0241 42.8844 50.6919 43.1558C50.3404 43.2307 50.0011 43.2078 49.6449 43.1871C49.429 43.1811 49.2131 43.1758 48.9972 43.1709C48.8265 43.1663 48.8265 43.1663 48.6523 43.1616C41.1565 43.0384 33.6938 45.6824 27.6881 50.6335C27.2303 50.9984 26.8723 51.1527 26.3055 51.1703C26.0633 51.0896 26.0633 51.0896 25.8496 50.9433C25.7617 50.8843 25.6737 50.8252 25.583 50.7643C25.2998 50.5587 25.0183 50.3504 24.7374 50.1411C19.1852 46.014 12.9727 43.4372 6.23887 43.2182C6.00355 43.2104 5.76827 43.2018 5.53297 43.1931C4.88229 43.17 4.23305 43.1482 3.5821 43.1699C3.49825 43.1725 3.41439 43.1751 3.32799 43.1778C3.12026 43.1863 2.9127 43.1992 2.70518 43.2125C2.37489 43.1558 2.37489 43.1558 2.0446 42.9033C1.79387 42.5121 1.71848 42.2605 1.74836 41.7803C1.85186 41.3198 2.10997 41.0332 2.40338 40.6982C2.52986 40.5453 2.65628 40.3923 2.78264 40.2393C2.84764 40.1623 2.91264 40.0852 2.97961 40.0059C3.28079 39.6449 3.56804 39.2714 3.85631 38.898C3.9693 38.753 4.08237 38.608 4.1955 38.4631C4.2518 38.391 4.3081 38.3188 4.3661 38.2444C5.58967 36.6757 5.58967 36.6757 5.74625 36.4762C5.86143 36.3277 5.975 36.1776 6.08745 36.0265C6.14705 35.9473 6.20665 35.868 6.26806 35.7864C6.32177 35.7139 6.37548 35.6414 6.43082 35.5667C8.14455 33.6962 14.0613 36.8717 15.7931 37.8081ZM6.59123 38.6476C6.41405 38.8832 6.236 39.118 6.05707 39.352C5.65073 39.8986 5.2651 40.4606 4.88191 41.0269C4.94864 41.0287 5.01538 41.0305 5.08414 41.0324C10.7024 41.2013 16.1447 42.4148 21.1372 45.3342C21.3374 45.4498 21.542 45.5561 21.7473 45.6603C21.8225 45.619 21.8977 45.5777 21.9752 45.5351C21.317 44.7796 20.6324 44.0893 19.8838 43.4434C19.7519 43.3293 19.6206 43.2144 19.4896 43.099C16.4001 40.3788 12.9138 38.277 8.98429 37.5205C8.86354 37.4895 8.74279 37.4585 8.61839 37.4266C7.53929 37.2115 7.19892 37.7306 6.59123 38.6476ZM35.3079 41.653C35.2397 41.7069 35.1715 41.7607 35.1013 41.8162C34.2259 42.5108 33.3779 43.2358 32.5588 44.0089C32.49 44.0733 32.4213 44.1377 32.3505 44.2041C31.8851 44.651 31.4819 45.1341 31.0916 45.6603C31.4914 45.4894 31.8784 45.3007 32.265 45.0963C37.3804 42.423 42.5435 41.2243 48.1849 41.0269C47.8126 40.4698 47.4385 39.9292 47.0097 39.4224C46.5361 38.8571 46.1059 38.2641 45.6827 37.6526C45.6059 37.5677 45.5291 37.4828 45.4499 37.3953C41.9258 37.3953 38.1039 39.4304 35.3079 41.653Z" fill="#0F00FF"/>
<path d="M2.48723 44.1125C2.63509 44.1452 2.63509 44.1452 2.78593 44.1786C2.99983 44.2259 3.21365 44.2737 3.42741 44.3217C4.01513 44.4536 4.60351 44.5817 5.19194 44.7096C5.31549 44.7365 5.43904 44.7634 5.56633 44.791C6.93971 45.0879 8.31722 45.358 9.69573 45.6242C9.82022 45.6483 9.94471 45.6724 10.073 45.6972C10.8309 45.8437 11.589 45.9893 12.3471 46.1347C13.2502 46.308 14.1531 46.4822 15.056 46.6563C15.5321 46.7481 16.0083 46.8397 16.4844 46.9311C17.005 47.031 17.5253 47.1319 18.0456 47.2335C18.3197 47.2866 18.594 47.3386 18.8684 47.3905C19.0317 47.4222 19.1951 47.454 19.3584 47.4858C19.4972 47.5124 19.636 47.5389 19.779 47.5663C20.5266 47.7623 21.1611 48.157 21.6263 48.8381C21.9205 49.418 21.9946 50.075 22.0707 50.7262C22.1336 51.2278 22.1336 51.2277 22.3901 51.6331C22.7469 51.85 23.0076 51.8451 23.4149 51.8472C23.5272 51.8485 23.5272 51.8485 23.6419 51.8498C23.8888 51.8521 24.1357 51.8516 24.3826 51.8509C24.5546 51.8515 24.7266 51.8521 24.8986 51.8529C25.2587 51.854 25.6189 51.8537 25.9791 51.8524C26.4405 51.851 26.9018 51.8535 27.3631 51.8572C27.7182 51.8595 28.0733 51.8595 28.4283 51.8587C28.5984 51.8587 28.7685 51.8595 28.9386 51.861C29.1765 51.8629 29.4142 51.8616 29.6521 51.8594C29.7874 51.8594 29.9227 51.8594 30.062 51.8594C30.4785 51.7838 30.6121 51.6616 30.8638 51.2957C30.9426 50.9296 30.9426 50.9296 30.9635 50.5287C31.0808 49.5314 31.4111 48.7047 32.1244 48.0476C33.2957 47.2856 35.0079 47.2189 36.3302 46.9677C36.7171 46.8942 37.104 46.82 37.4909 46.7458C38.5903 46.5348 39.6898 46.3249 40.7894 46.1152C41.5963 45.9613 42.403 45.8067 43.2097 45.6516C43.4079 45.6136 43.4079 45.6136 43.6102 45.5748C45.7413 45.1651 47.8654 44.7224 49.9847 44.2451C50.0877 44.2222 50.1908 44.1994 50.2969 44.1759C50.4861 44.1339 50.6753 44.0912 50.8642 44.0475C52.253 43.7415 52.253 43.7415 52.8002 44.0873C53.0524 44.5608 53.0086 44.9993 52.9711 45.5352C51.6152 46.5527 49.7329 46.6996 48.1507 46.9956C47.7458 47.0715 47.3412 47.1485 46.9365 47.2258C45.7354 47.4551 44.534 47.6825 43.3326 47.9095C42.0458 48.1527 40.7592 48.3968 39.4728 48.6426C38.7632 48.7781 38.0535 48.9124 37.3436 49.0457C36.896 49.13 36.4487 49.2155 36.0014 49.3013C35.7909 49.3415 35.5803 49.3811 35.3696 49.4203C35.0793 49.4743 34.7893 49.5301 34.4993 49.5862C34.4142 49.6017 34.329 49.6171 34.2413 49.633C33.7975 49.721 33.4615 49.8059 33.1429 50.1686C33.0687 50.4973 33.0181 50.798 32.9791 51.1313C32.8388 52.0802 32.694 52.8001 31.9571 53.3957C31.2238 53.9017 30.7139 54.0656 29.8472 54.0709C29.7688 54.0715 29.6903 54.0721 29.6095 54.0727C29.3506 54.0746 29.0916 54.0754 28.8326 54.0761C28.6518 54.0768 28.4709 54.0776 28.2901 54.0783C27.9109 54.0796 27.5316 54.0803 27.1524 54.0808C26.6686 54.0815 26.1848 54.0845 25.701 54.088C25.3273 54.0904 24.9535 54.091 24.5798 54.0912C24.4015 54.0916 24.2233 54.0926 24.0451 54.0942C22.944 54.1037 21.9848 54.0912 21.0352 53.4089C20.3104 52.5763 20.0875 51.7842 19.9762 50.647C19.9432 50.2692 19.9432 50.2692 19.6962 49.9182C19.4723 49.8219 19.4723 49.8219 19.204 49.774C19.0988 49.7513 18.9936 49.7286 18.8853 49.7052C18.768 49.6817 18.6507 49.6582 18.5299 49.634C18.4049 49.6077 18.2799 49.5815 18.1511 49.5545C17.7169 49.4646 17.2822 49.3777 16.8473 49.292C16.7682 49.2764 16.6891 49.2609 16.6076 49.2448C15.4326 49.0139 14.2565 48.79 13.0803 48.5669C10.1235 48.0061 7.16839 47.4367 4.21965 46.8266C4.09645 46.8013 3.97325 46.776 3.84631 46.75C0.48756 46.0589 0.48756 46.0589 0.0959014 45.5352C-0.0206581 45.1608 -0.0319491 44.9625 0.0674126 44.5803C0.571475 43.5279 1.57658 43.9027 2.48723 44.1125Z" fill="#0F00FF"/>
<path d="M38.6125 20.1142C38.9719 20.4793 39.0623 20.6888 39.1255 21.2268C39.1277 21.4156 39.1274 21.6043 39.1248 21.7931C39.125 21.8935 39.1252 21.994 39.1253 22.0975C39.1252 22.3093 39.1238 22.5211 39.1215 22.7328C39.1182 23.0561 39.1191 23.379 39.1206 23.7023C39.1199 23.9086 39.119 24.1148 39.1177 24.3211C39.1181 24.4172 39.1184 24.5134 39.1187 24.6125C39.1097 25.1783 39.047 25.5508 38.7264 25.9999C38.3688 26.1964 38.0953 26.1692 37.7009 26.1251C37.3922 25.8771 37.17 25.6788 37.0787 25.2571C37.0575 24.9653 37.0551 24.6798 37.0594 24.3871C37.0591 24.2808 37.0589 24.1745 37.0586 24.0649C37.0587 23.8408 37.0602 23.6167 37.0631 23.3927C37.067 23.0499 37.0654 22.7075 37.0632 22.3646C37.064 22.1466 37.0651 21.9285 37.0665 21.7104C37.066 21.6081 37.0654 21.5058 37.0648 21.4004C37.0735 20.9426 37.0909 20.6725 37.3488 20.304C37.8068 19.9389 38.0587 19.9673 38.6125 20.1142Z" fill="#0F00FF"/>
</svg>
