<svg width="50" height="54" viewBox="0 0 50 54" fill="none" xmlns="http://www.w3.org/2000/svg">
<path d="M17.3462 0.0258076C17.4113 0.0253288 17.4764 0.0248501 17.5435 0.0243568C17.7615 0.0230196 17.9795 0.0231921 18.1976 0.0233666C18.354 0.0227343 18.5103 0.0220152 18.6667 0.0212158C19.0914 0.0193483 19.5162 0.0188537 19.9409 0.0187189C20.2955 0.0185182 20.6501 0.0177408 21.0047 0.0169919C21.8413 0.015271 22.6779 0.0147552 23.5145 0.0149054C24.3775 0.0150324 25.2404 0.0128024 26.1034 0.00946514C26.8443 0.00670177 27.5853 0.00556828 28.3262 0.00570338C28.7688 0.00575725 29.2113 0.00515503 29.6538 0.00291854C30.07 0.000872296 30.4862 0.000856193 30.9024 0.00239374C31.0551 0.00261471 31.2077 0.00211567 31.3603 0.000838298C31.569 -0.00079471 31.7775 0.000189028 31.9862 0.00181695C32.1029 0.00170183 32.2195 0.0015867 32.3397 0.00146809C32.799 0.0771464 33.0963 0.312873 33.4101 0.681433C33.6702 1.17781 33.6337 1.73542 33.6313 2.2927C33.6314 2.37832 33.6314 2.46393 33.6314 2.55214C33.6313 2.83399 33.6306 3.11584 33.6298 3.39769C33.6296 3.59356 33.6295 3.78943 33.6294 3.9853C33.629 4.49999 33.6281 5.01467 33.627 5.52936C33.626 6.0549 33.6256 6.58044 33.6251 7.10597C33.6241 8.13653 33.6224 9.16707 33.6204 10.1976C33.695 10.1969 33.7696 10.1962 33.8465 10.1955C34.551 10.1891 35.2554 10.1843 35.9599 10.1812C36.3221 10.1795 36.6842 10.1773 37.0464 10.1737C37.3961 10.1703 37.7458 10.1684 38.0956 10.1675C38.2288 10.167 38.3619 10.1658 38.4951 10.1641C38.6822 10.1618 38.8693 10.1617 39.0564 10.1616C39.1627 10.1609 39.269 10.1602 39.3786 10.1595C39.8473 10.2192 40.1584 10.4 40.4772 10.7788C40.6888 11.1233 40.7475 11.3868 40.7526 11.7932C40.7538 11.88 40.7551 11.9668 40.7563 12.0562C40.7574 12.1963 40.7574 12.1963 40.7585 12.3393C40.7593 12.4359 40.76 12.5324 40.7608 12.6319C40.7622 12.8363 40.7632 13.0407 40.7639 13.245C40.7656 13.5567 40.7698 13.8683 40.7741 14.18C40.775 14.3787 40.7759 14.5774 40.7765 14.7762C40.7782 14.869 40.7799 14.9618 40.7816 15.0574C40.7797 15.6394 40.7051 15.9709 40.351 16.4317C39.8802 16.8686 39.7649 16.8543 39.101 16.8543C39.101 17.5517 39.101 18.2491 39.101 18.9676C39.3708 18.9659 39.6405 18.9643 39.9185 18.9625C40.8111 18.9573 41.7038 18.9538 42.5964 18.9511C43.1375 18.9495 43.6786 18.9473 44.2196 18.9437C44.7421 18.9402 45.2645 18.9383 45.7869 18.9375C45.986 18.9369 46.185 18.9358 46.384 18.9341C46.6634 18.9317 46.9428 18.9314 47.2222 18.9316C47.3039 18.9304 47.3857 18.9293 47.4699 18.9281C47.9715 18.931 48.483 18.966 48.9084 19.2846C49.4107 19.8672 49.3472 20.4989 49.3425 21.2675C49.3431 21.405 49.3438 21.5424 49.3445 21.6841C49.3463 22.0649 49.3457 22.4457 49.3447 22.8266C49.344 23.2376 49.3455 23.6486 49.3468 24.0595C49.3489 24.8643 49.3488 25.6691 49.3481 26.4739C49.3475 27.1278 49.3476 27.7817 49.3482 28.4357C49.3483 28.5287 49.3484 28.6218 49.3484 28.7176C49.3486 28.9066 49.3488 29.0957 49.349 29.2847C49.3506 31.0571 49.3497 32.8295 49.3481 34.6019C49.3467 36.2244 49.3481 37.8468 49.3509 39.4692C49.3537 41.1346 49.3548 42.8 49.3539 44.4654C49.3538 44.6537 49.3537 44.8419 49.3536 45.0302C49.3535 45.1228 49.3535 45.2155 49.3534 45.3109C49.3532 45.9643 49.3542 46.6177 49.3556 47.2711C49.3572 48.067 49.3572 48.8628 49.355 49.6587C49.354 50.0649 49.3537 50.4711 49.3555 50.8774C49.3574 51.3172 49.3556 51.757 49.3534 52.1969C49.3551 52.3905 49.3551 52.3905 49.3568 52.588C49.3556 52.7055 49.3544 52.823 49.3532 52.9441C49.3532 53.0456 49.3532 53.1472 49.3531 53.2519C49.293 53.5191 49.293 53.5191 49.0996 53.763C48.7297 53.993 48.4142 54.0003 48.0006 53.9949C47.9187 53.9955 47.8368 53.9961 47.7524 53.9968C47.4766 53.9983 47.201 53.9968 46.9252 53.9954C46.7261 53.9959 46.5269 53.9965 46.3277 53.9974C45.7794 53.9991 45.2311 53.9983 44.6828 53.997C44.0918 53.996 43.5009 53.9975 42.91 53.9986C41.8189 54.0004 40.7278 54.0003 39.6368 53.9991C38.6289 53.998 37.621 53.9978 36.6131 53.9983C36.5463 53.9983 36.4795 53.9983 36.4106 53.9984C36.1394 53.9985 35.8682 53.9986 35.597 53.9988C33.0521 54.0001 30.5071 53.9989 27.9622 53.9966C25.7003 53.9946 23.4385 53.9948 21.1766 53.9968C18.6364 53.9991 16.0961 54 13.5559 53.9987C13.2852 53.9985 13.0144 53.9984 12.7437 53.9983C12.6771 53.9982 12.6104 53.9982 12.5417 53.9982C11.5344 53.9977 10.527 53.9982 9.51971 53.9993C8.3745 54.0005 7.22931 54.0002 6.0841 53.9979C5.49945 53.9968 4.91482 53.9964 4.33017 53.9978C3.79544 53.999 3.26075 53.9984 2.72603 53.9961C2.53212 53.9956 2.3382 53.9959 2.14429 53.9969C1.88157 53.9982 1.61895 53.9969 1.35623 53.9949C1.28019 53.9959 1.20415 53.9969 1.12581 53.9979C0.780381 53.9927 0.559876 53.9512 0.257265 53.763C0.0218113 53.466 0.00371898 53.334 0.00361944 52.9441C0.00242505 52.8266 0.00123058 52.7091 0 52.588C0.00113801 52.459 0.00227675 52.3299 0.00344925 52.1969C0.00276712 52.0598 0.00208485 51.9227 0.00138205 51.7814C-0.000441871 51.4004 0.000741796 51.0196 0.00241345 50.6386C0.00369673 50.2279 0.00221577 49.8172 0.00108422 49.4065C-0.000685179 48.6018 0.000137355 47.797 0.0018618 46.9923C0.00320926 46.3382 0.00358488 45.6842 0.00326146 45.0302C0.00321555 44.9372 0.00316938 44.8442 0.00312208 44.7483C0.0030234 44.5594 0.00292262 44.3704 0.00281838 44.1815C0.00199412 42.5098 0.00359935 40.838 0.00645543 39.1663C0.00922735 37.5438 0.00990976 35.9213 0.00842727 34.2988C0.0068158 32.5328 0.00642694 30.7667 0.00811036 29.0006C0.0082877 28.8123 0.00846453 28.624 0.00864 28.4357C0.0087277 28.343 0.0088152 28.2503 0.00890555 28.1549C0.00944472 27.5017 0.00912689 26.8485 0.00849182 26.1953C0.00774853 25.3992 0.00839603 24.6031 0.0108158 23.807C0.0120179 23.4007 0.0126076 22.9945 0.0115332 22.5883C0.0103908 22.148 0.0122257 21.7078 0.0143648 21.2675C0.0135724 21.1389 0.0127794 21.0103 0.0119631 20.8778C0.0179213 20.2157 0.0242447 19.7766 0.448453 19.2846C0.944737 18.9129 1.55581 18.9235 2.13466 18.9316C2.22292 18.9315 2.31119 18.9315 2.40213 18.9314C2.6914 18.9317 2.98061 18.9341 3.26987 18.9366C3.47141 18.9372 3.67295 18.9377 3.87449 18.938C4.40308 18.9392 4.93164 18.9423 5.46022 18.9458C6.00034 18.9491 6.54047 18.9505 7.08059 18.9521C8.13901 18.9555 9.19741 18.9611 10.2558 18.9676C10.2558 18.2702 10.2558 17.5728 10.2558 16.8543C10.0337 16.8543 9.8116 16.8543 9.58276 16.8543C9.11664 16.5932 8.86775 16.3013 8.62126 15.7977C8.56795 15.4601 8.56953 15.1293 8.57356 14.7873C8.57342 14.6912 8.57328 14.5951 8.57313 14.4961C8.57329 14.2936 8.5744 14.0911 8.5764 13.8887C8.57918 13.5798 8.57838 13.2711 8.57713 12.9622C8.57772 12.7649 8.57853 12.5676 8.57957 12.3703C8.57928 12.2785 8.579 12.1867 8.57871 12.0921C8.58621 11.5587 8.64087 11.1878 8.90971 10.7259C9.35878 10.2695 9.67545 10.1843 10.2765 10.1856C10.4613 10.1856 10.4613 10.1856 10.6498 10.1857C10.7843 10.1862 10.9187 10.1867 11.0532 10.1873C11.1907 10.1875 11.3283 10.1877 11.4659 10.1878C11.8277 10.1882 12.1895 10.1892 12.5513 10.1904C12.9206 10.1914 13.2899 10.1919 13.6592 10.1925C14.3837 10.1936 15.1081 10.1954 15.8326 10.1976C15.8315 10.0825 15.8304 9.96746 15.8293 9.84889C15.8196 8.76375 15.8124 7.67862 15.8076 6.59344C15.8051 6.03555 15.8017 5.4777 15.7963 4.91983C15.7911 4.38134 15.7882 3.84289 15.7869 3.30436C15.7861 3.09903 15.7843 2.8937 15.7817 2.68839C15.7782 2.40051 15.7778 2.11279 15.778 1.82488C15.7754 1.69788 15.7754 1.69788 15.7727 1.56832C15.7763 1.14611 15.8107 0.874865 16.0523 0.537737C16.4826 0.0887684 16.7536 0.0276074 17.3462 0.0258076ZM17.2748 1.74466C17.2748 6.17295 17.2748 10.6013 17.2748 15.1637C19.3819 15.1901 19.3819 15.1901 21.489 15.2142C21.7525 15.218 22.016 15.2218 22.2795 15.2256C22.3481 15.2262 22.4166 15.2268 22.4872 15.2274C22.6891 15.2292 22.8909 15.2323 23.0928 15.2357C23.2066 15.2371 23.3204 15.2385 23.4377 15.24C23.7169 15.2694 23.7169 15.2694 24.0054 15.4807C24.1336 16.0631 24.1336 16.0631 24.1015 16.326C23.9074 16.5903 23.7901 16.7319 23.4834 16.8023C23.3958 16.8027 23.3082 16.8031 23.218 16.8035C23.1172 16.805 23.0163 16.8064 22.9124 16.808C22.8023 16.8074 22.6922 16.8069 22.5788 16.8063C22.4624 16.8074 22.3461 16.8085 22.2262 16.8097C21.9076 16.8122 21.589 16.813 21.2704 16.8129C20.9372 16.8132 20.6041 16.8159 20.271 16.8184C19.6403 16.8226 19.0097 16.8248 18.3791 16.8262C17.661 16.8278 16.943 16.8319 16.2249 16.8362C14.748 16.8449 13.2711 16.8506 11.7942 16.8543C11.794 16.9558 11.7938 17.0572 11.7935 17.1617C11.7879 19.6282 11.7806 22.0947 11.7716 24.5611C11.7672 25.7539 11.7634 26.9466 11.7609 28.1394C11.7587 29.1788 11.7555 30.2182 11.7511 31.2576C11.7488 31.8081 11.747 32.3587 11.7464 32.9092C11.7458 33.4271 11.7439 33.945 11.7409 34.463C11.7401 34.6533 11.7397 34.8436 11.7399 35.0339C11.7401 35.2934 11.7385 35.5527 11.7364 35.8122C11.7369 35.8878 11.7373 35.9635 11.7378 36.0414C11.7322 36.4703 11.694 36.7309 11.4096 37.0358C11.2233 37.0882 11.2233 37.0882 11.025 37.082C10.9269 37.0818 10.9269 37.0818 10.8267 37.0816C10.5842 37.022 10.5066 36.9308 10.352 36.7188C10.315 36.5016 10.315 36.5016 10.3136 36.2475C10.3124 36.151 10.3112 36.0545 10.31 35.9552C10.3101 35.8496 10.3103 35.744 10.3104 35.6353C10.3089 35.4682 10.3089 35.4682 10.3074 35.2978C10.3045 34.9291 10.3036 34.5603 10.3028 34.1916C10.3011 33.9362 10.2994 33.6808 10.2975 33.4254C10.293 32.7526 10.2901 32.0799 10.2876 31.4071C10.2842 30.6002 10.2787 29.7933 10.2736 28.9864C10.2661 27.76 10.2612 26.5337 10.2558 25.3073C7.36841 25.3073 4.48101 25.3073 1.50611 25.3073C1.50611 34.1988 1.50611 43.0902 1.50611 52.2511C4.39351 52.2511 7.28092 52.2511 10.2558 52.2511C10.2594 51.3471 10.263 50.4431 10.2667 49.5117C10.27 48.8675 10.2734 48.2233 10.2772 47.5791C10.282 46.7438 10.2863 45.9086 10.2891 45.0733C10.2913 44.4122 10.2945 43.7511 10.299 43.0899C10.3013 42.7398 10.3029 42.3896 10.3037 42.0395C10.3046 41.6488 10.3073 41.2582 10.3104 40.8676C10.3102 40.6929 10.3102 40.6929 10.31 40.5147C10.3118 40.3554 10.3118 40.3554 10.3136 40.1928C10.3141 40.1004 10.3145 40.0079 10.315 39.9127C10.3603 39.6244 10.4255 39.5297 10.6404 39.3603C11.0603 39.3191 11.2467 39.3114 11.6019 39.5717C11.695 39.8784 11.7111 40.0768 11.7133 40.3961C11.7142 40.5006 11.7152 40.605 11.7161 40.7126C11.7167 40.8271 11.7172 40.9416 11.7178 41.0595C11.7188 41.1801 11.7197 41.3007 11.7207 41.425C11.7237 41.8246 11.7261 42.2243 11.7285 42.6239C11.7305 42.9006 11.7325 43.1773 11.7346 43.454C11.7394 44.1085 11.7437 44.763 11.7478 45.4175C11.7526 46.1626 11.7579 46.9078 11.7632 47.6529C11.7741 49.1856 11.7843 50.7184 11.7942 52.2511C13.2855 52.2511 14.7768 52.2511 16.3133 52.2511C16.3147 51.8767 16.3161 51.5024 16.3176 51.1166C16.3224 49.8801 16.3288 48.6436 16.336 47.407C16.3403 46.6573 16.3441 45.9075 16.3466 45.1578C16.3491 44.4343 16.353 43.7108 16.3578 42.9874C16.3594 42.7113 16.3606 42.4352 16.3612 42.1591C16.3621 41.7725 16.3648 41.386 16.3679 40.9995C16.3677 40.8852 16.3676 40.7709 16.3675 40.6531C16.3742 40.0651 16.4111 39.6637 16.6979 39.149C16.6979 39.0793 16.6979 39.0095 16.6979 38.9377C17.1702 38.7273 17.5333 38.6074 18.0455 38.6059C18.1664 38.6053 18.2873 38.6047 18.4119 38.604C18.5461 38.6039 18.6804 38.6038 18.8147 38.6037C18.9559 38.6032 19.0971 38.6027 19.2383 38.6021C19.6221 38.6007 20.0059 38.6 20.3897 38.5996C20.6295 38.5993 20.8693 38.5988 21.1091 38.5983C21.8595 38.5969 22.6099 38.5959 23.3602 38.5955C24.2263 38.595 25.0924 38.5931 25.9585 38.5901C26.628 38.5878 27.2975 38.5867 27.967 38.5866C28.3669 38.5865 28.7667 38.5859 29.1665 38.584C29.5427 38.5822 29.9189 38.582 30.2952 38.5829C30.4331 38.583 30.571 38.5826 30.7089 38.5815C30.8975 38.5802 31.0861 38.581 31.2747 38.5819C31.3802 38.5817 31.4856 38.5816 31.5943 38.5814C31.9351 38.6268 32.1668 38.7591 32.4666 38.9377C32.5301 38.9377 32.5935 38.9377 32.6589 38.9377C32.8314 39.4053 32.9591 39.7874 32.9626 40.2945C32.9635 40.3998 32.9645 40.5051 32.9654 40.6137C32.966 40.7291 32.9665 40.8446 32.9671 40.9635C32.9681 41.0852 32.969 41.2068 32.97 41.3322C32.973 41.7352 32.9754 42.1383 32.9778 42.5414C32.9798 42.8204 32.9818 43.0995 32.9838 43.3786C32.9886 44.0387 32.993 44.6988 32.9971 45.3589C33.0019 46.1104 33.0071 46.8619 33.0125 47.6134C33.0234 49.1593 33.0336 50.7052 33.0435 52.2511C34.5348 52.2511 36.0261 52.2511 37.5626 52.2511C37.5626 40.5702 37.5626 28.8892 37.5626 16.8543C33.9137 16.8195 30.2648 16.7846 26.5053 16.7487C26.1207 16.326 26.1207 16.326 26.094 16.1073C26.1257 15.8965 26.1711 15.6884 26.2168 15.4807C27.8455 14.2875 30.1249 15.2008 32.082 15.1637C32.082 10.7354 32.082 6.30714 32.082 1.74466C27.1956 1.74466 22.3093 1.74466 17.2748 1.74466ZM10.1597 11.8882C10.1597 12.9691 10.1597 14.0501 10.1597 15.1637C12 15.1637 13.8403 15.1637 15.7364 15.1637C15.7364 14.0828 15.7364 13.0019 15.7364 11.8882C13.8961 11.8882 12.0558 11.8882 10.1597 11.8882ZM33.5243 11.8882C33.5243 12.9691 33.5243 14.0501 33.5243 15.1637C35.3963 15.1637 37.2684 15.1637 39.1972 15.1637C39.1972 14.0828 39.1972 13.0019 39.1972 11.8882C37.3251 11.8882 35.4531 11.8882 33.5243 11.8882ZM1.50611 20.6582C1.50611 21.6345 1.50611 22.6108 1.50611 23.6167C4.39351 23.6167 7.28092 23.6167 10.2558 23.6167C10.2558 22.6404 10.2558 21.6641 10.2558 20.6582C7.36841 20.6582 4.48101 20.6582 1.50611 20.6582ZM39.101 20.6582C39.101 21.6345 39.101 22.6108 39.101 23.6167C41.9884 23.6167 44.8758 23.6167 47.8507 23.6167C47.8507 22.6404 47.8507 21.6641 47.8507 20.6582C44.9633 20.6582 42.0759 20.6582 39.101 20.6582ZM39.101 25.3073C39.101 34.1988 39.101 43.0902 39.101 52.2511C41.9884 52.2511 44.8758 52.2511 47.8507 52.2511C47.8507 43.3597 47.8507 34.4682 47.8507 25.3073C44.9633 25.3073 42.0759 25.3073 39.101 25.3073ZM17.8517 40.2056C17.8517 44.1807 17.8517 48.1557 17.8517 52.2511C19.8507 52.2511 21.8497 52.2511 23.9092 52.2511C23.9092 48.2761 23.9092 44.3011 23.9092 40.2056C21.9102 40.2056 19.9113 40.2056 17.8517 40.2056ZM25.4476 40.2056C25.4476 44.1807 25.4476 48.1557 25.4476 52.2511C27.4466 52.2511 29.4456 52.2511 31.5051 52.2511C31.5051 48.2761 31.5051 44.3011 31.5051 40.2056C29.5061 40.2056 27.5072 40.2056 25.4476 40.2056Z" fill="#0F00FF"/>
<path d="M24.6544 3.19741C24.7288 3.19523 24.8032 3.19305 24.8798 3.1908C25.5404 3.18593 26.0722 3.31643 26.5895 3.79836C26.9514 4.27804 27.0095 4.57776 26.9981 5.20499C26.9964 5.32866 26.9946 5.45234 26.9929 5.57976C26.9906 5.67401 26.9884 5.76826 26.9861 5.86537C27.0889 5.85986 27.0889 5.85986 27.1938 5.85423C27.9429 5.83096 28.4046 5.88505 28.9872 6.43991C29.4723 7.06439 29.4282 7.63341 29.4319 8.42768C29.4351 8.54468 29.4382 8.66168 29.4415 8.78223C29.4459 9.52175 29.3769 10.063 28.9091 10.6202C28.3178 11.1208 27.7081 11.0904 26.9861 11.0428C26.9906 11.1334 26.995 11.224 26.9996 11.3173C27.0355 12.5662 27.0355 12.5662 26.6015 13.1561C25.9712 13.6932 25.4751 13.7091 24.7085 13.7174C24.5688 13.722 24.5688 13.722 24.4263 13.7267C23.818 13.7325 23.3567 13.6506 22.8516 13.2617C22.4161 12.7586 22.3587 12.3904 22.3649 11.7098C22.3657 11.5852 22.3666 11.4606 22.3675 11.3321C22.3686 11.2367 22.3697 11.1412 22.3709 11.0428C22.2965 11.0477 22.2221 11.0526 22.1455 11.0577C21.487 11.0828 20.9806 11.0717 20.4478 10.6202C19.909 9.97164 19.8934 9.29796 19.907 8.4541C19.9051 8.339 19.9033 8.22391 19.9014 8.10533C19.9054 7.3708 19.9983 6.84848 20.4478 6.28802C20.9037 5.90923 21.3051 5.85143 21.8661 5.85877C21.9608 5.85972 22.0555 5.86068 22.153 5.86166C22.2609 5.8635 22.2609 5.8635 22.3709 5.86537C22.3653 5.77602 22.3597 5.68667 22.354 5.59462C22.3289 4.90173 22.3226 4.37658 22.7078 3.80703C23.243 3.20963 23.9441 3.20251 24.6544 3.19741ZM23.9093 5.02008C23.8864 5.39228 23.8712 5.76376 23.8595 6.13655C23.8411 6.57747 23.8161 6.94784 23.6208 7.34464C23.4004 7.46578 23.2589 7.46954 23.0135 7.48002C22.9321 7.48397 22.8508 7.48792 22.7669 7.49199C22.5946 7.49944 22.4224 7.50687 22.2501 7.51428C22.1689 7.51823 22.0876 7.52218 22.0039 7.52625C21.9291 7.52945 21.8543 7.53265 21.7772 7.53595C21.5999 7.53568 21.5999 7.53568 21.5055 7.66163C21.4985 7.94655 21.4966 8.22871 21.4995 8.51353C21.4999 8.59369 21.5004 8.67384 21.5008 8.75643C21.5019 8.95503 21.5037 9.15363 21.5055 9.35222C21.5588 9.35376 21.6122 9.3553 21.6671 9.35689C21.9098 9.36478 22.1523 9.37499 22.3949 9.38524C22.4788 9.38763 22.5627 9.39001 22.6492 9.39247C23.2694 9.42108 23.2694 9.42108 23.5773 9.60111C23.8069 9.88675 23.827 10.1733 23.8435 10.5389C23.8476 10.6236 23.8516 10.7084 23.8558 10.7958C23.8595 10.8838 23.8633 10.9719 23.8672 11.0626C23.8714 11.1519 23.8755 11.2412 23.8798 11.3332C23.89 11.5534 23.8997 11.7736 23.9093 11.9938C24.4169 11.9938 24.9246 11.9938 25.4477 11.9938C25.4564 11.797 25.4564 11.797 25.4653 11.5963C25.4735 11.4228 25.4816 11.2493 25.4897 11.0758C25.4935 10.9895 25.4973 10.9033 25.5012 10.8144C25.5216 10.3881 25.5481 9.98012 25.64 9.56355C25.9171 9.47833 26.1746 9.43938 26.4618 9.42445C26.543 9.42003 26.6241 9.4156 26.7078 9.41104C26.7917 9.40688 26.8756 9.40273 26.9621 9.39845C27.0902 9.39161 27.0902 9.39161 27.2208 9.38462C27.431 9.37345 27.6412 9.36266 27.8514 9.35222C27.854 9.07265 27.8559 8.79311 27.8575 8.51353C27.8587 8.39391 27.8587 8.39391 27.8599 8.27187C27.8607 8.06843 27.8565 7.86499 27.8514 7.66163C27.7035 7.49908 27.5622 7.53883 27.3564 7.53368C27.2756 7.53068 27.1948 7.52769 27.1115 7.5246C26.9405 7.51912 26.7695 7.51444 26.5985 7.51057C26.5174 7.5073 26.4364 7.50403 26.3529 7.50066C26.2784 7.49857 26.204 7.49647 26.1274 7.49431C25.8783 7.43921 25.7943 7.35186 25.64 7.13332C25.4942 6.65282 25.5058 6.15512 25.4856 5.6524C25.5019 5.25035 25.5019 5.25035 25.3515 4.91442C25.1273 4.90395 24.9029 4.90071 24.6785 4.90121C24.5555 4.90094 24.4326 4.90066 24.3059 4.90038C24.0182 4.87652 24.0182 4.87652 23.9093 5.02008Z" fill="#0F00FF"/>
<path d="M23.6084 27.3992C23.6922 27.3986 23.776 27.398 23.8624 27.3974C24.0397 27.3964 24.217 27.3957 24.3943 27.3953C24.6651 27.3943 24.9358 27.391 25.2065 27.3877C25.3789 27.387 25.5513 27.3864 25.7237 27.386C25.8448 27.3841 25.8448 27.3841 25.9684 27.3821C26.4211 27.384 26.7128 27.4187 27.0826 27.7377C27.6096 28.3789 27.4851 29.2066 27.485 30.0188C27.4852 30.2519 27.4869 30.4849 27.4888 30.7179C27.489 30.8677 27.4892 31.0174 27.4893 31.1672C27.4897 31.3023 27.4901 31.4373 27.4905 31.5765C27.456 32.1495 27.421 32.551 27.0319 32.9578C26.5991 33.1764 26.2492 33.1874 25.7785 33.1826C25.6911 33.183 25.6036 33.1834 25.5135 33.1838C25.3293 33.1841 25.145 33.1833 24.9608 33.1816C24.6797 33.1793 24.3988 33.1815 24.1177 33.1842C23.9381 33.184 23.7586 33.1834 23.5791 33.1826C23.4955 33.1834 23.412 33.1843 23.3259 33.1852C22.8073 33.1764 22.4791 33.1074 22.0827 32.7038C21.7885 32.0417 21.8582 31.2936 21.8601 30.5729C21.8604 30.334 21.8581 30.0953 21.8557 29.8565C21.8555 29.7029 21.8554 29.5493 21.8555 29.3957C21.8552 29.2575 21.8549 29.1193 21.8546 28.977C21.9011 28.4656 22.0261 28.0532 22.3231 27.6452C22.7004 27.3343 23.1603 27.4017 23.6084 27.3992ZM23.4288 29.1113C23.4288 29.8784 23.4288 30.6455 23.4288 31.4359C24.2538 31.4359 25.0788 31.4359 25.9288 31.4359C25.9288 30.6688 25.9288 29.9016 25.9288 29.1113C25.1038 29.1113 24.2788 29.1113 23.4288 29.1113Z" fill="#0F00FF"/>
<path d="M30.3419 27.3784C30.4229 27.3781 30.504 27.3778 30.5875 27.3775C30.7581 27.3773 30.9288 27.3779 31.0995 27.3792C31.3597 27.3809 31.6197 27.3792 31.8799 27.3772C32.0463 27.3774 32.2127 27.3778 32.379 27.3784C32.4563 27.3778 32.5335 27.3771 32.6131 27.3765C33.1678 27.384 33.5598 27.495 33.9898 27.908C34.1647 28.3054 34.1457 28.6945 34.1458 29.1305C34.1469 29.272 34.1469 29.272 34.148 29.4163C34.1491 29.6155 34.1493 29.8147 34.1489 30.0139C34.1488 30.3182 34.1528 30.6223 34.1571 30.9265C34.1576 31.1203 34.1578 31.3141 34.1578 31.5079C34.1602 31.644 34.1602 31.644 34.1626 31.7828C34.1577 32.2503 34.1431 32.434 33.8688 32.8114C33.5633 33.0683 33.4182 33.1394 33.0428 33.1433C32.9239 33.1448 32.9239 33.1448 32.8025 33.1464C32.7167 33.1468 32.6309 33.1473 32.5424 33.1477C32.4101 33.1486 32.4101 33.1486 32.2751 33.1495C32.0881 33.1505 31.9012 33.1512 31.7142 33.1516C31.4287 33.1527 31.1432 33.1559 30.8577 33.1593C30.6761 33.16 30.4945 33.1605 30.3129 33.1609C30.2277 33.1622 30.1424 33.1635 30.0546 33.1649C29.5988 33.1631 29.2649 33.1571 28.9086 32.8093C28.6175 32.3283 28.5775 31.8937 28.5818 31.3304C28.5816 31.251 28.5813 31.1716 28.581 31.0897C28.5808 30.9225 28.5813 30.7553 28.5826 30.5881C28.5841 30.3339 28.5826 30.0799 28.5807 29.8258C28.5809 29.6625 28.5813 29.4993 28.5818 29.336C28.5813 29.261 28.5807 29.1859 28.5801 29.1085C28.5867 28.5849 28.6685 28.191 28.9086 27.7375C29.3639 27.3738 29.8007 27.3739 30.3419 27.3784ZM30.1586 29.1111C30.1586 29.8782 30.1586 30.6453 30.1586 31.4357C30.9518 31.4357 31.7451 31.4357 32.5623 31.4357C32.5623 30.6686 32.5623 29.9015 32.5623 29.1111C31.7691 29.1111 30.9758 29.1111 30.1586 29.1111Z" fill="#0F00FF"/>
<path d="M16.9678 27.3887C17.0896 27.388 17.0896 27.388 17.2139 27.3873C17.3851 27.3867 17.5563 27.3867 17.7276 27.3871C17.9886 27.3875 18.2496 27.385 18.5106 27.3823C18.6774 27.3821 18.8442 27.382 19.011 27.3821C19.0886 27.3811 19.1661 27.3802 19.246 27.3792C19.7123 27.3833 20.0584 27.4258 20.4477 27.7375C20.7252 28.2616 20.7791 28.7411 20.7744 29.336C20.7747 29.4156 20.775 29.4951 20.7753 29.577C20.7755 29.7441 20.7749 29.9111 20.7737 30.0781C20.7722 30.3325 20.7737 30.5867 20.7756 30.8411C20.7754 31.0042 20.775 31.1673 20.7744 31.3304C20.7753 31.4433 20.7753 31.4433 20.7762 31.5586C20.7699 32.0526 20.6973 32.3967 20.4477 32.8092C20.0317 33.2132 19.5803 33.1723 19.0535 33.1683C18.9657 33.1686 18.8779 33.1689 18.7874 33.1693C18.6022 33.1695 18.4169 33.1689 18.2317 33.1676C17.9487 33.1659 17.6659 33.1675 17.3829 33.1696C17.2026 33.1694 17.0223 33.169 16.842 33.1683C16.7155 33.1693 16.7155 33.1693 16.5864 33.1703C16.1294 33.1645 15.816 33.1404 15.4478 32.8092C15.254 32.4897 15.2311 32.4255 15.2276 32.067C15.2264 31.982 15.2251 31.897 15.2239 31.8094C15.2237 31.7179 15.2235 31.6265 15.2232 31.5322C15.2226 31.4378 15.222 31.3433 15.2213 31.246C15.2203 31.0462 15.2199 30.8463 15.2199 30.6465C15.2195 30.3413 15.216 30.0362 15.2123 29.731C15.2118 29.5368 15.2114 29.3425 15.2112 29.1482C15.2098 29.0572 15.2085 28.9661 15.207 28.8723C15.2099 28.4536 15.2261 28.2159 15.4206 27.8474C15.8971 27.3795 16.3581 27.3879 16.9678 27.3887ZM16.7939 29.1111C16.7939 29.8782 16.7939 30.6453 16.7939 31.4356C17.5872 31.4356 18.3804 31.4356 19.1977 31.4356C19.1977 30.6685 19.1977 29.9014 19.1977 29.1111C18.4045 29.1111 17.6112 29.1111 16.7939 29.1111Z" fill="#0F00FF"/>
<path d="M23.5093 20.1899C23.6476 20.1891 23.6476 20.1891 23.7887 20.1882C23.9836 20.1875 24.1784 20.1877 24.3733 20.1886C24.6711 20.1895 24.9687 20.1864 25.2665 20.1831C25.4559 20.1829 25.6454 20.183 25.8349 20.1833C25.9238 20.1821 26.0126 20.1809 26.1042 20.1797C26.4945 20.1843 26.7357 20.2004 27.0821 20.4107C27.6049 21.0834 27.4994 21.9551 27.4972 22.7893C27.4969 23.0281 27.4991 23.2668 27.5016 23.5057C27.5018 23.6593 27.5019 23.8129 27.5018 23.9665C27.5021 24.1047 27.5023 24.2428 27.5026 24.3852C27.4547 24.9133 27.3403 25.3026 27.0272 25.7207C26.6451 25.9091 26.2616 25.883 25.8477 25.8816C25.7094 25.8824 25.7094 25.8824 25.5682 25.8833C25.3734 25.884 25.1785 25.8838 24.9837 25.8829C24.6859 25.882 24.3883 25.8851 24.0905 25.8884C23.901 25.8886 23.7115 25.8885 23.522 25.8882C23.4332 25.8894 23.3443 25.8906 23.2528 25.8918C22.8624 25.8872 22.6212 25.8711 22.2749 25.6608C21.7521 24.9881 21.8575 24.1164 21.8598 23.2822C21.8601 23.0434 21.8578 22.8047 21.8554 22.5658C21.8551 22.4122 21.8551 22.2586 21.8552 22.105C21.8549 21.9668 21.8546 21.8287 21.8543 21.6863C21.9023 21.1582 22.0166 20.7689 22.3298 20.3508C22.7118 20.1624 23.0954 20.1884 23.5093 20.1899ZM23.4285 21.9263C23.4285 22.6585 23.4285 23.3908 23.4285 24.1452C24.2535 24.1452 25.0785 24.1452 25.9284 24.1452C25.9284 23.413 25.9284 22.6807 25.9284 21.9263C25.1035 21.9263 24.2785 21.9263 23.4285 21.9263Z" fill="#0F00FF"/>
<path d="M30.2398 20.1899C30.3781 20.1891 30.3781 20.1891 30.5192 20.1882C30.7141 20.1875 30.9089 20.1877 31.1038 20.1886C31.4016 20.1895 31.6992 20.1864 31.997 20.1831C32.1865 20.1829 32.3759 20.183 32.5654 20.1833C32.6543 20.1821 32.7431 20.1809 32.8347 20.1797C33.2431 20.1845 33.4652 20.1952 33.8186 20.4371C34.1737 20.8585 34.1199 21.2718 34.1241 21.8194C34.1249 21.914 34.1257 22.0086 34.1265 22.1061C34.1278 22.3065 34.1288 22.507 34.1296 22.7075C34.1312 23.0136 34.1355 23.3197 34.1397 23.6258C34.1407 23.8205 34.1415 24.0153 34.1421 24.21C34.1438 24.3014 34.1455 24.3927 34.1472 24.4869C34.1458 24.9224 34.134 25.1444 33.9184 25.5214C33.6407 25.8087 33.4925 25.8492 33.1217 25.8545C32.997 25.8565 32.997 25.8565 32.8698 25.8586C32.7798 25.8594 32.6897 25.8602 32.597 25.861C32.5045 25.8618 32.412 25.8627 32.3167 25.8636C32.1207 25.865 31.9247 25.8661 31.7287 25.867C31.4292 25.8688 31.1298 25.8734 30.8304 25.8781C30.64 25.8792 30.4497 25.8801 30.2593 25.8808C30.1251 25.8836 30.1251 25.8836 29.9882 25.8864C29.5916 25.8849 29.3546 25.874 29.005 25.6547C28.6097 25.1575 28.591 24.6862 28.5917 24.0466C28.5911 23.9268 28.5911 23.9268 28.5905 23.8046C28.5899 23.6363 28.5899 23.4681 28.5903 23.2998C28.5906 23.0435 28.5883 22.7874 28.5859 22.5312C28.5857 22.3671 28.5856 22.203 28.5857 22.039C28.5848 21.963 28.5839 21.887 28.583 21.8088C28.5879 21.2149 28.71 20.8098 29.0603 20.3574C29.4407 20.159 29.824 20.1884 30.2398 20.1899ZM30.159 21.9263C30.159 22.6585 30.159 23.3908 30.159 24.1452C30.9523 24.1452 31.7455 24.1452 32.5628 24.1452C32.5628 23.413 32.5628 22.6807 32.5628 21.9263C31.7696 21.9263 30.9763 21.9263 30.159 21.9263Z" fill="#0F00FF"/>
<path d="M16.2355 20.2167C16.3602 20.2147 16.3602 20.2147 16.4874 20.2126C16.5774 20.2118 16.6675 20.211 16.7602 20.2102C16.8527 20.2094 16.9452 20.2085 17.0405 20.2076C17.2365 20.2062 17.4325 20.2051 17.6285 20.2042C17.928 20.2024 18.2274 20.1978 18.5268 20.1931C18.7172 20.192 18.9075 20.1911 19.0979 20.1904C19.1874 20.1886 19.2768 20.1867 19.369 20.1848C19.7656 20.1863 20.0026 20.1972 20.3522 20.4165C20.7475 20.9137 20.7662 21.385 20.7655 22.0246C20.7659 22.1045 20.7663 22.1843 20.7668 22.2666C20.7673 22.4349 20.7674 22.6031 20.7669 22.7714C20.7666 23.0277 20.7689 23.2838 20.7713 23.54C20.7715 23.7041 20.7716 23.8682 20.7715 24.0322C20.7724 24.1082 20.7733 24.1842 20.7742 24.2624C20.7693 24.8563 20.6472 25.2614 20.2969 25.7138C19.9165 25.9122 19.5332 25.8828 19.1174 25.8813C18.9791 25.8821 18.9791 25.8821 18.838 25.883C18.6431 25.8837 18.4483 25.8835 18.2534 25.8826C17.9556 25.8817 17.658 25.8848 17.3602 25.8881C17.1708 25.8883 16.9813 25.8882 16.7918 25.8879C16.7029 25.8891 16.6141 25.8903 16.5225 25.8915C16.1141 25.8867 15.892 25.876 15.5386 25.6341C15.1835 25.2127 15.2373 24.7994 15.2331 24.2518C15.2323 24.1572 15.2315 24.0626 15.2307 23.9651C15.2294 23.7647 15.2284 23.5642 15.2276 23.3637C15.226 23.0576 15.2217 22.7515 15.2175 22.4454C15.2165 22.2507 15.2157 22.0559 15.2151 21.8612C15.2134 21.7698 15.2117 21.6785 15.21 21.5843C15.2114 21.1488 15.2232 20.9268 15.4388 20.5498C15.7165 20.2625 15.8647 20.222 16.2355 20.2167ZM16.7944 21.926C16.7944 22.6582 16.7944 23.3905 16.7944 24.1449C17.5877 24.1449 18.3809 24.1449 19.1982 24.1449C19.1982 23.4127 19.1982 22.6804 19.1982 21.926C18.4049 21.926 17.6117 21.926 16.7944 21.926Z" fill="#0F00FF"/>
<path d="M42.1804 34.0071C42.2832 34.0066 42.3859 34.0061 42.4918 34.0056C42.7087 34.0053 42.9256 34.0062 43.1426 34.0084C43.4744 34.0113 43.8058 34.0085 44.1376 34.0051C44.3486 34.0054 44.5595 34.0061 44.7705 34.0071C44.8696 34.0061 44.9686 34.005 45.0707 34.0039C45.5299 34.0122 45.7578 34.0171 46.1341 34.326C46.3119 34.6056 46.3119 34.6056 46.372 34.9226C46.2876 35.3678 46.1643 35.496 45.8312 35.7679C45.4696 35.8459 45.1136 35.8394 44.7461 35.8344C44.5884 35.8347 44.5884 35.8347 44.4275 35.8351C44.2057 35.835 43.9839 35.8336 43.762 35.831C43.4222 35.8274 43.0827 35.8288 42.7429 35.8308C42.5272 35.8301 42.3116 35.8291 42.0959 35.8278C41.9434 35.8285 41.9434 35.8285 41.7879 35.8293C41.0889 35.817 41.0889 35.817 40.7677 35.5755C40.574 35.2289 40.5818 35.0038 40.639 34.6056C41.05 33.9495 41.5159 34 42.1804 34.0071Z" fill="#0F00FF"/>
<path d="M4.58588 34.0071C4.68864 34.0066 4.79139 34.0061 4.89726 34.0056C5.11417 34.0053 5.33109 34.0062 5.548 34.0084C5.8798 34.0113 6.21129 34.0085 6.54308 34.0051C6.75403 34.0054 6.96499 34.0061 7.17594 34.0071C7.27501 34.0061 7.37407 34.005 7.47614 34.0039C7.93314 34.0121 8.16356 34.0183 8.53989 34.3223C8.77298 34.6944 8.7833 34.9024 8.71736 35.3453C8.58869 35.5755 8.58869 35.5755 8.33275 35.7679C7.97582 35.8335 7.62167 35.8296 7.26045 35.8278C7.10291 35.8287 7.10291 35.8287 6.9422 35.8297C6.72018 35.8305 6.49816 35.8302 6.27615 35.8288C5.93655 35.8273 5.5972 35.8309 5.25762 35.835C5.04185 35.8351 4.82607 35.8349 4.6103 35.8344C4.50883 35.8358 4.40736 35.8372 4.30281 35.8386C3.59983 35.8288 3.59983 35.8288 3.22078 35.5194C3.04447 35.2396 3.04447 35.2396 2.98438 34.9226C3.16481 33.9709 3.8543 33.9992 4.58588 34.0071Z" fill="#0F00FF"/>
<path d="M41.5117 44.4814C41.6086 44.4797 41.7055 44.478 41.8053 44.4763C41.9094 44.4768 42.0135 44.4774 42.1207 44.4779C42.2818 44.4769 42.2818 44.4769 42.4461 44.4759C42.673 44.4752 42.9 44.4755 43.1269 44.4768C43.4746 44.4783 43.8219 44.4747 44.1695 44.4707C44.39 44.4706 44.6105 44.4708 44.8309 44.4713C44.935 44.4699 45.0391 44.4685 45.1463 44.467C45.8643 44.4769 45.8643 44.4769 46.1859 44.7858C46.3392 45.1257 46.3631 45.3252 46.3123 45.7C46.1411 46.0314 46.0697 46.1059 45.7353 46.2283C45.5889 46.239 45.4421 46.244 45.2954 46.2454C45.2065 46.2464 45.1176 46.2474 45.026 46.2484C44.9301 46.2489 44.8343 46.2493 44.7355 46.2498C44.6368 46.2504 44.538 46.251 44.4363 46.2516C44.2273 46.2526 44.0182 46.2533 43.8092 46.2537C43.4897 46.2547 43.1703 46.258 42.8508 46.2613C42.6478 46.262 42.4447 46.2626 42.2416 46.263C42.1462 46.2643 42.0507 46.2656 41.9523 46.267C41.1147 46.264 41.1147 46.264 40.7355 45.9113C40.5869 45.5847 40.6111 45.3202 40.6394 44.9604C40.9055 44.5836 41.0817 44.4847 41.5117 44.4814Z" fill="#0F00FF"/>
<path d="M4.52563 44.4713C4.63302 44.471 4.74041 44.4708 4.85105 44.4705C5.078 44.4706 5.30495 44.472 5.53188 44.4747C5.87949 44.4783 6.22686 44.4768 6.57447 44.4748C6.79494 44.4755 7.01541 44.4765 7.23588 44.4779C7.33995 44.4774 7.44402 44.4768 7.55125 44.4763C7.6966 44.4788 7.6966 44.4788 7.8449 44.4814C7.97255 44.4823 7.97255 44.4823 8.10277 44.4833C8.40959 44.5559 8.52589 44.6917 8.7172 44.9604C8.76231 45.357 8.76829 45.5984 8.591 45.951C8.3209 46.2368 8.0574 46.242 7.70034 46.2453C7.61144 46.2464 7.52254 46.2474 7.43094 46.2484C7.33509 46.2489 7.23924 46.2493 7.14048 46.2498C7.04172 46.2504 6.94297 46.251 6.84122 46.2516C6.63221 46.2526 6.4232 46.2533 6.21419 46.2537C5.89469 46.2547 5.57526 46.258 5.25578 46.2613C5.05271 46.262 4.84964 46.2626 4.64657 46.263C4.55111 46.2643 4.45565 46.2656 4.35729 46.2669C3.51966 46.264 3.51966 46.264 3.14046 45.9113C3.00329 45.6099 3.01447 45.4005 3.04431 45.066C3.36112 44.3573 3.89091 44.4627 4.52563 44.4713Z" fill="#0F00FF"/>
<path d="M41.5117 28.8434C41.6086 28.8418 41.7055 28.8401 41.8053 28.8384C41.9094 28.8389 42.0135 28.8394 42.1207 28.84C42.2818 28.839 42.2818 28.839 42.4461 28.838C42.673 28.8372 42.9 28.8376 43.1269 28.8389C43.4746 28.8404 43.8219 28.8368 44.1695 28.8327C44.39 28.8326 44.6105 28.8328 44.8309 28.8333C44.935 28.8319 45.0391 28.8305 45.1463 28.8291C45.8643 28.8389 45.8643 28.8389 46.1859 29.1479C46.3392 29.4878 46.3631 29.6872 46.3123 30.0621C46.1411 30.3934 46.0697 30.4679 45.7353 30.5904C45.5889 30.6011 45.4421 30.6061 45.2954 30.6074C45.2065 30.6084 45.1176 30.6094 45.026 30.6105C44.9301 30.6109 44.8343 30.6114 44.7355 30.6119C44.6368 30.6125 44.538 30.6131 44.4363 30.6137C44.2273 30.6147 44.0182 30.6154 43.8092 30.6158C43.4897 30.6168 43.1703 30.6201 42.8508 30.6234C42.6478 30.6241 42.4447 30.6247 42.2416 30.6251C42.1462 30.6264 42.0507 30.6277 41.9523 30.629C41.1147 30.626 41.1147 30.626 40.7355 30.2734C40.5869 29.9467 40.6111 29.6823 40.6394 29.3224C40.9055 28.9457 41.0817 28.8467 41.5117 28.8434Z" fill="#0F00FF"/>
<path d="M4.52563 28.8333C4.63302 28.8331 4.74041 28.8328 4.85105 28.8326C5.078 28.8327 5.30495 28.8341 5.53188 28.8367C5.87949 28.8403 6.22686 28.8389 6.57447 28.8368C6.79494 28.8376 7.01541 28.8386 7.23588 28.8399C7.33995 28.8394 7.44402 28.8389 7.55125 28.8383C7.6966 28.8409 7.6966 28.8409 7.8449 28.8434C7.97255 28.8444 7.97255 28.8444 8.10277 28.8454C8.40959 28.918 8.52589 29.0538 8.7172 29.3224C8.76231 29.719 8.76829 29.9605 8.591 30.313C8.3209 30.5988 8.0574 30.6041 7.70034 30.6074C7.61144 30.6084 7.52254 30.6094 7.43094 30.6105C7.33509 30.6109 7.23924 30.6114 7.14048 30.6118C7.04172 30.6124 6.94297 30.613 6.84122 30.6137C6.63221 30.6147 6.4232 30.6154 6.21419 30.6158C5.89469 30.6168 5.57526 30.6201 5.25578 30.6234C5.05271 30.6241 4.84964 30.6246 4.64657 30.625C4.55111 30.6264 4.45565 30.6277 4.35729 30.629C3.51966 30.626 3.51966 30.626 3.14046 30.2734C3.00329 29.9719 3.01447 29.7626 3.04431 29.4281C3.36112 28.7194 3.89091 28.8248 4.52563 28.8333Z" fill="#0F00FF"/>
<path d="M4.13813 39.2377C4.22287 39.2366 4.30761 39.2356 4.39492 39.2346C4.53193 39.2339 4.53193 39.2339 4.67172 39.2332C4.76598 39.2326 4.86024 39.232 4.95736 39.2314C5.15691 39.2304 5.35647 39.2297 5.55602 39.2293C5.86053 39.2283 6.16498 39.225 6.46947 39.2217C6.66346 39.221 6.85746 39.2204 7.05145 39.22C7.14221 39.2187 7.23297 39.2174 7.32648 39.2161C7.82938 39.2179 8.1883 39.256 8.62103 39.5717C8.76967 39.8984 8.74541 40.1628 8.71718 40.5226C8.52654 40.7925 8.40995 40.927 8.10276 40.9997C8.01766 41.0003 7.93256 41.001 7.84488 41.0016C7.69952 41.0042 7.69952 41.0042 7.55123 41.0067C7.39512 41.0059 7.39512 41.0059 7.23586 41.0051C7.07478 41.0061 7.07478 41.0061 6.91045 41.0071C6.68351 41.0079 6.45656 41.0075 6.22961 41.0062C5.88199 41.0047 5.53462 41.0083 5.18703 41.0124C4.96656 41.0125 4.74609 41.0123 4.52562 41.0117C4.42155 41.0131 4.31747 41.0145 4.21025 41.016C3.49218 41.0062 3.49218 41.0062 3.17106 40.6972C3.01619 40.3548 2.98585 40.1603 3.04429 39.783C3.35748 39.3439 3.64422 39.2424 4.13813 39.2377Z" fill="#0F00FF"/>
<path d="M41.7349 39.2391C41.82 39.2384 41.905 39.2377 41.9927 39.237C42.0843 39.2369 42.176 39.2368 42.2704 39.2367C42.3649 39.2363 42.4594 39.236 42.5567 39.2356C42.7567 39.2351 42.9566 39.2348 43.1566 39.2349C43.4621 39.2346 43.7677 39.2327 44.0732 39.2307C44.2675 39.2304 44.4618 39.2302 44.6561 39.2301C44.7474 39.2293 44.8386 39.2286 44.9327 39.2278C45.7387 39.2308 45.7387 39.2308 46.1202 39.4658C46.3285 39.7468 46.312 39.8977 46.2944 40.2648C46.2154 40.6322 46.1926 40.7283 45.9279 40.945C45.7096 40.986 45.7096 40.986 45.4511 40.9877C45.3542 40.9891 45.2572 40.9904 45.1574 40.9918C45.0528 40.9915 44.9483 40.9912 44.8405 40.9908C44.6792 40.9917 44.6792 40.9917 44.5147 40.9925C44.2872 40.9932 44.0597 40.9931 43.8321 40.9922C43.4837 40.9913 43.1354 40.9943 42.787 40.9977C42.5661 40.9978 42.3452 40.9978 42.1243 40.9974C41.9677 40.9992 41.9677 40.9992 41.808 41.001C41.7108 41.0001 41.6136 40.9991 41.5134 40.998C41.3853 40.998 41.3853 40.998 41.2546 40.998C40.9466 40.9272 40.8314 40.7915 40.6396 40.5224C40.5915 40.1526 40.5915 40.1526 40.6396 39.7827C40.9479 39.3388 41.2418 39.2417 41.7349 39.2391Z" fill="#0F00FF"/>
<path d="M28.236 44.8548C28.5166 45.0827 28.6098 45.2094 28.6704 45.5903C28.6708 45.7094 28.6712 45.8284 28.6717 45.9511C28.6722 46.0813 28.6727 46.2115 28.6732 46.3457C28.6717 46.4813 28.6702 46.617 28.6687 46.7568C28.6702 46.8924 28.6717 47.0281 28.6732 47.1678C28.6727 47.2981 28.6722 47.4283 28.6717 47.5624C28.6712 47.6815 28.6708 47.8005 28.6704 47.9232C28.6098 48.304 28.5155 48.4298 28.236 48.6587C27.8751 48.7082 27.6554 48.7148 27.3346 48.52C26.9411 48.071 27.0606 47.3509 27.0582 46.77C27.0562 46.6549 27.0542 46.5398 27.0521 46.4212C27.0516 46.3099 27.0512 46.1986 27.0506 46.084C27.0497 45.9825 27.0488 45.8811 27.0479 45.7765C27.0886 45.4353 27.1877 45.2374 27.3706 44.9605C27.6679 44.7972 27.9085 44.8238 28.236 44.8548Z" fill="#0F00FF"/>
<path d="M21.7935 44.8546C22.0149 45.0519 22.1472 45.2092 22.2742 45.4886C22.3002 45.904 22.2965 46.3204 22.2983 46.7367C22.3003 46.8523 22.3023 46.9678 22.3043 47.0869C22.3048 47.1987 22.3053 47.3104 22.3058 47.4256C22.3071 47.5788 22.3071 47.5788 22.3085 47.735C22.268 48.0773 22.1694 48.2751 21.9858 48.5528C21.6885 48.7161 21.4479 48.6895 21.1204 48.6584C20.8403 48.4307 20.7469 48.3031 20.6845 47.9229C20.6811 47.534 20.6787 47.1455 20.6818 46.7565C20.6795 46.6209 20.6772 46.4852 20.6748 46.3454C20.675 46.2152 20.6752 46.085 20.6754 45.9508C20.6753 45.8318 20.6752 45.7128 20.6752 45.5901C20.7358 45.2772 20.7358 45.2772 20.9616 45.0271C21.2734 44.8161 21.4335 44.7873 21.7935 44.8546Z" fill="#0F00FF"/>
</svg>
