<svg width="50" height="55" viewBox="0 0 50 55" fill="none" xmlns="http://www.w3.org/2000/svg">
<path d="M6.63365 0.0224839C6.93501 0.152947 7.19063 0.325996 7.46458 0.516131C9.14312 1.62309 10.9788 1.82263 12.8963 1.93442C12.9636 4.97229 12.4389 7.51302 11.0367 10.1554C10.9389 10.3532 10.9389 10.3532 10.9581 10.6547C11.0961 10.8545 11.0961 10.8545 11.2875 11.057C11.3605 11.1382 11.4335 11.2194 11.5088 11.303C11.5899 11.3916 11.6711 11.4803 11.7547 11.5716C11.8394 11.6652 11.924 11.7589 12.0112 11.8554C12.2437 12.1125 12.4771 12.3687 12.7106 12.6248C12.9544 12.8923 13.1974 13.1608 13.4404 13.4292C13.901 13.9375 14.3622 14.4449 14.8237 14.9521C15.3491 15.5295 15.8736 16.1077 16.398 16.686C17.477 17.8758 18.557 19.0645 19.6377 20.2524C19.807 20.135 19.9763 20.0176 20.1456 19.9001C20.2871 19.802 20.2871 19.802 20.4314 19.702C20.7058 19.5106 20.9773 19.315 21.2472 19.1161C21.3394 19.0491 21.4316 18.9821 21.5266 18.913C21.7146 18.7761 21.9021 18.6385 22.0891 18.5001C22.1811 18.4336 22.273 18.3671 22.3678 18.2985C22.4489 18.2391 22.5301 18.1796 22.6137 18.1184C22.8972 17.9504 22.8972 17.9504 23.7592 17.6379C23.7625 16.4929 23.7657 15.3479 23.7691 14.1682C23.4535 14.0978 23.138 14.0273 22.8129 13.9547C22.2687 13.6418 21.8396 13.159 21.5573 12.5589C21.4556 12.185 21.4587 11.8322 21.4685 11.4464C21.4696 11.3735 21.4707 11.3007 21.4718 11.2256C21.4745 11.0473 21.4784 10.869 21.4826 10.6907C21.4039 10.6953 21.3252 10.6999 21.2441 10.7047C20.402 10.7317 19.7108 10.6814 19.0615 10.0454C18.3065 9.15665 18.297 8.35262 18.2993 7.17721C18.2973 7.04255 18.2954 6.90789 18.2933 6.76914C18.2934 5.8585 18.3726 5.16493 18.9035 4.44637C19.753 3.67588 20.4071 3.59284 21.5026 3.64614C21.4984 3.54203 21.4943 3.43793 21.49 3.33067C21.4647 2.41336 21.4783 1.73213 22.0583 1.02726C22.8217 0.223436 23.6459 0.131611 24.6699 0.147803C24.7683 0.14692 24.8667 0.146036 24.9681 0.145126C25.8886 0.152134 26.6043 0.328576 27.2764 1.04509C27.9178 1.83443 27.863 2.66266 27.8173 3.66773C27.896 3.66312 27.9747 3.65851 28.0558 3.65376C28.8979 3.62672 29.5891 3.67704 30.2385 4.31303C30.9934 5.20176 31.0029 6.0058 31.0006 7.1812C31.0026 7.31586 31.0046 7.45053 31.0066 7.58927C31.0066 8.49992 30.9273 9.19348 30.3964 9.91205C29.5469 10.6825 28.8929 10.7656 27.7974 10.7123C27.8015 10.8164 27.8056 10.9205 27.8099 11.0277C27.8352 11.9451 27.8216 12.6263 27.2417 13.3312C26.7451 13.854 26.1888 14.1765 25.4913 14.1741C25.488 15.3191 25.4848 16.4641 25.4814 17.6438C25.9072 17.8014 25.9072 17.8014 26.3417 17.9622C26.6097 18.135 26.8608 18.3078 27.1149 18.5016C27.1836 18.5528 27.2523 18.6039 27.3231 18.6566C27.5397 18.8181 27.7553 18.981 27.9708 19.1441C28.1186 19.2547 28.2665 19.3652 28.4145 19.4756C28.7745 19.7446 29.1337 20.015 29.4925 20.2861C30.0365 19.7911 30.5413 19.2629 31.0435 18.7173C31.1289 18.6249 31.2143 18.5324 31.3024 18.4372C31.583 18.1333 31.8633 17.8289 32.1434 17.5245C32.2402 17.4193 32.3371 17.3141 32.4339 17.209C32.8362 16.7718 33.2384 16.3345 33.6403 15.8969C34.2151 15.2708 34.7908 14.6456 35.3675 14.0217C35.774 13.5819 36.1795 13.1411 36.5843 12.6995C36.8259 12.436 37.0679 12.173 37.3108 11.9111C37.581 11.6197 37.8493 11.3264 38.1174 11.0327C38.2388 10.9027 38.2389 10.9027 38.3627 10.7701C38.4351 10.6901 38.5075 10.6102 38.5821 10.5279C38.6457 10.4587 38.7093 10.3896 38.7749 10.3184C38.9199 10.1292 38.9199 10.1292 38.8782 9.90281C38.7706 9.60939 38.6488 9.32547 38.5241 9.04036C37.8414 7.41373 37.8068 5.74622 38.3528 4.05203C38.9446 2.50524 39.9815 1.41048 41.3567 0.711262C42.9149 0.0276729 44.481 0.113112 46.0148 0.8159C47.3467 1.56381 48.3428 2.83631 48.8676 4.3685C49.3347 5.98567 49.2076 7.66936 48.5639 9.20611C48.2413 9.80103 47.8794 10.3527 47.4544 10.8645C46.7962 11.6898 46.7595 12.31 46.7473 13.3592C46.736 14.0675 46.5835 14.5874 46.15 15.1175C45.3442 15.9516 44.6085 15.96 43.5396 15.9576C43.4171 15.9597 43.2945 15.9619 43.1683 15.9641C42.3396 15.9641 41.7085 15.877 41.0546 15.2936C41.0052 15.2278 40.9558 15.162 40.9049 15.0943C40.854 15.0296 40.8031 14.9649 40.7507 14.8982C40.3599 14.2126 40.2812 13.5632 40.2716 12.7658C40.2689 12.5886 40.2653 12.4114 40.2608 12.2343C40.2594 12.1184 40.2594 12.1184 40.2579 12.0002C40.247 11.7803 40.247 11.7803 40.0417 11.5953C37.0963 14.8121 34.1508 18.0288 31.116 21.3431C31.3869 21.6426 31.5839 21.8456 31.8932 22.069C31.9705 22.1252 32.0479 22.1814 32.1276 22.2394C32.2109 22.2992 32.2942 22.359 32.38 22.4206C32.4671 22.4838 32.5543 22.547 32.6441 22.6121C32.83 22.7469 33.0161 22.8815 33.2024 23.0159C33.6816 23.3619 34.1597 23.7097 34.638 24.0573C34.7776 24.1586 34.7776 24.1586 34.9201 24.2621C35.6161 24.7677 36.3104 25.2757 36.9996 25.7924C37.0818 25.8534 37.164 25.9143 37.2487 25.9772C37.3214 26.0319 37.394 26.0867 37.4688 26.1431C37.5592 26.2109 37.5592 26.2109 37.6514 26.2801C37.7992 26.4128 37.7992 26.4128 37.9896 26.7289C38.0522 27.4748 38.0522 27.4748 37.8131 27.8258C37.4629 28.0989 37.1822 28.1056 36.7647 28.1019C36.6577 28.1012 36.5507 28.1005 36.4405 28.0997C36.273 28.0978 36.273 28.0978 36.1021 28.0959C35.9893 28.0951 35.8765 28.0942 35.7603 28.0933C35.4816 28.0911 35.2028 28.0884 34.9241 28.0853C34.8234 29.523 34.7585 30.9605 34.7265 32.4021C34.7241 32.5072 34.7218 32.6124 34.7193 32.7207C34.639 36.1458 34.639 36.1458 36.074 39.0627C36.8626 39.9425 37.7557 40.7025 38.7137 41.3464C38.8085 41.312 38.9033 41.2776 39.001 41.2422C39.0933 41.0186 39.0933 41.0186 39.0982 40.7168C38.9758 40.4303 38.8089 40.1821 38.64 39.9267C38.0954 39.0828 37.805 38.3739 37.8808 37.3131C38.0157 36.4741 38.4158 35.8066 39.0417 35.3083C39.5 35.0064 39.9274 34.8944 40.4543 34.8334C40.5383 34.8153 40.6222 34.7971 40.7087 34.7784C41.0758 34.7287 41.3537 34.7156 41.6648 34.9623C42.0256 35.311 42.3412 35.7003 42.6514 36.1026C42.7516 36.0113 42.8514 35.9196 42.9511 35.8277C43.0132 35.7709 43.0753 35.7142 43.1392 35.6558C43.3091 35.4878 43.4427 35.3137 43.587 35.1201C43.8464 34.8316 44.0418 34.8009 44.4072 34.7943C45.4061 34.8647 46.1962 35.1101 46.8916 35.9397C47.4327 36.6996 47.5281 37.4821 47.4287 38.4321C47.2325 39.3519 46.6796 40.0997 46.1781 40.8461C46.3015 41.1406 46.4374 41.3783 46.6277 41.6256C46.6786 41.6928 46.7296 41.7599 46.7821 41.8291C46.8362 41.9003 46.8903 41.9715 46.9461 42.0448C48.2188 43.7528 49.2369 45.5909 49.0284 47.9005C48.8177 49.8015 48.0338 51.5079 46.6528 52.7027C45.3629 53.7073 44.1774 54.0198 42.6246 54.0164C42.5111 54.0186 42.3976 54.0207 42.2807 54.023C40.5406 54.0233 39.1603 53.2426 37.9062 51.968C36.7771 50.6901 36.2465 48.893 36.2651 47.1376C36.3159 45.7622 36.7184 44.6112 37.3683 43.4446C37.4645 43.2697 37.5607 43.0948 37.6568 42.9199C36.679 41.2288 35.2849 39.0041 33.418 38.417C32.0686 38.0906 30.6606 38.1145 29.2864 38.1467C29.1915 38.1489 29.0965 38.1511 28.9987 38.1533C27.803 38.1845 26.6173 38.2658 25.4228 38.3569C25.4507 39.6408 25.4787 40.9247 25.5075 42.2475C25.9817 42.0409 25.9817 42.0409 26.4654 41.8302C27.5774 41.5288 28.8171 41.7346 29.7947 42.3804C30.7037 43.0787 31.3733 43.9868 31.605 45.1918C31.8232 46.6771 31.5924 47.8825 30.7922 49.1229C30.4102 49.6283 29.9536 50.0262 29.486 50.4323C29.2274 50.6607 28.9809 50.8981 28.7354 51.1432C28.3243 51.5517 27.9011 51.9391 27.4684 52.3196C27.2867 52.4808 27.1072 52.6449 26.9296 52.8115C26.009 53.6682 25.3323 54.0185 24.1158 53.9527C23.15 53.8457 22.5509 53.2226 21.8425 52.539C21.7299 52.4315 21.6172 52.3241 21.5045 52.2167C21.2622 51.9854 21.0205 51.7534 20.7791 51.5209C20.4195 51.1747 20.0579 50.8309 19.6956 50.488C19.643 50.4382 19.5905 50.3884 19.5363 50.3372C19.4855 50.2891 19.4348 50.2411 19.3825 50.1916C19.3326 50.1442 19.2828 50.0969 19.2314 50.0481C19.1213 49.9443 19.0104 49.8415 18.8989 49.7394C18.034 48.9409 17.499 47.892 17.3743 46.6489C17.3144 45.2821 17.6373 44.1843 18.4426 43.1434C19.2954 42.1644 20.3072 41.7113 21.5384 41.6688C22.2597 41.6943 22.9508 41.8849 23.5939 42.241C23.6291 40.9573 23.6643 39.6736 23.7006 38.351C22.3897 38.2757 21.084 38.2117 19.7723 38.1864C19.6771 38.1846 19.5819 38.1828 19.4838 38.1809C16.5755 38.0455 16.5755 38.0455 14.0357 39.3637C13.4103 40.0352 12.8805 40.8137 12.4968 41.6773C12.4966 41.7467 12.4964 41.8161 12.4962 41.8876C12.6885 42.0788 12.6885 42.0788 12.9257 42.2702C13.0452 42.3702 13.0452 42.3702 13.1673 42.4723C13.2293 42.5232 13.2913 42.5741 13.3552 42.6265C13.3086 43.0803 13.063 43.2918 12.7724 43.5971C12.6401 43.7373 12.6401 43.7373 12.5051 43.8804C12.4029 43.9866 12.4029 43.9866 12.2986 44.0949C11.9854 43.9406 11.7612 43.7433 11.5049 43.4942C10.1989 42.3225 8.43307 41.7398 6.75551 41.868C5.01756 42.1154 3.57923 42.7726 2.2524 44.0606C1.78662 43.6445 1.38816 43.2039 1.01246 42.6895C3.00981 40.7399 5.28775 39.8139 7.9696 39.9614C8.84244 40.0344 9.66458 40.2755 10.4646 40.6637C10.7508 40.7443 10.8072 40.6728 11.0649 40.5158C11.1716 40.4543 11.2784 40.3928 11.3884 40.3294C12.5438 39.6109 13.7091 38.5921 14.1361 37.1617C14.7448 34.2636 14.4033 30.9603 14.2577 28.0147C14.1882 28.0161 14.1188 28.0175 14.0472 28.019C13.7306 28.0244 13.4141 28.0275 13.0975 28.0304C12.9336 28.0338 12.9336 28.0338 12.7664 28.0373C11.7411 28.0436 11.7411 28.0436 11.2925 27.6891C11.1424 27.3565 11.1204 26.9939 11.1998 26.6373C11.591 26.1502 12.0566 25.8134 12.5475 25.457C12.6323 25.3949 12.717 25.3327 12.8043 25.2686C13.0783 25.0677 13.3528 24.8677 13.6273 24.6676C13.8147 24.5304 14.0022 24.3932 14.1896 24.2559C14.6452 23.9222 15.1013 23.5893 15.5576 23.2567C15.779 23.0954 16.0002 22.9339 16.2215 22.7724C16.8482 22.3151 17.4754 21.8587 18.1035 21.4038C17.6786 20.8412 17.2299 20.3172 16.7604 19.7995C16.6853 19.7162 16.6102 19.633 16.5328 19.5472C16.2862 19.2741 16.0393 19.0014 15.7924 18.7287C15.6204 18.5385 15.4485 18.3482 15.2766 18.158C14.9172 17.7605 14.5577 17.3632 14.1981 16.966C13.7822 16.5067 13.3667 16.0471 12.9514 15.5872C12.5511 15.1441 12.1506 14.7012 11.7499 14.2585C11.5796 14.0702 11.4094 13.8819 11.2393 13.6935C11.0023 13.4312 10.765 13.1692 10.5276 12.9073C10.4569 12.829 10.3863 12.7506 10.3135 12.6699C10.2168 12.5635 10.2168 12.5635 10.1182 12.4549C10.0621 12.3929 10.0061 12.331 9.94832 12.2672C9.80839 12.1122 9.80839 12.1122 9.6147 12.017C9.59282 12.0756 9.57095 12.1342 9.54841 12.1946C9.10875 13.0383 8.22749 13.6801 7.40845 14.0072C6.54679 14.2309 5.68005 14.1602 4.90834 13.6553C2.78064 11.9294 1.40015 9.47185 0.63586 6.72911C0.590622 6.56713 0.590622 6.56713 0.544471 6.40187C0.178056 4.93378 0.133116 3.40378 0.171162 1.89092C0.238514 1.88698 0.305867 1.88305 0.37526 1.87899C2.40587 1.75413 4.42345 1.54734 6.12524 0.196122C6.39558 0.0196165 6.39558 0.0196165 6.63365 0.0224839ZM23.1321 2.60028C23.0658 2.93406 23.0658 2.93406 23.0834 3.29545C23.0845 3.42659 23.0857 3.55772 23.0869 3.69283C23.0905 3.82886 23.0942 3.96488 23.0979 4.10502C23.1005 4.3121 23.1005 4.3121 23.1033 4.52336C23.1079 4.86377 23.1148 5.20396 23.1237 5.54426C23.0007 5.53971 23.0007 5.53971 22.8751 5.53507C22.5699 5.52505 22.2647 5.51743 21.9594 5.51141C21.8274 5.50832 21.6954 5.50428 21.5635 5.49927C21.3736 5.49223 21.1836 5.48889 20.9935 5.48564C20.8793 5.4825 20.7651 5.47936 20.6474 5.47612C20.3349 5.50715 20.3349 5.50715 20.12 5.76782C19.9586 6.07099 19.9153 6.22842 19.9126 6.57487C19.9118 6.67042 19.9111 6.76597 19.9103 6.86441C19.9115 6.96295 19.9127 7.06149 19.9139 7.16302C19.9121 7.26155 19.9104 7.36007 19.9086 7.46159C19.9096 7.91405 19.9209 8.19472 20.1281 8.59304C20.485 8.93212 20.8228 8.91384 21.2828 8.91283C21.3895 8.91286 21.4962 8.91288 21.6061 8.91291C21.7724 8.91216 21.7724 8.91216 21.9421 8.91139C22.0545 8.9113 22.1668 8.91121 22.2826 8.91111C22.5598 8.91082 22.837 8.91004 23.1142 8.90882C23.1115 8.99206 23.1087 9.0753 23.1059 9.16105C23.0949 9.5391 23.0876 9.91713 23.0804 10.2953C23.0738 10.4918 23.0738 10.4918 23.0671 10.6922C23.0513 11.4251 23.0513 11.4251 23.2805 12.0978C23.7306 12.3614 24.1326 12.3535 24.6353 12.3443C24.7296 12.3467 24.8238 12.349 24.9209 12.3515C25.3373 12.3498 25.6197 12.3216 25.9916 12.1071C26.2812 11.5338 26.2197 10.9488 26.2019 10.306C26.2001 10.1729 26.1983 10.0399 26.1965 9.90282C26.1918 9.57486 26.1848 9.24714 26.1759 8.91929C26.2458 8.92063 26.3158 8.92197 26.3879 8.92335C26.7059 8.92882 27.0239 8.93264 27.3419 8.93642C27.507 8.93963 27.507 8.93963 27.6755 8.9429C27.7819 8.94394 27.8882 8.94498 27.9978 8.94605C28.0955 8.94749 28.1932 8.94893 28.2939 8.9504C28.6833 8.9178 28.9411 8.8368 29.2182 8.52757C29.4308 8.11203 29.3819 7.66806 29.38 7.20195C29.3822 7.10295 29.3844 7.00394 29.3867 6.90194C29.3869 6.80592 29.3871 6.70989 29.3873 6.61095C29.3877 6.52388 29.3881 6.43681 29.3886 6.3471C29.3218 5.98553 29.2046 5.81555 28.9601 5.56422C28.6558 5.49091 28.6558 5.49091 28.3159 5.51067C28.1919 5.51195 28.068 5.51322 27.9403 5.51452C27.8098 5.51847 27.6794 5.52248 27.5489 5.52654C27.417 5.52872 27.285 5.53067 27.1531 5.53237C26.8304 5.53747 26.508 5.54501 26.1854 5.55473C26.1895 5.4251 26.1895 5.4251 26.1937 5.29285C26.2048 4.9005 26.2121 4.50816 26.2194 4.1157C26.2238 3.9797 26.2282 3.8437 26.2327 3.70359C26.2346 3.57246 26.2365 3.44134 26.2385 3.30624C26.2413 3.18566 26.2442 3.06509 26.2471 2.94086C26.1764 2.50314 26.0344 2.35131 25.7169 2.08339C25.478 2.00339 25.478 2.00339 25.2267 2.0119C25.1354 2.01091 25.0442 2.00992 24.9501 2.0089C24.8088 2.01146 24.8088 2.01146 24.6646 2.01408C24.5704 2.01173 24.4761 2.00937 24.3791 2.00695C24.2422 2.00749 24.2422 2.00749 24.1025 2.00805C23.9785 2.00852 23.9785 2.00852 23.8521 2.00899C23.4982 2.10803 23.3535 2.28617 23.1321 2.60028ZM40.4166 3.8028C39.7635 4.82269 39.5905 5.83941 39.6718 7.07284C39.8359 8.09517 40.3325 8.84351 40.8942 9.64678C41.0036 9.81113 41.0036 9.81113 41.1523 10.0917C41.2805 10.3309 41.3708 10.4906 41.5753 10.6542C41.966 10.7231 42.3313 10.707 42.7234 10.6582C42.8629 9.59075 42.8629 9.59075 42.5542 8.63685C42.3305 8.48444 42.3305 8.48444 42.0915 8.36091C41.6174 8.09659 41.4372 7.63348 41.2624 7.10457C41.1316 6.37256 41.1785 5.656 41.5493 5.02239C41.5931 4.95735 41.6368 4.89231 41.6818 4.82529C41.8015 4.66585 41.8015 4.66585 41.7842 4.45148C42.5746 4.0136 43.2952 3.63185 44.1901 3.88593C44.9127 4.16143 45.346 4.52989 45.7066 5.27277C45.9882 6.01046 45.9501 6.75212 45.7021 7.49227C45.3921 8.21014 44.9884 8.48139 44.355 8.87629C44.3533 9.46614 44.3516 10.056 44.3499 10.6637C44.8262 10.7726 45.0428 10.821 45.4981 10.6676C46.2498 9.96599 46.8724 8.83594 47.2283 7.83468C47.2701 7.72206 47.3118 7.60943 47.3548 7.4934C47.5761 6.19018 47.4127 5.09496 46.7848 3.96914C46.1789 3.02782 45.3748 2.46132 44.374 2.14717C42.7981 1.97622 41.4428 2.39726 40.4166 3.8028ZM5.57228 2.59641C4.459 3.28655 3.14684 3.52223 1.8883 3.68423C1.93783 6.5726 3.1618 9.09669 4.92886 11.1598C4.99832 11.241 5.06777 11.3221 5.13933 11.4057C5.70998 12.0616 5.70999 12.0616 6.4925 12.256C6.93836 12.2432 7.16149 12.117 7.51038 11.7995C7.57306 11.7458 7.63574 11.692 7.70033 11.6367C9.40888 10.0979 10.5067 7.80127 11.0026 5.46997C11.0276 5.35318 11.0276 5.35318 11.0531 5.23403C11.1553 4.7184 11.1822 4.24357 11.1691 3.71596C11.1133 3.70633 11.0576 3.6967 11.0002 3.68678C9.11927 3.35397 9.11927 3.35397 8.23501 2.97649C8.17304 2.95029 8.11108 2.92409 8.04724 2.8971C7.7694 2.77409 7.51704 2.63889 7.26285 2.46429C6.58668 2.01089 6.22005 2.19258 5.57228 2.59641ZM42.9824 5.78301C42.7843 6.11163 42.7667 6.27544 42.8304 6.66307C43.0129 6.98788 43.0129 6.98788 43.3073 7.19042C43.6758 7.19866 43.8812 7.17895 44.1632 6.91077C44.2981 6.5907 44.3127 6.38643 44.2673 6.03712C44.1306 5.77168 44.1306 5.77168 43.8858 5.61524C43.5057 5.55424 43.3057 5.54771 42.9824 5.78301ZM42.0486 12.4433C41.957 13.4972 41.957 13.4972 42.2208 13.9319C42.6567 14.2143 43.0294 14.202 43.5267 14.1898C43.6163 14.1912 43.706 14.1927 43.7984 14.1942C44.2188 14.1907 44.4652 14.1789 44.8292 13.9326C45.2181 13.4675 45.1084 13.1198 45.1103 12.4538C44.0999 12.4503 43.0896 12.4468 42.0486 12.4433ZM22.6191 20.3378C22.501 20.4257 22.501 20.4257 22.3804 20.5154C22.1226 20.7073 21.8656 20.9005 21.6086 21.0938C21.2417 21.3675 20.8742 21.6405 20.5068 21.9135C20.4124 21.9837 20.318 22.054 20.2207 22.1264C19.0614 22.9874 17.8883 23.8252 16.7144 24.662C16.4531 24.8483 16.192 25.035 15.931 25.2218C15.8533 25.2769 15.7756 25.332 15.6955 25.3888C15.6242 25.4399 15.553 25.4909 15.4795 25.5435C15.4177 25.5876 15.3558 25.6316 15.292 25.677C15.0945 25.8266 15.0945 25.8266 14.8371 26.1241C21.2781 26.1461 27.7192 26.1681 34.3554 26.1908C34.074 25.9419 33.8095 25.709 33.5138 25.4881C33.445 25.4366 33.3763 25.385 33.3055 25.332C33.2315 25.2769 33.1574 25.2218 33.0812 25.165C33.0021 25.1058 32.923 25.0467 32.8414 24.9858C32.5805 24.7909 32.3194 24.5964 32.0582 24.4021C31.9687 24.3354 31.8792 24.2688 31.787 24.2001C31.1162 23.7008 30.4446 23.2029 29.7727 22.7054C29.6748 22.6329 29.577 22.5604 29.4762 22.4858C28.898 22.0576 28.3191 21.6305 27.7393 21.2049C27.5562 21.0704 27.3733 20.9356 27.1906 20.8005C26.9345 20.6113 26.6777 20.4232 26.4208 20.2354C26.3459 20.1797 26.271 20.1241 26.1938 20.0667C24.8288 19.0753 23.9128 19.3547 22.6191 20.3378ZM15.9799 28.0206C15.9719 30.831 15.964 33.6415 15.9558 36.5371C16.4294 36.5387 16.903 36.5403 17.3909 36.542C17.3963 36.2962 17.4017 36.0503 17.4072 35.797C17.4131 35.5555 17.4193 35.314 17.4255 35.0725C17.4296 34.9063 17.4334 34.7401 17.4369 34.5739C17.5 31.6012 17.5 31.6012 18.4604 30.5525C19.3183 29.8947 20.0948 29.6171 21.1417 29.7205C21.9784 29.8848 22.5334 30.3102 23.1235 30.9627C24.2063 32.6929 23.7573 34.3502 23.8013 36.5639C26.8956 36.5745 29.9898 36.5851 33.1778 36.596C33.1857 33.7855 33.1937 30.9751 33.2019 28.0794C27.5186 28.06 21.8354 28.0406 15.9799 28.0206ZM19.5208 31.969C19.1268 32.4878 19.0969 32.8828 19.1029 33.5496C19.103 33.6354 19.103 33.7211 19.103 33.8095C19.1033 34.0827 19.1049 34.3558 19.1066 34.629C19.107 34.8145 19.1074 35 19.1076 35.1855C19.1083 35.6397 19.1108 36.0937 19.1131 36.5479C20.1235 36.5513 21.1338 36.5548 22.1748 36.5584C22.1829 36.0477 22.19 35.5372 22.1949 35.0266C22.1969 34.8531 22.1993 34.6797 22.2023 34.5062C22.2065 34.2559 22.2088 34.0057 22.2108 33.7553C22.2125 33.6786 22.2142 33.6019 22.2159 33.5229C22.2181 32.8413 22.0823 32.352 21.644 31.8448C20.8703 31.2795 20.2369 31.3059 19.5208 31.969ZM39.6821 37.2491C39.541 37.5567 39.551 37.745 39.584 38.0899C39.7135 38.3959 39.8783 38.6716 40.048 38.9523C40.0918 39.0272 40.1357 39.1021 40.1808 39.1793C40.2979 39.379 40.4165 39.5775 40.536 39.7754C40.5989 39.8797 40.6617 39.984 40.7265 40.0915C41.0092 40.1349 41.2712 40.1578 41.5553 40.1658C41.6795 40.1697 41.6795 40.1697 41.8063 40.1736C41.9821 40.1781 42.1579 40.1817 42.3338 40.1843C42.6012 40.1899 42.8677 40.2033 43.1349 40.2168C44.0439 40.2668 44.0439 40.2668 44.8366 39.8594C45.0342 39.5646 45.1803 39.2812 45.3223 38.9506C45.4192 38.7814 45.5171 38.6129 45.6168 38.4456C45.7625 38.1444 45.8032 38.0142 45.8103 37.6643C45.6707 37.2635 45.493 36.939 45.1372 36.742C44.7868 36.6969 44.6217 36.6941 44.3306 36.9226C44.2572 37.0061 44.1838 37.0895 44.1082 37.1755C44.0278 37.2653 43.9473 37.3552 43.8645 37.4478C43.7823 37.5428 43.7001 37.6378 43.6155 37.7357C43.5311 37.8307 43.4467 37.9256 43.3598 38.0235C43.1517 38.2582 42.9451 38.4942 42.7396 38.7315C42.394 38.4169 42.0623 38.097 41.7554 37.7367C41.7042 37.6769 41.653 37.6171 41.6002 37.5554C41.496 37.4325 41.3927 37.3087 41.2903 37.1839C41.0316 36.8851 40.9052 36.741 40.5261 36.6704C40.1196 36.7536 39.9764 36.9352 39.6821 37.2491ZM39.6651 43.2422C39.5684 43.3755 39.4701 43.5076 39.3687 43.6367C38.4343 44.9408 37.8131 46.2322 37.9834 47.9482C38.0782 48.5706 38.2122 49.1051 38.4988 49.652C38.5606 49.7717 38.5606 49.7717 38.6237 49.8939C39.2593 51.0331 40.185 51.7076 41.3432 52.0952C42.5669 52.4122 43.9709 52.2915 45.0697 51.6151C45.315 51.4378 45.5406 51.2497 45.7665 51.0437C45.8702 50.9499 45.8702 50.9499 45.9759 50.8542C46.7869 50.049 47.2478 48.9341 47.3306 47.7473C47.3963 45.7192 46.5248 44.3801 45.3543 42.9232C45.2159 42.7354 45.2159 42.7354 45.0961 42.5224C44.8433 42.0782 44.8433 42.0782 44.4491 41.8084C44.2191 41.771 43.9999 41.7598 43.7674 41.7591C43.6837 41.7568 43.5999 41.7545 43.5136 41.7521C43.3368 41.7486 43.16 41.7473 42.9831 41.7481C42.715 41.7477 42.4487 41.7356 42.1808 41.7227C40.8746 41.694 40.355 42.0457 39.6651 43.2422ZM19.4905 44.6584C19.1113 45.3138 18.9875 45.9745 19.0843 46.7467C19.313 47.5679 19.7249 48.139 20.3346 48.6698C20.6904 48.9851 21.0359 49.306 21.3723 49.646C21.781 50.0571 22.2013 50.4477 22.6326 50.8299C22.8149 50.9945 22.9934 51.1641 23.1686 51.3377C23.623 51.7806 23.9758 52.117 24.5928 52.1792C25.2159 52.0339 25.6962 51.5339 26.1582 51.0818C26.2848 50.9599 26.4115 50.8381 26.5382 50.7163C26.6335 50.6242 26.6335 50.6242 26.7307 50.5302C27.0213 50.2506 27.3151 49.9752 27.6093 49.7002C27.664 49.6487 27.7188 49.5972 27.7752 49.5442C28.0437 49.2927 28.3139 49.0445 28.5891 48.802C28.6412 48.7558 28.6933 48.7095 28.747 48.6619C28.8881 48.5373 29.0299 48.4137 29.1718 48.2902C29.6463 47.8072 29.9493 47.2526 30.0135 46.5401C30.0411 45.7482 29.903 45.1375 29.4658 44.5019C29.0236 43.9793 28.5142 43.6701 27.868 43.5793C26.9527 43.5496 26.3784 43.7777 25.7053 44.4508C25.3435 44.8308 24.9882 45.2175 24.6368 45.6091C24.2155 45.4348 23.9641 45.0774 23.6646 44.7252C22.9997 43.9741 22.5149 43.6 21.5391 43.5417C20.6922 43.5714 20.0102 43.9124 19.4905 44.6584Z" fill="white"/>
<path d="M25.3522 29.6296C27.4677 29.6369 29.5831 29.6441 31.7626 29.6516C31.7577 31.3864 31.7528 33.1213 31.7478 34.9087C29.6323 34.9014 27.5169 34.8942 25.3373 34.8868C25.3423 33.1519 25.3472 31.4171 25.3522 29.6296ZM26.9737 31.4226C26.9721 31.9778 26.9705 32.5329 26.9689 33.1049C27.9793 33.1084 28.9896 33.1118 30.0306 33.1154C30.0322 32.5602 30.0338 32.0051 30.0354 31.4331C29.025 31.4296 28.0147 31.4262 26.9737 31.4226Z" fill="white"/>
<path d="M8.30799 47.0714C8.84234 47.4296 9.26885 47.9838 9.55949 48.5872C9.69906 49.5852 9.66626 50.3914 9.12144 51.234C8.66116 51.811 8.12275 52.1117 7.43458 52.2115C6.75042 52.2493 6.23447 52.0789 5.67585 51.6428C5.1512 51.1195 4.86201 50.6252 4.78771 49.8367C4.7802 48.9192 4.88784 48.3658 5.43593 47.6728C6.23972 46.9204 7.28445 46.5733 8.30799 47.0714ZM6.76605 48.8733C6.52736 49.1068 6.52736 49.1068 6.44156 49.4308C6.42253 49.7642 6.42253 49.7642 6.60724 50.0491C6.86813 50.3335 6.86813 50.3335 7.21026 50.3863C7.5844 50.2479 7.74414 50.1553 7.93557 49.771C8.00494 49.4415 8.00494 49.4415 7.86556 49.1531C7.69514 48.8948 7.69514 48.8948 7.40638 48.7047C7.02827 48.6671 7.02827 48.6671 6.76605 48.8733Z" fill="white"/>
<path d="M25.8089 20.3783C26.3591 20.7318 26.6623 21.2105 26.941 21.8279C27.0924 22.7082 27.0768 23.4637 26.6631 24.2514C26.2321 24.9197 25.7087 25.2587 24.9813 25.4223C24.3213 25.5203 23.7005 25.3505 23.145 24.9491C22.5767 24.4465 22.2622 23.906 22.1807 23.1037C22.1585 22.2423 22.2786 21.48 22.8304 20.8293C23.673 20.0402 24.7953 19.8809 25.8089 20.3783ZM23.8412 22.5795C23.8334 22.9572 23.8666 23.1265 24.096 23.4084C24.3845 23.5639 24.5729 23.572 24.891 23.5294C25.1901 23.3708 25.2584 23.2622 25.3771 22.9199C25.3974 22.5632 25.3974 22.5632 25.1758 22.2292C24.9197 21.933 24.9197 21.933 24.6087 21.8725C24.1936 21.985 24.0621 22.1852 23.8412 22.5795Z" fill="white"/>
<path d="M10.6819 44.6744C10.8974 44.853 10.8974 44.853 11.0516 45.0371C11.0504 45.4577 11.0504 45.4577 10.8403 45.728C10.7513 45.8204 10.6622 45.9128 10.5704 46.008C10.4814 46.1015 10.3923 46.195 10.3005 46.2913C10.2313 46.3621 10.162 46.4329 10.0906 46.5058C9.80223 46.3537 9.54065 46.1757 9.27287 45.9839C8.39206 45.3984 7.45021 45.1729 6.43889 45.4094C5.82285 45.5951 5.32652 45.8303 4.81967 46.2594C4.63731 46.382 4.63731 46.382 4.25459 46.3807C4.00858 46.1499 4.00858 46.1499 3.75377 45.8533C3.6687 45.7554 3.58363 45.6575 3.49598 45.5567C3.39936 45.4425 3.39936 45.4425 3.30079 45.326C3.6246 44.5057 4.50018 44.0781 5.21881 43.7554C7.0729 43.0179 9.10995 43.4077 10.6819 44.6744Z" fill="white"/>
</svg>
