<svg width="55" height="54" viewBox="0 0 55 54" fill="none" xmlns="http://www.w3.org/2000/svg">
<path d="M37.321 8.01429C37.4565 8.01322 37.592 8.01215 37.7317 8.01105C37.8792 8.01108 38.0268 8.01118 38.1743 8.01136C38.3262 8.01092 38.478 8.01043 38.6298 8.0099C38.9479 8.00906 39.2659 8.00909 39.5839 8.00968C39.9907 8.01033 40.3975 8.00843 40.8044 8.00582C41.1179 8.00416 41.4314 8.00407 41.745 8.00442C41.8949 8.00436 42.0449 8.00377 42.1949 8.00264C42.4048 8.00125 42.6148 8.00223 42.8248 8.00331C42.9441 8.00324 43.0635 8.00317 43.1864 8.0031C43.5585 8.05159 43.7579 8.1462 44.0537 8.38249C44.3389 8.80125 44.3012 9.25723 44.2976 9.74858C44.2978 9.84172 44.298 9.93485 44.2982 10.0308C44.2985 10.3433 44.2973 10.6558 44.2961 10.9682C44.2961 11.1921 44.2961 11.4159 44.2962 11.6397C44.2963 12.2479 44.295 12.856 44.2935 13.4642C44.2921 14.0995 44.292 14.7349 44.2917 15.3703C44.2911 16.5736 44.2893 17.777 44.2871 18.9804C44.2847 20.3503 44.2835 21.7202 44.2824 23.0901C44.2801 25.9083 44.2763 28.7265 44.2714 31.5448C44.3605 31.5517 44.4496 31.5586 44.5415 31.5658C44.6587 31.5753 44.7759 31.5848 44.8967 31.5946C45.0127 31.6038 45.1288 31.6131 45.2484 31.6226C47.0564 31.8124 48.8701 32.8613 50.2592 34.0184C50.3358 34.0804 50.4125 34.1425 50.4914 34.2064C52.3985 35.8284 53.7887 38.4522 54.0696 40.9896C54.2239 43.3107 54.0785 45.4 53.0898 47.511C53.0431 47.612 52.9964 47.713 52.9482 47.8171C51.671 50.3996 49.4425 52.316 46.8077 53.2805C46.4359 53.3955 46.0652 53.494 45.6867 53.5826C45.5848 53.6079 45.4829 53.6331 45.378 53.6591C42.9591 54.1699 40.4589 53.7299 38.2836 52.5707C38.1649 52.5079 38.0461 52.4452 37.9238 52.3805C37.1495 51.942 36.5189 51.4071 35.8885 50.7717C35.7942 50.6789 35.6999 50.5862 35.6027 50.4906C35.5174 50.3978 35.432 50.3051 35.3441 50.2095C35.2797 50.1424 35.2153 50.0753 35.1489 50.0061C33.2695 47.96 32.4362 45.1111 32.4697 42.3383C32.5521 39.6024 33.5467 37.2266 35.2353 35.1428C35.3292 35.0646 35.4232 34.9863 35.52 34.9058C35.8821 34.4522 35.8551 34.1154 35.847 33.5443C35.8477 33.4396 35.8484 33.3349 35.8491 33.227C35.8507 32.876 35.8484 32.5252 35.8462 32.1742C35.8466 31.9226 35.8472 31.6711 35.8481 31.4195C35.8494 30.8777 35.849 30.3359 35.8473 29.7941C35.8447 28.9376 35.8459 28.0811 35.8477 27.2245C35.8499 26.0238 35.8503 24.8231 35.8492 23.6224C35.8492 23.5462 35.8491 23.4701 35.849 23.3916C35.8489 23.2374 35.8488 23.0832 35.8486 22.9291C35.8485 22.8527 35.8485 22.7762 35.8484 22.6975C35.8483 22.621 35.8483 22.5445 35.8482 22.4657C35.8475 21.6163 35.8472 20.7669 35.8472 19.9175C35.8472 19.8415 35.8472 19.7654 35.8472 19.6871C35.8472 18.4188 35.8485 17.1505 35.8506 15.8822C35.8518 15.0306 35.8514 14.1789 35.8495 13.3273C35.8486 12.7977 35.8491 12.268 35.8499 11.7384C35.85 11.4926 35.8495 11.2469 35.8484 11.0011C35.847 10.6658 35.8476 10.3306 35.8487 9.99526C35.8478 9.89787 35.8469 9.80047 35.846 9.70011C35.8503 9.13983 35.9156 8.75651 36.2151 8.27005C36.5611 8.00084 36.8972 8.01614 37.321 8.01429ZM37.7393 9.95663C37.7393 17.5631 37.7393 25.1695 37.7393 33.0065C38.0371 32.8834 38.3344 32.759 38.6289 32.6279C39.8649 32.09 41.0975 31.7725 42.4206 31.5448C42.4206 24.4207 42.4206 17.2966 42.4206 9.95663C40.8758 9.95663 39.3309 9.95663 37.7393 9.95663ZM37.5215 35.5925C37.4502 35.6485 37.3789 35.7044 37.3055 35.7621C35.7071 37.0761 34.7521 39.2248 34.409 41.2575C34.1281 43.8152 34.6891 46.3122 36.2416 48.3645C37.7792 50.2967 39.9005 51.5657 42.3118 51.8961C44.7118 52.0572 47.1683 51.4777 49.0268 49.8217C50.337 48.6014 51.3223 47.2278 51.8923 45.4871C51.9269 45.3848 51.9616 45.2824 51.9973 45.177C52.6617 42.8055 52.2575 40.284 51.1451 38.1483C49.9042 35.8624 47.9736 34.3864 45.5574 33.653C42.667 32.909 39.8034 33.6286 37.5215 35.5925Z" fill="white"/>
<path d="M13.2804 16.77C13.4203 16.7686 13.5602 16.7672 13.7043 16.7657C13.8567 16.7659 14.009 16.7662 14.1614 16.7667C14.3181 16.7662 14.4749 16.7656 14.6316 16.7649C14.9599 16.7639 15.2881 16.7642 15.6164 16.7653C16.0364 16.7666 16.4564 16.7643 16.8764 16.761C17.2 16.759 17.5236 16.759 17.8473 16.7596C18.0021 16.7596 18.1569 16.759 18.3118 16.7576C18.5285 16.7559 18.7453 16.7574 18.962 16.759C19.0852 16.759 19.2084 16.7591 19.3354 16.7591C19.7392 16.8278 19.92 16.9737 20.2109 17.2652C20.3768 17.608 20.3359 17.9653 20.3358 18.3414C20.3362 18.4303 20.3366 18.5192 20.337 18.6107C20.3382 18.9102 20.3386 19.2096 20.339 19.509C20.3397 19.7231 20.3404 19.9371 20.3412 20.1511C20.3431 20.7338 20.3442 21.3164 20.3451 21.899C20.3457 22.2628 20.3464 22.6266 20.347 22.9904C20.3491 24.1278 20.3507 25.2653 20.3516 26.4028C20.3526 27.7171 20.3555 29.0314 20.3599 30.3457C20.3632 31.3608 20.3648 32.3758 20.3652 33.3909C20.3654 33.9976 20.3664 34.6042 20.3691 35.2108C20.3717 35.7815 20.3721 36.352 20.371 36.9227C20.3709 37.1322 20.3716 37.3418 20.3731 37.5513C20.375 37.8372 20.3743 38.123 20.3729 38.4089C20.374 38.492 20.3752 38.575 20.3765 38.6606C20.3699 39.2052 20.2594 39.4832 19.8843 39.8653C19.5834 40.0206 19.3375 39.9946 19.0009 39.9976C18.861 39.9991 18.721 40.0005 18.5769 40.002C18.4234 40.0029 18.2699 40.0037 18.1164 40.0045C18.0392 40.005 17.962 40.0054 17.8825 40.0059C17.4739 40.0082 17.0652 40.0098 16.6566 40.0109C16.2349 40.0121 15.8132 40.016 15.3914 40.0205C15.0669 40.0234 14.7423 40.0243 14.4178 40.0248C14.2623 40.0253 14.1069 40.0266 13.9515 40.0287C13.7337 40.0314 13.5158 40.0311 13.298 40.0305C13.1741 40.0312 13.0503 40.0319 12.9227 40.0325C12.5121 39.9649 12.3334 39.834 12.0457 39.528C11.892 39.1072 11.9213 38.6603 11.9223 38.2169C11.922 38.1296 11.9218 38.0424 11.9215 37.9525C11.9208 37.66 11.9209 37.3675 11.921 37.075C11.9207 36.8654 11.9203 36.6557 11.9199 36.4461C11.9189 35.8765 11.9187 35.3069 11.9186 34.7372C11.9185 34.2619 11.9181 33.7866 11.9177 33.3113C11.9168 32.1901 11.9166 31.069 11.9166 29.9478C11.9167 28.7906 11.9156 27.6334 11.9138 26.4762C11.9124 25.4832 11.9118 24.4901 11.9119 23.497C11.9119 22.9036 11.9116 22.3103 11.9105 21.717C11.9094 21.1591 11.9094 20.6013 11.9102 20.0434C11.9103 19.8386 11.9101 19.6337 11.9094 19.4289C11.9086 19.1494 11.9091 18.87 11.9099 18.5906C11.9093 18.5094 11.9088 18.4282 11.9082 18.3446C11.9119 17.7923 11.9623 17.358 12.3428 16.9518C12.6694 16.7717 12.9106 16.7718 13.2804 16.77ZM13.7876 18.7269C13.7876 25.1089 13.7876 31.4909 13.7876 38.0663C15.3325 38.0663 16.8773 38.0663 18.469 38.0663C18.469 31.6843 18.469 25.3023 18.469 18.7269C16.9241 18.7269 15.3793 18.7269 13.7876 18.7269Z" fill="white"/>
<path d="M40.7806 0.286705C41.2975 1.0632 40.9121 2.22457 40.756 3.09774C40.7126 3.34385 40.6723 3.59039 40.632 3.83707C40.6042 3.99515 40.5762 4.1532 40.548 4.3112C40.5235 4.45327 40.499 4.59534 40.4737 4.74171C40.3308 5.18759 40.1587 5.39018 39.8076 5.68374C39.394 5.76383 39.2157 5.71889 38.8482 5.50805C38.4788 5.08289 38.5012 4.66056 38.5012 4.1096C37.7617 4.87072 37.0225 5.63214 36.2837 6.39396C35.9406 6.74776 35.5973 7.10146 35.2539 7.45491C34.9218 7.79658 34.5901 8.13853 34.2585 8.48067C34.1325 8.61058 34.0065 8.74039 33.8803 8.8701C33.2813 9.48593 32.6896 10.1019 32.1401 10.766C31.8382 11.123 31.5128 11.4556 31.1878 11.7901C31.1169 11.8634 31.046 11.9368 30.973 12.0123C30.8248 12.1654 30.6765 12.3184 30.5281 12.4712C30.3003 12.7059 30.073 12.9411 29.8459 13.1765C29.7012 13.3258 29.5566 13.475 29.4119 13.6242C29.344 13.6946 29.276 13.765 29.206 13.8375C28.728 14.3285 28.728 14.3285 28.4852 14.4539C27.7647 14.4475 27.0959 14.235 26.418 14.0042C26.3138 13.9695 26.2096 13.9348 26.1023 13.8991C25.8774 13.8242 25.6526 13.7487 25.4279 13.6729C25.0714 13.5528 24.7144 13.4344 24.3572 13.3163C23.1901 12.9292 22.0268 12.533 20.8694 12.1162C20.3534 11.9306 19.8365 11.7481 19.3195 11.5657C19.071 11.4769 18.8229 11.3865 18.5755 11.2945C18.2291 11.1657 17.8813 11.0424 17.5328 10.92C17.4307 10.8804 17.3287 10.8408 17.2235 10.8001C16.6836 10.6106 16.6836 10.6106 16.1515 10.753C15.9279 10.9246 15.7309 11.1069 15.5298 11.3056C15.3949 11.4121 15.2589 11.5169 15.1211 11.6192C14.3175 12.2365 13.5255 12.8652 12.7458 13.5143C12.2675 13.9123 11.7841 14.3022 11.2962 14.6877C10.7935 15.0851 10.2933 15.4859 9.79372 15.8875C9.7108 15.9542 9.62789 16.0208 9.54246 16.0895C9.37283 16.2259 9.20321 16.3623 9.0336 16.4987C8.54217 16.8938 8.05051 17.2886 7.55882 17.6834C7.12991 18.0279 6.70124 18.3726 6.2729 18.7178C6.18344 18.7898 6.09397 18.8619 6.00179 18.9361C5.82991 19.0745 5.6581 19.213 5.48636 19.3516C5.37048 19.4448 5.37048 19.4448 5.25225 19.54C5.18434 19.5947 5.11642 19.6495 5.04645 19.7059C4.62607 20.034 4.40912 20.1413 3.88075 20.0758C3.47273 19.8417 3.35875 19.7054 3.22754 19.2396C3.22754 18.7718 3.28685 18.6478 3.55415 18.2768C3.80399 18.0489 4.07204 17.8509 4.34345 17.6514C4.50139 17.5323 4.65916 17.413 4.81678 17.2934C4.89679 17.2329 4.9768 17.1723 5.05923 17.1099C5.42439 16.8288 5.77892 16.5347 6.13299 16.2389C6.67954 15.7836 7.23006 15.3354 7.78772 14.8947C8.29046 14.4973 8.79064 14.0966 9.2902 13.695C9.3728 13.6285 9.4554 13.5621 9.5405 13.4937C9.7098 13.3576 9.87911 13.2214 10.0484 13.0853C10.3026 12.8809 10.557 12.6767 10.8114 12.4726C11.8319 11.6539 11.8319 11.6539 12.8485 10.83C13.0936 10.6306 13.3393 10.4321 13.5851 10.2336C13.7313 10.1148 13.8771 9.99534 14.0226 9.87552C14.2701 9.67174 14.5188 9.46964 14.7677 9.2677C14.8831 9.1717 14.8831 9.1717 15.0008 9.07376C15.1111 8.98497 15.1111 8.98497 15.2236 8.89437C15.288 8.8416 15.3524 8.78882 15.4188 8.73445C15.8602 8.47884 16.2016 8.4737 16.6911 8.58756C16.8427 8.63691 16.9938 8.68791 17.1445 8.74021C17.2282 8.76794 17.3119 8.79567 17.3982 8.82424C17.6763 8.91677 17.9537 9.01141 18.2311 9.10607C18.427 9.17171 18.6229 9.23721 18.8189 9.30259C19.3512 9.48062 19.8829 9.66053 20.4145 9.84086C21.0052 10.041 21.5963 10.2397 22.1874 10.4386C22.9996 10.7121 23.8116 10.9862 24.6232 11.2615C25.0247 11.3974 25.4265 11.5323 25.8284 11.667C26.0658 11.7472 26.3027 11.829 26.5394 11.9113C26.6645 11.9536 26.7896 11.9959 26.9185 12.0396C27.0212 12.0751 27.1239 12.1106 27.2297 12.1471C27.551 12.2148 27.7352 12.1856 28.0497 12.0927C28.2654 11.9356 28.2654 11.9356 28.4582 11.7249C28.535 11.6462 28.6118 11.5675 28.6909 11.4865C28.7735 11.3996 28.856 11.3128 28.941 11.2233C29.0292 11.1322 29.1175 11.0412 29.2083 10.9474C29.4998 10.6461 29.7897 10.3432 30.0796 10.0403C30.2813 9.83111 30.4831 9.62203 30.685 9.41306C31.162 8.91898 31.638 8.42377 32.1135 7.92814C32.655 7.36385 33.1978 6.80083 33.7406 6.23792C34.8571 5.08015 35.972 3.92077 37.0859 2.76034C37.0045 2.77107 36.9231 2.7818 36.8392 2.79285C36.732 2.80531 36.6248 2.81778 36.5143 2.83062C36.4082 2.84366 36.3021 2.85671 36.1928 2.87015C35.8702 2.87294 35.7194 2.82933 35.4529 2.64791C35.2025 2.28591 35.1749 1.95916 35.2351 1.52352C35.6398 0.995561 36.0441 0.838625 36.6632 0.709666C36.7476 0.690496 36.832 0.671326 36.919 0.651575C37.0968 0.611604 37.2749 0.572633 37.4532 0.534612C37.7243 0.47669 37.9947 0.415694 38.2652 0.354124C38.4388 0.31551 38.6124 0.277074 38.7861 0.238831C38.8662 0.220919 38.9463 0.203007 39.0288 0.184552C40.2642 -0.0764435 40.2642 -0.0764435 40.7806 0.286705Z" fill="white"/>
<path d="M25.144 19.606C25.2145 19.6052 25.285 19.6045 25.3576 19.6037C25.5911 19.6015 25.8247 19.6002 26.0582 19.5991C26.1379 19.5986 26.2177 19.5982 26.2998 19.5977C26.7217 19.5954 27.1436 19.5938 27.5656 19.5927C28.0015 19.5915 28.4373 19.5876 28.8732 19.5831C29.2083 19.5802 29.5434 19.5792 29.8786 19.5788C30.0392 19.5783 30.1999 19.577 30.3606 19.5749C30.5856 19.5722 30.8103 19.5723 31.0353 19.573C31.1633 19.5724 31.2912 19.5717 31.4231 19.571C31.8187 19.6372 31.9418 19.7552 32.1863 20.0756C32.3436 20.4006 32.31 20.682 32.3112 21.0452C32.3116 21.1226 32.312 21.1999 32.3125 21.2797C32.3137 21.5403 32.3141 21.8009 32.3145 22.0615C32.3152 22.2478 32.3159 22.4341 32.3167 22.6204C32.3186 23.1276 32.3197 23.6347 32.3206 24.1419C32.3212 24.4586 32.3218 24.7752 32.3225 25.0919C32.3246 26.0823 32.3261 27.0727 32.327 28.0631C32.3281 29.2072 32.331 30.3513 32.3354 31.4954C32.3386 32.3791 32.3403 33.2629 32.3406 34.1466C32.3409 34.6747 32.3419 35.2028 32.3446 35.7309C32.3471 36.2277 32.3476 36.7244 32.3465 37.2213C32.3464 37.4036 32.3471 37.5859 32.3486 37.7683C32.3505 38.0173 32.3498 38.2661 32.3483 38.5151C32.3486 38.6544 32.3488 38.7937 32.3491 38.9373C32.2852 39.3707 32.1548 39.5556 31.8597 39.8648C31.5589 40.0201 31.313 39.9941 30.9763 39.9971C30.8364 39.9985 30.6965 40 30.5524 40.0015C30.3989 40.0024 30.2454 40.0032 30.0919 40.004C30.0147 40.0044 29.9375 40.0049 29.858 40.0054C29.4493 40.0077 29.0407 40.0093 28.6321 40.0104C28.2103 40.0116 27.7886 40.0155 27.3669 40.02C27.0423 40.0229 26.7178 40.0238 26.3932 40.0242C26.2378 40.0248 26.0824 40.0261 25.9269 40.0282C25.7091 40.0309 25.4913 40.0306 25.2734 40.03C25.1496 40.0307 25.0257 40.0314 24.8981 40.032C24.4876 39.9644 24.3089 39.8335 24.0212 39.5274C23.8824 39.1337 23.898 38.7399 23.897 38.3246C23.8967 38.249 23.8963 38.1734 23.896 38.0955C23.8951 37.8424 23.8949 37.5892 23.8947 37.3361C23.8942 37.1545 23.8937 36.9729 23.8931 36.7914C23.8917 36.2982 23.891 35.805 23.8905 35.3118C23.8902 35.0035 23.8897 34.6953 23.8892 34.3871C23.8877 33.4225 23.8867 32.458 23.8863 31.4934C23.8858 30.3803 23.8839 29.2673 23.8807 28.1543C23.8784 27.2936 23.8773 26.433 23.8771 25.5723C23.877 25.0584 23.8764 24.5446 23.8744 24.0307C23.8726 23.5472 23.8724 23.0637 23.8733 22.5802C23.8734 22.403 23.873 22.2258 23.8719 22.0487C23.8705 21.8062 23.8711 21.5638 23.8723 21.3213C23.872 21.1181 23.872 21.1181 23.8718 20.9107C23.9203 20.4492 24.034 20.1504 24.2389 19.7383C24.5449 19.5803 24.8017 19.6089 25.144 19.606ZM25.7631 21.5373C25.7631 26.9917 25.7631 32.4461 25.7631 38.0657C27.3079 38.0657 28.8528 38.0657 30.4444 38.0657C30.4444 32.6114 30.4444 27.157 30.4444 21.5373C28.8996 21.5373 27.3547 21.5373 25.7631 21.5373Z" fill="white"/>
<path d="M1.38138 25.0049C1.51691 25.0038 1.65245 25.0027 1.79209 25.0016C1.94021 25.0011 2.08832 25.0006 2.23644 25.0002C2.38844 24.9995 2.54045 24.9989 2.69245 24.9982C3.01111 24.997 3.32978 24.9964 3.64844 24.996C4.05614 24.9954 4.4638 24.9927 4.87149 24.9895C5.18549 24.9874 5.49949 24.9868 5.8135 24.9866C5.96377 24.9863 6.11404 24.9854 6.2643 24.9839C6.47481 24.982 6.68534 24.9824 6.89586 24.9829C7.07534 24.9823 7.07534 24.9823 7.25844 24.9817C7.63142 25.0293 7.83023 25.1234 8.12644 25.3603C8.33495 25.7047 8.37179 25.9699 8.37329 26.3726C8.37422 26.4859 8.37515 26.5993 8.3761 26.716C8.376 26.8397 8.37591 26.9634 8.3758 27.0908C8.37653 27.2216 8.37727 27.3523 8.37802 27.487C8.38009 27.9199 8.38051 28.3528 8.38075 28.7857C8.38127 29.0103 8.38179 29.2349 8.38237 29.4595C8.38414 30.1656 8.38468 30.8717 8.38452 31.5778C8.38439 32.3058 8.38669 33.0337 8.39013 33.7617C8.39298 34.3872 8.39414 35.0126 8.394 35.6381C8.39395 36.0115 8.39477 36.3848 8.39687 36.7582C8.399 37.1746 8.39838 37.591 8.39707 38.0074C8.39829 38.1308 8.39951 38.2543 8.40077 38.3815C8.39406 39.2173 8.39406 39.2173 8.13674 39.6577C7.7578 40.0019 7.52325 39.9927 7.02528 39.9972C6.88537 39.9986 6.74547 40.0001 6.60133 40.0016C6.44783 40.0025 6.29434 40.0033 6.14085 40.0041C6.06365 40.0045 5.98646 40.005 5.90693 40.0055C5.49829 40.0078 5.08966 40.0094 4.68103 40.0105C4.25928 40.0117 3.83759 40.0156 3.41587 40.0201C3.09131 40.023 2.76676 40.0239 2.44219 40.0243C2.28675 40.0249 2.13132 40.0262 1.97589 40.0283C1.75808 40.031 1.54023 40.0306 1.3224 40.0301C1.19855 40.0308 1.0747 40.0315 0.9471 40.0321C0.506447 39.9595 0.349249 39.8935 0.0701075 39.5275C-0.0110478 39.0868 -0.00191815 38.6512 0.0031274 38.2038C0.00252328 38.0684 0.00191916 37.9331 0.00129674 37.7937C0.000231172 37.4228 0.0016022 37.0522 0.00415839 36.6814C0.00634825 36.2932 0.0057075 35.9051 0.0054531 35.5169C0.00545893 34.8651 0.00760941 34.2133 0.0111012 33.5615C0.0151177 32.8081 0.0160739 32.0547 0.0153148 31.3013C0.0146282 30.5763 0.0157995 29.8513 0.0179238 29.1264C0.0188134 28.8179 0.0191088 28.5095 0.0189372 28.2011C0.0188236 27.7704 0.0214563 27.3397 0.0243909 26.909C0.0240719 26.7809 0.0237528 26.6529 0.0234241 26.521C0.0246598 26.4037 0.0258954 26.2864 0.0271685 26.1656C0.0275744 26.0637 0.0279804 25.9619 0.0283986 25.857C0.0788876 25.528 0.175103 25.3749 0.396715 25.1354C0.749846 25.0139 1.00981 25.0073 1.38138 25.0049ZM1.81202 26.9345C1.81202 30.6078 1.81202 34.2812 1.81202 38.0658C3.35687 38.0658 4.90173 38.0658 6.4934 38.0658C6.4934 34.3925 6.4934 30.7191 6.4934 26.9345C4.94854 26.9345 3.40369 26.9345 1.81202 26.9345Z" fill="white"/>
<path d="M43.7269 35.2551C43.9843 35.465 44.1254 35.6285 44.2712 35.9297C44.2858 36.2302 44.2759 36.5282 44.2712 36.8292C44.3723 36.8316 44.4733 36.8339 44.5774 36.8363C45.3886 36.9589 46.131 37.5403 46.6187 38.1996C47.0077 38.785 47.216 39.2598 47.1018 39.9775C46.8794 40.3221 46.7272 40.4072 46.3465 40.5327C45.9208 40.5416 45.7944 40.4882 45.4688 40.2024C45.3612 40.0383 45.2572 39.8717 45.1558 39.7034C44.8622 39.2344 44.5901 38.8917 44.0535 38.7407C43.2494 38.6302 42.6007 38.6524 41.9292 39.147C41.6155 39.4489 41.5501 39.6339 41.5086 40.0759C41.5206 40.3961 41.5553 40.5523 41.6924 40.8489C42.3105 41.3834 43.0946 41.5364 43.8671 41.7085C45.2013 42.0075 46.3187 42.459 47.1018 43.688C47.4866 44.5418 47.5544 45.4322 47.3127 46.3373C46.944 47.3401 46.2689 47.8434 45.348 48.2843C44.977 48.4329 44.6671 48.5042 44.2712 48.5228C44.2779 48.6411 44.2847 48.7593 44.2916 48.8812C44.27 49.3351 44.216 49.5217 43.9446 49.8721C43.6678 50.0889 43.5327 50.098 43.1825 50.0829C42.7896 49.9645 42.6445 49.8907 42.4204 49.5347C42.3852 49.194 42.395 48.864 42.4204 48.5228C42.2116 48.488 42.2116 48.488 41.9986 48.4525C40.9231 48.2024 40.1557 47.556 39.5626 46.6219C39.2584 46.0722 39.1485 45.5531 39.2632 44.9248C39.4265 44.6367 39.4265 44.6367 39.6987 44.475C40.1244 44.3894 40.4492 44.3921 40.8146 44.6437C40.979 44.8862 41.0945 45.1085 41.2161 45.3745C41.4974 45.9769 41.8537 46.2395 42.4544 46.4708C43.4032 46.763 44.153 46.606 45.0333 46.1616C45.3484 45.9334 45.3484 45.9334 45.4688 45.5994C45.5114 45.1186 45.419 44.7926 45.1626 44.3907C44.4771 43.891 43.6635 43.7225 42.856 43.5311C41.4784 43.2004 40.4776 42.7038 39.7123 41.4392C39.4146 40.6255 39.4514 39.5302 39.7735 38.7337C40.2302 37.8622 40.7919 37.3655 41.6583 36.9417C41.9242 36.8672 42.1436 36.8417 42.4204 36.8292C42.4141 36.7533 42.4078 36.6773 42.4013 36.5991C42.3613 35.7826 42.3613 35.7826 42.645 35.4097C43.0437 35.217 43.2914 35.1897 43.7269 35.2551Z" fill="white"/>
</svg>
