<svg width="45" height="52" viewBox="0 0 45 52" fill="none" xmlns="http://www.w3.org/2000/svg">
<path d="M13.7665 0.0132497C13.8639 0.012392 13.9613 0.0115342 14.0616 0.0106505C14.384 0.00838825 14.7063 0.00906669 15.0286 0.00996844C15.2525 0.00944746 15.4763 0.00882272 15.7002 0.0080984C16.1695 0.0070614 16.6389 0.00751846 17.1082 0.0089719C17.71 0.0106828 18.3118 0.0083448 18.9136 0.00484133C19.3759 0.00265605 19.8382 0.00279662 20.3006 0.00362328C20.5225 0.00370501 20.7444 0.00301909 20.9663 0.00155538C21.2764 -0.000176874 21.5865 0.00126278 21.8966 0.00352739C21.9885 0.00236335 22.0803 0.00119931 22.1749 0C22.5905 0.0061801 22.8019 0.0174356 23.1492 0.284801C23.3379 0.5963 23.3738 0.744009 23.3698 1.11416C23.3698 1.22175 23.3698 1.32935 23.3697 1.4402C23.3674 1.55523 23.365 1.67026 23.3626 1.78877C23.362 1.90739 23.3614 2.02601 23.3607 2.14823C23.3582 2.52665 23.3525 2.90491 23.3467 3.28329C23.3444 3.54002 23.3424 3.79675 23.3405 4.05349C23.3355 4.68244 23.3279 5.31131 23.3184 5.94021C23.3901 5.93916 23.4618 5.93812 23.5357 5.93705C23.8615 5.9329 24.1873 5.93031 24.5131 5.92776C24.626 5.92609 24.7389 5.92442 24.8551 5.92271C24.964 5.92206 25.0729 5.92142 25.1851 5.92076C25.3353 5.9192 25.3353 5.9192 25.4885 5.9176C25.7732 5.94093 25.9656 5.99313 26.2174 6.13932C26.4413 6.50832 26.421 6.69091 26.4204 7.13155C26.4206 7.23804 26.4206 7.23804 26.4209 7.34668C26.4212 7.58516 26.4202 7.82361 26.4192 8.06208C26.4191 8.23279 26.4192 8.4035 26.4193 8.57421C26.4193 9.03823 26.4183 9.50225 26.417 9.96626C26.4159 10.451 26.4158 10.9357 26.4155 11.4204C26.415 12.3385 26.4135 13.2567 26.4117 14.1748C26.4096 15.22 26.4087 16.2651 26.4077 17.3103C26.4058 19.4605 26.4026 21.6107 26.3986 23.7609C27.146 23.7609 27.8934 23.7609 28.6635 23.7609C28.6593 23.5571 28.6551 23.3533 28.6508 23.1433C28.6482 22.9453 28.6457 22.7472 28.6436 22.5492C28.6418 22.4119 28.6393 22.2746 28.6362 22.1373C28.6318 21.9396 28.6299 21.7419 28.6281 21.5442C28.6262 21.4253 28.6243 21.3064 28.6224 21.184C28.6718 20.8113 28.7564 20.7003 29.0259 20.4755C29.299 20.3754 29.4826 20.3656 29.7676 20.3697C29.8493 20.3706 29.9309 20.3715 30.015 20.3724C30.1084 20.3742 30.1084 20.3742 30.2036 20.3759C30.1994 20.2943 30.1952 20.2127 30.1909 20.1286C30.1876 20.0213 30.1843 19.914 30.181 19.8035C30.1768 19.6972 30.1726 19.591 30.1682 19.4815C30.2036 19.1813 30.2036 19.1813 30.3668 18.9491C30.6457 18.7166 30.8528 18.6902 31.2002 18.6835C31.4608 18.8044 31.6038 18.8965 31.7554 19.1599C31.8493 19.4223 31.8524 19.622 31.8456 19.903C31.844 19.9918 31.8424 20.0807 31.8407 20.1722C31.8375 20.273 31.8375 20.273 31.8343 20.3759C31.8879 20.3736 31.9415 20.3713 31.9968 20.3689C32.7544 20.3499 32.7544 20.3499 33.1026 20.575C33.3979 20.9108 33.4067 21.1642 33.401 21.6219C33.4001 21.7464 33.3992 21.8709 33.3983 21.9992C33.396 22.1288 33.3938 22.2584 33.3914 22.392C33.3902 22.5231 33.389 22.6543 33.3877 22.7894C33.3845 23.1133 33.38 23.437 33.3744 23.7609C33.6136 23.7609 33.8528 23.7609 34.0992 23.7609C34.0989 23.6894 34.0985 23.6179 34.0982 23.5443C34.0902 21.8061 34.0842 20.0679 34.0804 18.3296C34.0785 17.4891 34.076 16.6485 34.0719 15.8079C34.0682 15.0753 34.0659 14.3427 34.0651 13.6102C34.0646 13.2222 34.0635 12.8342 34.0609 12.4463C34.0584 12.0812 34.0577 11.7161 34.0582 11.351C34.0581 11.153 34.0561 10.955 34.0541 10.757C34.0546 10.6392 34.0551 10.5213 34.0556 10.3999C34.0553 10.2975 34.0549 10.1951 34.0546 10.0896C34.1109 9.75268 34.2219 9.63645 34.4616 9.42469C34.708 9.32361 34.9347 9.31324 35.1962 9.31541C35.2646 9.31573 35.3329 9.31605 35.4033 9.31639C35.4737 9.31722 35.5441 9.31805 35.6167 9.31891C35.6885 9.31936 35.7603 9.31981 35.8343 9.32027C36.0109 9.32144 36.1875 9.32323 36.3641 9.32514C36.3626 9.24631 36.3612 9.16749 36.3597 9.08628C36.3541 8.72827 36.3506 8.37027 36.3471 8.01223C36.3437 7.82618 36.3437 7.82618 36.3402 7.63636C36.3393 7.51669 36.3384 7.39702 36.3375 7.27372C36.3361 7.16371 36.3347 7.05371 36.3332 6.94037C36.3685 6.59334 36.4414 6.41389 36.6358 6.13932C36.9233 5.9391 37.1511 5.91466 37.4881 5.91286C37.5861 5.91191 37.6841 5.91096 37.785 5.90999C37.9432 5.91012 37.9432 5.91012 38.1045 5.91026C38.2133 5.90983 38.3221 5.90941 38.4342 5.90897C38.6643 5.9084 38.8944 5.90835 39.1246 5.90878C39.4763 5.90909 39.8279 5.90676 40.1797 5.90423C40.4033 5.90401 40.627 5.90394 40.8506 5.90404C40.9557 5.90312 41.0607 5.9022 41.169 5.90126C42.0944 5.90708 42.0944 5.90708 42.5245 6.23888C42.6545 6.52462 42.6252 6.77005 42.624 7.089C42.6237 7.21862 42.6234 7.34823 42.6231 7.48178C42.6223 7.61919 42.6216 7.7566 42.6208 7.89401C42.6203 8.03219 42.6199 8.17038 42.6195 8.30857C42.6185 8.64743 42.617 8.98628 42.6151 9.32514C42.7276 9.32283 42.84 9.32051 42.9559 9.31814C43.1047 9.31627 43.2534 9.31446 43.4022 9.31269C43.4761 9.31102 43.5501 9.30935 43.6263 9.30764C44.3547 9.30115 44.3547 9.30115 44.6988 9.52425C45.0015 9.86574 45.0046 10.1362 45.0048 10.6029C45.0052 10.6716 45.0056 10.7403 45.006 10.8111C45.007 11.0425 45.006 11.2739 45.0051 11.5053C45.0054 11.6724 45.0058 11.8395 45.0064 12.0067C45.0075 12.4668 45.007 12.9269 45.0061 13.387C45.0055 13.8829 45.0064 14.3788 45.0072 14.8747C45.0084 15.8465 45.0081 16.8184 45.0074 17.7902C45.0067 18.5799 45.0067 19.3695 45.007 20.1592C45.007 20.2714 45.007 20.3837 45.0071 20.4994C45.0072 20.7274 45.0073 20.9554 45.0073 21.1835C45.0081 23.3234 45.0072 25.4632 45.0058 27.6031C45.0046 29.4403 45.0048 31.2774 45.006 33.1146C45.0075 35.2465 45.008 37.3784 45.0072 39.5103C45.0071 39.7376 45.007 39.9648 45.007 40.192C45.0069 40.3039 45.0069 40.4157 45.0068 40.5309C45.0066 41.3198 45.007 42.1087 45.0076 42.8975C45.0084 43.8587 45.0082 44.8198 45.0067 45.781C45.006 46.2716 45.0057 46.7622 45.0066 47.2529C45.0074 47.7017 45.007 48.1505 45.0056 48.5994C45.0052 48.762 45.0054 48.9247 45.0061 49.0874C45.0069 49.308 45.006 49.5285 45.0048 49.7491C45.0047 49.9331 45.0047 49.9331 45.0046 50.1209C44.9675 50.4715 44.8908 50.6596 44.6988 50.9399C44.4169 51.0947 44.1181 51.0533 43.8087 51.0525C43.697 51.0528 43.697 51.0528 43.5831 51.0531C43.331 51.0537 43.0789 51.0535 42.8267 51.0534C42.6452 51.0537 42.4637 51.054 42.2822 51.0543C41.7813 51.0551 41.2804 51.0553 40.7795 51.0553C40.2402 51.0555 39.7008 51.0563 39.1614 51.0569C37.9195 51.0584 36.6776 51.059 35.4357 51.0594C34.8223 51.0596 34.2089 51.06 33.5955 51.0604C31.4968 51.0616 29.3981 51.0627 27.2994 51.0631C27.1677 51.0631 27.0359 51.0631 26.9041 51.0631C26.772 51.0632 26.6398 51.0632 26.5077 51.0632C26.2427 51.0632 25.9776 51.0633 25.7126 51.0633C25.614 51.0633 25.614 51.0633 25.5134 51.0634C23.3817 51.0637 21.2499 51.0653 19.1182 51.0676C16.8656 51.0701 14.6131 51.0714 12.3605 51.0716C12.1134 51.0716 11.8663 51.0716 11.6192 51.0716C11.5279 51.0716 11.5279 51.0716 11.4348 51.0716C10.4542 51.0718 9.47353 51.0729 8.49292 51.0743C7.50792 51.0757 6.52292 51.076 5.53792 51.0753C5.00395 51.0749 4.46998 51.075 3.93601 51.0764C3.44772 51.0776 2.95944 51.0775 2.47115 51.0763C2.29398 51.0761 2.11681 51.0764 1.93965 51.0773C1.69981 51.0784 1.46002 51.0776 1.22018 51.0764C1.15055 51.0772 1.08091 51.078 1.00917 51.0787C0.723377 51.0756 0.520269 51.0585 0.26722 50.9064C-0.0421753 50.5432 0.022325 50.0818 0.0227814 49.6158C0.0225123 49.5305 0.0222432 49.4452 0.0219658 49.3574C0.0211779 49.0705 0.0210421 48.7837 0.0209069 48.4969C0.0204877 48.2917 0.0200325 48.0864 0.0195439 47.8812C0.0183542 47.323 0.0177703 46.7647 0.0173681 46.2065C0.0171027 45.8579 0.0167322 45.5093 0.0163272 45.1608C0.0150881 44.0708 0.014212 42.9808 0.0138624 41.8908C0.0134562 40.6315 0.0118646 39.3721 0.00924113 38.1127C0.00728486 37.14 0.00636953 36.1672 0.00624831 35.1945C0.00615322 34.6132 0.00561448 34.0319 0.00399919 33.4505C0.00250974 32.9039 0.00230944 32.3572 0.00310618 31.8105C0.00317617 31.6097 0.00278004 31.4089 0.00188693 31.2082C0.000740201 30.9343 0.00126431 30.6605 0.00221179 30.3867C0.00148192 30.307 0.000751987 30.2273 0 30.1452C0.00366821 29.6928 0.0494568 29.396 0.307289 29.0374C0.557741 28.8998 0.764444 28.9283 1.04337 28.9316C1.14264 28.9325 1.2419 28.9334 1.34418 28.9343C1.45874 28.936 1.45874 28.936 1.57562 28.9378C1.57419 28.856 1.57277 28.7741 1.57131 28.6898C1.56565 28.3183 1.56212 27.9467 1.55863 27.5751C1.55635 27.4463 1.55408 27.3176 1.55173 27.1849C1.55086 27.0607 1.54998 26.9365 1.54908 26.8086C1.54765 26.6944 1.54623 26.5803 1.54476 26.4626C1.57908 26.1151 1.6582 25.9306 1.8474 25.6524C2.08802 25.5202 2.27293 25.538 2.54239 25.5353C2.70386 25.5333 2.70386 25.5333 2.86858 25.5314C3.04382 25.5303 3.04382 25.5303 3.22261 25.5292C3.34214 25.5284 3.46168 25.5276 3.58483 25.5267C3.83813 25.5252 4.09143 25.5243 4.34473 25.5235C4.66909 25.5224 4.99339 25.519 5.31773 25.515C5.56722 25.5124 5.81668 25.5116 6.06618 25.5112C6.24383 25.5105 6.42148 25.5079 6.59912 25.5052C6.76144 25.5057 6.76144 25.5056 6.92704 25.5061C7.02226 25.5055 7.11747 25.5049 7.21557 25.5043C7.52897 25.5655 7.63553 25.676 7.82667 25.9511C7.86781 26.2705 7.86781 26.2705 7.86206 26.6433C7.86154 26.7091 7.86103 26.7748 7.8605 26.8425C7.85848 27.0515 7.85393 27.2604 7.84932 27.4694C7.8475 27.6114 7.84584 27.7535 7.84436 27.8956C7.84068 28.2431 7.83359 28.5903 7.82667 28.9378C8.30501 28.9378 8.78335 28.9378 9.27619 28.9378C9.27594 28.8246 9.27568 28.7113 9.27543 28.5946C9.26939 25.8393 9.26493 23.0841 9.2621 20.3288C9.26182 20.0637 9.26154 19.7985 9.26126 19.5333C9.26118 19.4674 9.26111 19.4014 9.26104 19.3335C9.25993 18.3329 9.25802 17.3323 9.25568 16.3316C9.25297 15.1704 9.25122 14.0091 9.25061 12.8478C9.25026 12.2329 9.24943 11.618 9.24745 11.003C9.24561 10.4242 9.24504 9.84547 9.24544 9.26668C9.24537 9.05426 9.24483 8.84183 9.24379 8.62941C9.24243 8.33928 9.24276 8.04921 9.2435 7.75908C9.24271 7.67512 9.24192 7.59115 9.2411 7.50464C9.24475 6.97694 9.3191 6.60645 9.54797 6.13932C9.8808 5.91146 10.1946 5.91674 10.5803 5.92076C10.6892 5.9214 10.7981 5.92204 10.9103 5.92271C11.0231 5.92437 11.136 5.92604 11.2523 5.92776C11.4242 5.92911 11.4242 5.92911 11.5996 5.93048C11.8821 5.93283 12.1645 5.9361 12.447 5.94021C12.4462 5.87249 12.4454 5.80478 12.4446 5.73501C12.4366 5.0309 12.4311 4.3268 12.4271 3.62264C12.4253 3.35978 12.4228 3.09692 12.4197 2.83406C12.4153 2.45645 12.4132 2.0789 12.4116 1.70127C12.4097 1.58355 12.4079 1.46583 12.406 1.34455C12.4059 1.23495 12.4059 1.12536 12.4059 1.01244C12.4051 0.916049 12.4043 0.81966 12.4034 0.720349C12.447 0.464585 12.447 0.464585 12.571 0.23455C12.95 -0.0328149 13.3252 0.0101343 13.7665 0.0132497ZM14.0777 1.85838C14.0515 3.50244 14.0515 3.50244 14.0262 5.14652C14.0228 5.35327 14.0193 5.56001 14.0158 5.76676C14.0143 5.87333 14.0128 5.97991 14.0113 6.08971C14.0026 6.58028 13.9895 7.05103 13.8965 7.53311C12.9494 7.88006 11.9047 7.69568 10.9069 7.73223C10.9069 14.7301 10.9069 21.7279 10.9069 28.9378C11.4151 28.9378 11.9234 28.9378 12.447 28.9378C12.4475 28.699 12.4481 28.4602 12.4486 28.2141C12.4537 25.9682 12.4604 23.7224 12.4684 21.4765C12.4724 20.3217 12.476 19.167 12.4784 18.0122C12.4805 17.006 12.4835 15.9998 12.4877 14.9936C12.4898 14.4605 12.4915 13.9275 12.4921 13.3945C12.4926 12.8932 12.4944 12.3919 12.4972 11.8906C12.498 11.7062 12.4984 11.5219 12.4982 11.3375C12.498 11.0865 12.4995 10.8355 12.5015 10.5845C12.501 10.511 12.5006 10.4375 12.5001 10.3618C12.5064 9.87206 12.5064 9.87206 12.6595 9.63104C12.8889 9.46761 13.0819 9.44257 13.353 9.42469C13.6021 9.48691 13.6021 9.48691 13.8059 9.62381C14.0075 10.038 14.0135 10.4368 14.0123 10.8958C14.0131 11.0117 14.0131 11.0117 14.0139 11.1299C14.0155 11.3884 14.0157 11.6469 14.016 11.9054C14.0168 12.0908 14.0178 12.2763 14.0188 12.4617C14.0212 12.965 14.0226 13.4683 14.0238 13.9716C14.0252 14.4976 14.0276 15.0237 14.0299 15.5497C14.0342 16.5458 14.0375 17.5418 14.0405 18.5379C14.044 19.6719 14.0485 20.8059 14.053 21.9399C14.0624 24.2725 14.0704 26.6052 14.0777 28.9378C14.5561 28.9378 15.0344 28.9378 15.5272 28.9378C15.5278 28.699 15.5283 28.4602 15.5288 28.2141C15.534 25.9682 15.5406 23.7224 15.5486 21.4765C15.5527 20.3217 15.5562 19.167 15.5586 18.0122C15.5607 17.006 15.5637 15.9998 15.5679 14.9936C15.5701 14.4605 15.5718 13.9275 15.5723 13.3945C15.5729 12.8932 15.5747 12.3919 15.5774 11.8906C15.5782 11.7062 15.5786 11.5219 15.5784 11.3375C15.5783 11.0865 15.5798 10.8355 15.5817 10.5845C15.5813 10.511 15.5808 10.4375 15.5804 10.3618C15.5866 9.87206 15.5866 9.87206 15.7397 9.63104C15.9691 9.46761 16.1621 9.44257 16.4332 9.42469C16.6823 9.48691 16.6823 9.48691 16.8862 9.62381C17.0543 9.98966 17.0905 10.2924 17.0926 10.6992C17.0936 10.8147 17.0946 10.9301 17.0956 11.0491C17.0958 11.1748 17.096 11.3006 17.0962 11.4301C17.0971 11.5646 17.098 11.699 17.099 11.8335C17.1015 12.1977 17.1028 12.562 17.104 12.9262C17.1054 13.3072 17.1079 13.6881 17.1102 14.069C17.1144 14.7901 17.1177 15.5111 17.1207 16.2321C17.1242 17.0531 17.1287 17.8742 17.1332 18.6952C17.1426 20.3837 17.1507 22.0723 17.1579 23.7609C17.6363 23.7609 18.1146 23.7609 18.6075 23.7609C18.6083 23.4999 18.6083 23.4999 18.6091 23.2337C18.6142 21.5973 18.6208 19.9609 18.6288 18.3245C18.6329 17.4831 18.6365 16.6418 18.6388 15.8004C18.6409 15.0672 18.6439 14.334 18.6481 13.6008C18.6503 13.2124 18.652 12.8241 18.6525 12.4357C18.6531 12.0704 18.6549 11.7051 18.6577 11.3397C18.6589 11.1413 18.6587 10.943 18.6585 10.7446C18.6602 10.5681 18.6602 10.5681 18.6619 10.388C18.6624 10.2855 18.6628 10.183 18.6632 10.0773C18.6981 9.82292 18.6981 9.82292 18.8199 9.64332C19.0466 9.46327 19.2367 9.44293 19.5134 9.42469C19.7778 9.49734 19.9177 9.5416 20.0681 9.79549C20.1655 10.0732 20.1713 10.2938 20.1728 10.5915C20.1738 10.7076 20.1748 10.8238 20.1759 10.9435C20.1761 11.0705 20.1763 11.1975 20.1765 11.3284C20.1773 11.4638 20.1782 11.5993 20.1792 11.7347C20.1817 12.102 20.1831 12.4693 20.1842 12.8367C20.1857 13.2207 20.1881 13.6047 20.1904 13.9887C20.1946 14.7157 20.198 15.4427 20.201 16.1697C20.2044 16.9975 20.2089 17.8252 20.2135 18.653C20.2228 20.3556 20.2309 22.0582 20.2382 23.7609C20.7165 23.7609 21.1949 23.7609 21.6877 23.7609C21.6885 23.5021 21.6885 23.5021 21.6893 23.2382C21.6945 21.615 21.701 19.9918 21.709 18.3686C21.7131 17.534 21.7167 16.6995 21.7191 15.8649C21.7212 15.1376 21.7242 14.4103 21.7283 13.6829C21.7305 13.2977 21.7322 12.9126 21.7328 12.5274C21.7333 12.1649 21.7351 11.8024 21.7379 11.4399C21.7391 11.2434 21.7389 11.0468 21.7387 10.8502C21.7404 10.6747 21.7404 10.6747 21.7422 10.4957C21.7426 10.394 21.743 10.2924 21.7434 10.1876C21.7838 9.88076 21.8542 9.74471 22.0501 9.52425C22.3531 9.42289 22.5367 9.40763 22.8428 9.49936C23.0466 9.62381 23.0466 9.62381 23.2278 9.92248C23.2515 10.1753 23.2515 10.1753 23.253 10.4838C23.254 10.6006 23.2551 10.7174 23.2561 10.8378C23.2563 10.9662 23.2565 11.0945 23.2567 11.2267C23.2575 11.3631 23.2585 11.4995 23.2594 11.6358C23.2619 12.0063 23.2633 12.3767 23.2645 12.7471C23.2659 13.1342 23.2683 13.5212 23.2706 13.9083C23.2749 14.6413 23.2782 15.3743 23.2812 16.1074C23.2847 16.9419 23.2891 17.7763 23.2937 18.6108C23.3031 20.3275 23.3111 22.0442 23.3184 23.7609C23.7967 23.7609 24.2751 23.7609 24.7679 23.7609C24.7679 18.4714 24.7679 13.182 24.7679 7.73223C23.9009 7.69937 23.0339 7.66652 22.1407 7.63267C21.733 7.18467 21.733 7.18467 21.7288 6.69573C21.7261 6.53208 21.7261 6.53208 21.7234 6.36512C21.7232 6.19406 21.7232 6.19406 21.7231 6.01954C21.7217 5.91426 21.7202 5.80897 21.7188 5.7005C21.714 5.30753 21.7124 4.91452 21.7103 4.52152C21.7029 3.64269 21.6954 2.76385 21.6877 1.85838C19.1764 1.85838 16.6651 1.85838 14.0777 1.85838ZM37.9948 7.73223C37.9948 8.25789 37.9948 8.78355 37.9948 9.32514C38.9813 9.32514 39.9679 9.32514 40.9844 9.32514C40.9844 8.79948 40.9844 8.27382 40.9844 7.73223C39.9978 7.73223 39.0112 7.73223 37.9948 7.73223ZM35.7299 11.1172C35.7299 23.7001 35.7299 36.2831 35.7299 49.2474C38.2412 49.2474 40.7525 49.2474 43.3399 49.2474C43.3399 36.6644 43.3399 24.0814 43.3399 11.1172C40.8286 11.1172 38.3173 11.1172 35.7299 11.1172ZM30.2942 22.168C30.2942 22.6936 30.2942 23.2193 30.2942 23.7609C30.7725 23.7609 31.2509 23.7609 31.7437 23.7609C31.7437 23.2352 31.7437 22.7095 31.7437 22.168C31.2654 22.168 30.787 22.168 30.2942 22.168ZM17.1579 25.5529C17.1579 33.3721 17.1579 41.1913 17.1579 49.2474C17.6363 49.2474 18.1146 49.2474 18.6075 49.2474C18.6077 49.1369 18.6079 49.0265 18.6081 48.9127C18.6134 46.2273 18.6203 43.542 18.6288 40.8566C18.6329 39.558 18.6365 38.2594 18.6388 36.9608C18.6409 35.8292 18.6439 34.6976 18.6481 33.566C18.6503 32.9665 18.652 32.3671 18.6525 31.7677C18.6531 31.2039 18.6549 30.6401 18.6577 30.0763C18.6585 29.869 18.6588 29.6618 18.6586 29.4545C18.6585 29.1721 18.66 28.8898 18.6619 28.6074C18.6615 28.5249 18.6611 28.4424 18.6606 28.3574C18.6644 28.026 18.6765 27.7859 18.824 27.4929C19.0153 27.2988 19.1203 27.2972 19.3775 27.3076C19.4476 27.3089 19.5177 27.3101 19.5898 27.3115C19.7852 27.3449 19.7852 27.3449 20.057 27.544C20.1734 27.928 20.1615 28.291 20.1619 28.6912C20.1626 28.8227 20.1626 28.8227 20.1633 28.9569C20.1647 29.2517 20.1654 29.5466 20.1662 29.8415C20.167 30.0524 20.1679 30.2633 20.1689 30.4743C20.1713 31.0479 20.1732 31.6216 20.1751 32.1952C20.177 32.7943 20.1795 33.3934 20.1819 33.9925C20.1865 35.1275 20.1905 36.2625 20.1944 37.3975C20.1989 38.6894 20.2039 39.9813 20.2089 41.2733C20.2192 43.9313 20.2289 46.5894 20.2382 49.2474C20.7165 49.2474 21.1949 49.2474 21.6877 49.2474C21.6878 49.1369 21.688 49.0265 21.6881 48.9127C21.6914 46.2273 21.6968 43.542 21.7043 40.8566C21.708 39.558 21.7109 38.2594 21.7122 36.9608C21.7134 35.8292 21.7159 34.6976 21.7198 33.566C21.7219 32.9665 21.7233 32.3672 21.7232 31.7677C21.7231 31.2039 21.7247 30.6401 21.7277 30.0763C21.7284 29.869 21.7286 29.6618 21.7281 29.4545C21.7275 29.1721 21.7291 28.8898 21.7313 28.6074C21.7306 28.5249 21.7299 28.4424 21.7291 28.3574C21.7341 27.9948 21.7484 27.7863 21.9511 27.4933C22.1564 27.3326 22.2537 27.2908 22.503 27.2951C22.5628 27.2941 22.6226 27.2931 22.6842 27.292C22.9597 27.3724 23.055 27.4934 23.2278 27.7431C23.2637 28.0433 23.2774 28.3072 23.2748 28.6074C23.2755 28.6956 23.2762 28.7837 23.2769 28.8745C23.2787 29.1705 23.278 29.4664 23.2773 29.7624C23.278 29.9743 23.279 30.1862 23.2801 30.3981C23.2826 30.974 23.2829 31.5499 23.2828 32.1258C23.2831 32.7275 23.2854 33.3291 23.2875 33.9308C23.2912 35.0703 23.2931 36.2099 23.2942 37.3494C23.2957 38.6467 23.2992 39.9439 23.3028 41.2411C23.3103 43.9099 23.3152 46.5786 23.3184 49.2474C23.7967 49.2474 24.2751 49.2474 24.7679 49.2474C24.7682 49.1374 24.7685 49.0275 24.7688 48.9142C24.7762 46.2413 24.7845 43.5684 24.794 40.8955C24.7985 39.603 24.8027 38.3104 24.8061 37.0178C24.8091 35.8914 24.8127 34.7651 24.8171 33.6387C24.8194 33.0421 24.8214 32.4455 24.8226 31.8489C24.8237 31.2876 24.8257 30.7264 24.8284 30.1652C24.8292 29.9589 24.8297 29.7526 24.8299 29.5464C24.8302 29.2653 24.8316 28.9842 24.8333 28.7032C24.8331 28.6211 24.8329 28.5389 24.8328 28.4543C24.8391 27.7475 24.8391 27.7475 25.0397 27.4445C25.2494 27.3293 25.3895 27.3218 25.6229 27.3138C25.7292 27.3082 25.7292 27.3082 25.8377 27.3025C26.0362 27.3449 26.0362 27.3449 26.1823 27.4927C26.3642 27.855 26.3463 28.2041 26.3442 28.6074C26.3448 28.6956 26.3454 28.7837 26.346 28.8745C26.3477 29.1705 26.3474 29.4664 26.3472 29.7624C26.348 29.9743 26.349 30.1862 26.35 30.3981C26.3525 30.974 26.3533 31.5499 26.3539 32.1258C26.3547 32.7275 26.3571 33.3291 26.3593 33.9308C26.3633 35.0703 26.3659 36.2099 26.368 37.3494C26.3704 38.6467 26.3744 39.9439 26.3785 41.2411C26.3869 43.9099 26.3934 46.5786 26.3986 49.2474C26.877 49.2474 27.3553 49.2474 27.8481 49.2474C27.8484 49.138 27.8487 49.0287 27.849 48.916C27.8564 46.2572 27.8647 43.5984 27.8742 40.9396C27.8787 39.6539 27.8829 38.3681 27.8864 37.0823C27.8893 35.9618 27.893 34.8414 27.8973 33.7209C27.8996 33.1274 27.9016 32.534 27.9028 31.9405C27.904 31.3821 27.906 30.8238 27.9086 30.2654C27.9094 30.0603 27.9099 29.8552 27.9101 29.6501C27.9104 29.3703 27.9118 29.0907 27.9135 28.8109C27.9133 28.7295 27.9132 28.648 27.913 28.5641C27.9167 28.1504 27.9367 27.8111 28.1199 27.4445C28.3307 27.3286 28.4685 27.3251 28.7031 27.32C28.774 27.3174 28.8449 27.3149 28.9179 27.3122C29.1676 27.3533 29.2314 27.4305 29.3883 27.6436C29.4155 27.9359 29.4259 28.2072 29.4244 28.4997C29.425 28.5881 29.4256 28.6766 29.4262 28.7678C29.4279 29.0654 29.4277 29.363 29.4274 29.6606C29.4282 29.8735 29.4292 30.0864 29.4302 30.2993C29.4327 30.8783 29.4336 31.4573 29.4341 32.0363C29.435 32.641 29.4373 33.2457 29.4395 33.8504C29.4435 34.9959 29.4461 36.1415 29.4482 37.287C29.4506 38.591 29.4546 39.895 29.4587 41.199C29.4671 43.8818 29.4736 46.5646 29.4789 49.2474C29.9572 49.2474 30.4355 49.2474 30.9284 49.2474C30.9287 49.1387 30.929 49.0299 30.9293 48.9179C30.9366 46.2732 30.945 43.6285 30.9544 40.9837C30.959 39.7048 30.9632 38.4258 30.9666 37.1469C30.9696 36.0322 30.9732 34.9176 30.9775 33.803C30.9798 33.2127 30.9818 32.6224 30.983 32.0322C30.9842 31.4767 30.9862 30.9212 30.9888 30.3657C30.9897 30.1617 30.9902 29.9578 30.9904 29.7538C30.9907 29.4754 30.9921 29.1971 30.9937 28.9187C30.9936 28.8379 30.9934 28.7571 30.9932 28.6739C30.9972 28.2286 31.0338 27.8592 31.2002 27.4445C31.411 27.3286 31.5487 27.3251 31.7834 27.32C31.8542 27.3174 31.9251 27.3149 31.9982 27.3122C32.2478 27.3533 32.3116 27.4305 32.4685 27.6436C32.4957 27.9359 32.5061 28.2072 32.5046 28.4997C32.5052 28.5881 32.5058 28.6766 32.5064 28.7678C32.5081 29.0654 32.5079 29.363 32.5077 29.6606C32.5085 29.8735 32.5094 30.0864 32.5105 30.2993C32.513 30.8783 32.5138 31.4573 32.5143 32.0363C32.5152 32.641 32.5176 33.2457 32.5198 33.8504C32.5237 34.9959 32.5263 36.1415 32.5284 37.287C32.5309 38.591 32.5348 39.895 32.5389 41.199C32.5474 43.8818 32.5538 46.5646 32.5591 49.2474C33.0673 49.2474 33.5756 49.2474 34.0992 49.2474C34.0992 41.4282 34.0992 33.609 34.0992 25.5529C28.5086 25.5529 22.918 25.5529 17.1579 25.5529ZM3.20633 27.3449C3.20633 27.8706 3.20633 28.3962 3.20633 28.9378C4.19291 28.9378 5.17948 28.9378 6.19596 28.9378C6.19596 28.4122 6.19596 27.8865 6.19596 27.3449C5.20938 27.3449 4.2228 27.3449 3.20633 27.3449ZM1.66621 30.7298C1.66621 36.8406 1.66621 42.9514 1.66621 49.2474C4.1775 49.2474 6.6888 49.2474 9.27619 49.2474C9.28284 47.5097 9.28284 47.5097 9.28963 45.7368C9.29284 45.0041 9.29609 44.2714 9.29954 43.5386C9.30502 42.3749 9.31031 41.2112 9.31441 40.0475C9.31739 39.2 9.321 38.3525 9.32536 37.505C9.32765 37.0563 9.32962 36.6075 9.33085 36.1587C9.33201 35.7363 9.33401 35.3139 9.33665 34.8916C9.33747 34.7365 9.33798 34.5815 9.33817 34.4265C9.33847 34.2147 9.33988 34.0031 9.34155 33.7913C9.3423 33.6136 9.3423 33.6136 9.34307 33.4323C9.37536 33.0059 9.45253 32.7263 9.72916 32.4223C9.97107 32.3946 9.97107 32.3946 10.282 32.3906C10.398 32.3886 10.5141 32.3866 10.6337 32.3846C10.7609 32.3834 10.888 32.3822 11.0152 32.3811C11.1449 32.3792 11.2747 32.3773 11.4044 32.3752C11.746 32.3701 12.0877 32.3662 12.4294 32.3625C12.7779 32.3585 13.1265 32.3534 13.475 32.3484C14.1591 32.3388 14.8432 32.3305 15.5272 32.3227C15.5272 31.7971 15.5272 31.2714 15.5272 30.7298C10.9531 30.7298 6.37896 30.7298 1.66621 30.7298ZM10.9069 34.1148C10.9069 39.1085 10.9069 44.1023 10.9069 49.2474C12.4316 49.2474 13.9563 49.2474 15.5272 49.2474C15.5272 48.7217 15.5272 48.1961 15.5272 47.6545C15.3342 47.6508 15.1412 47.647 14.9423 47.6432C14.7552 47.6386 14.5681 47.6335 14.381 47.6284C14.251 47.625 14.1211 47.6223 13.9911 47.62C13.8042 47.6166 13.6173 47.6114 13.4305 47.6059C13.318 47.6033 13.2056 47.6007 13.0897 47.598C12.8094 47.5549 12.8094 47.5549 12.6369 47.4158C12.5054 47.2046 12.5013 47.0627 12.5036 46.8083C12.5029 46.7312 12.5022 46.6542 12.5015 46.5749C12.5461 46.3094 12.6166 46.2247 12.8094 46.0616C13.1028 45.9541 13.3341 45.9417 13.6428 45.9305C13.7523 45.9263 13.8618 45.9222 13.9746 45.9179C14.0889 45.914 14.2033 45.91 14.3212 45.906C14.4366 45.9017 14.5521 45.8974 14.671 45.893C14.9564 45.8824 15.2418 45.8724 15.5272 45.8625C15.5272 45.3368 15.5272 44.8111 15.5272 44.2696C15.3418 44.2658 15.1563 44.2621 14.9653 44.2583C14.7851 44.2534 14.6049 44.2486 14.4247 44.2434C14.2997 44.2401 14.1748 44.2373 14.0498 44.2351C13.8699 44.2317 13.69 44.2263 13.5101 44.2209C13.4019 44.2183 13.2937 44.2157 13.1823 44.213C12.8808 44.1671 12.7514 44.1052 12.5376 43.8713C12.4927 43.6567 12.4927 43.6567 12.498 43.4233C12.4981 43.3463 12.4982 43.2693 12.4983 43.19C12.5462 42.9284 12.6223 42.8416 12.8094 42.6766C13.0623 42.5377 13.2807 42.5554 13.5632 42.5456C13.677 42.5414 13.7909 42.5372 13.9082 42.5329C14.0277 42.529 14.1471 42.5251 14.2702 42.5211C14.3916 42.5168 14.513 42.5124 14.6344 42.5081C14.932 42.4975 15.2296 42.4874 15.5272 42.4775C15.5272 41.9519 15.5272 41.4262 15.5272 40.8846C15.3418 40.8821 15.1563 40.8795 14.9653 40.8768C14.7851 40.8727 14.6049 40.8685 14.4247 40.864C14.2997 40.8612 14.1748 40.859 14.0498 40.8576C13.8699 40.8555 13.69 40.8507 13.5101 40.8457C13.4019 40.8436 13.2937 40.8416 13.1823 40.8394C12.8495 40.7753 12.7411 40.6775 12.5376 40.3868C12.479 40.1023 12.5119 39.8875 12.5376 39.5904C12.7188 39.2917 12.7188 39.2917 12.9906 39.1922C13.1841 39.1772 13.3781 39.1674 13.572 39.1607C13.7424 39.1544 13.7424 39.1544 13.9162 39.148C14.0349 39.1441 14.1536 39.1402 14.2759 39.1362C14.3969 39.1319 14.5178 39.1275 14.6388 39.1231C14.9349 39.1126 15.2311 39.1025 15.5272 39.0926C15.5272 38.5669 15.5272 38.0413 15.5272 37.4997C15.2589 37.4924 15.2589 37.4924 14.9851 37.4849C14.7506 37.4774 14.5161 37.4699 14.2816 37.4624C14.1636 37.4593 14.0457 37.4562 13.9241 37.453C13.8109 37.4492 13.6976 37.4453 13.5809 37.4414C13.4765 37.4382 13.3721 37.4351 13.2646 37.4319C13.002 37.4015 12.8464 37.3603 12.6282 37.201C12.4864 36.8895 12.4745 36.5429 12.5376 36.2055C12.7409 35.9145 12.8495 35.817 13.1823 35.7529C13.2905 35.7508 13.3986 35.7487 13.5101 35.7466C13.6274 35.7434 13.7448 35.7401 13.8657 35.7368C13.9892 35.7354 14.1128 35.7339 14.2363 35.7326C14.3612 35.7298 14.4861 35.7268 14.611 35.7236C14.9164 35.7166 15.2218 35.7119 15.5272 35.7077C15.5272 35.182 15.5272 34.6564 15.5272 34.1148C14.0025 34.1148 12.4778 34.1148 10.9069 34.1148Z" fill="white"/>
<path d="M19.4279 3.39534C19.7846 3.45134 19.7846 3.45134 20.0054 3.63801C20.3478 4.14967 20.2579 4.74407 20.2594 5.35495C20.2602 5.57128 20.263 5.78753 20.2659 6.00384C20.2665 6.14196 20.267 6.28008 20.2673 6.41821C20.2686 6.60634 20.2686 6.60634 20.2699 6.79828C20.2352 7.15945 20.1642 7.34566 19.9658 7.63272C19.6797 7.78992 19.3673 7.81384 19.0599 7.73228C18.7516 7.46301 18.6204 7.31551 18.5483 6.8843C18.5453 6.75114 18.5449 6.61789 18.5467 6.48471C18.5463 6.41367 18.5459 6.34263 18.5454 6.26944C18.5451 6.11983 18.5459 5.97022 18.5478 5.82062C18.5503 5.59239 18.5479 5.36464 18.545 5.13641C18.5453 4.99058 18.5458 4.84474 18.5467 4.69891C18.5458 4.63118 18.5449 4.56344 18.5439 4.49366C18.5525 4.11071 18.6009 3.95706 18.8253 3.65728C19.0562 3.45455 19.1398 3.38464 19.4279 3.39534Z" fill="white"/>
<path d="M16.0909 3.38867C16.649 3.40653 16.649 3.40653 16.9317 3.63173C17.2593 4.1567 17.175 4.76487 17.175 5.37689C17.1752 5.5779 17.1768 5.77886 17.1785 5.97987C17.1788 6.17083 17.1788 6.17083 17.1791 6.36565C17.1794 6.4821 17.1798 6.59855 17.1802 6.71852C17.158 7.03732 17.1132 7.25172 16.977 7.53311C16.69 7.74339 16.512 7.76523 16.1737 7.78784C15.8616 7.69801 15.7292 7.50496 15.5275 7.23444C15.4832 6.96297 15.4657 6.75489 15.4705 6.48465C15.4703 6.41362 15.4701 6.34258 15.4698 6.26939C15.4699 6.11978 15.4711 5.97016 15.4734 5.82057C15.4765 5.59237 15.4753 5.36456 15.4735 5.13636C15.4741 4.99052 15.475 4.84469 15.4762 4.69885C15.4757 4.63112 15.4753 4.56339 15.4748 4.4936C15.4861 3.98971 15.6128 3.53759 16.0909 3.38867Z" fill="white"/>
<path d="M4.45728 37.537C4.65546 37.6987 4.65546 37.6987 4.74605 37.8979C4.77536 38.3058 4.77545 38.7146 4.78003 39.1236C4.78341 39.2373 4.7868 39.3509 4.79029 39.468C4.7983 40.3044 4.7983 40.3044 4.54045 40.7111C4.16486 40.9745 4.00756 40.9535 3.56832 40.8846C3.29938 40.6648 3.22146 40.5375 3.11534 40.1877C3.09458 39.8438 3.09857 39.4993 3.09836 39.1548C3.09725 39.0606 3.09614 38.9664 3.095 38.8693C3.09331 37.9894 3.09331 37.9894 3.29653 37.5992C3.66087 37.2989 4.06038 37.3237 4.45728 37.537Z" fill="white"/>
<path d="M41.4371 22.9643C41.706 23.1841 41.7839 23.3113 41.8901 23.6612C41.9108 24.0051 41.9068 24.3495 41.907 24.6941C41.9081 24.7883 41.9093 24.8825 41.9104 24.9795C41.9121 25.8594 41.9121 25.8594 41.7089 26.2497C41.4224 26.4858 41.1523 26.488 40.8029 26.4488C40.3832 26.2233 40.3832 26.2233 40.2593 25.951C40.23 25.5431 40.23 25.1343 40.2254 24.7252C40.222 24.6116 40.2186 24.4979 40.2151 24.3808C40.2071 23.5445 40.2071 23.5445 40.465 23.1377C40.8405 22.8744 40.9978 22.8953 41.4371 22.9643Z" fill="white"/>
<path d="M38.3573 43.3735C38.6262 43.5933 38.7042 43.7206 38.8103 44.0704C38.8309 44.3977 38.8271 44.7255 38.8273 45.0535C38.8284 45.143 38.8295 45.2324 38.8306 45.3246C38.8323 46.1654 38.8323 46.1654 38.6291 46.5593C38.3542 46.8183 38.2179 46.8588 37.8534 46.8518C37.5059 46.7476 37.3993 46.6669 37.1796 46.3602C37.1049 45.9327 37.125 45.5005 37.1286 45.066C37.1265 44.9477 37.1243 44.8293 37.1221 44.7074C37.1222 44.5937 37.1224 44.48 37.1226 44.3629C37.1225 44.259 37.1225 44.1552 37.1224 44.0482C37.2689 43.3397 37.8057 43.2965 38.3573 43.3735Z" fill="white"/>
<path d="M7.46375 42.5773C7.714 42.7902 7.81415 42.9069 7.87446 43.252C7.87768 43.5914 7.87994 43.9303 7.87709 44.2697C7.87925 44.388 7.88141 44.5064 7.88364 44.6283C7.88346 44.742 7.88329 44.8557 7.88311 44.9728C7.88317 45.0767 7.88324 45.1805 7.88331 45.2874C7.80658 45.6585 7.65895 45.7608 7.37316 45.9622C7.10254 46.0375 6.93529 46.0022 6.6484 45.9622C6.37946 45.7424 6.30154 45.6151 6.19543 45.2653C6.17479 44.938 6.17865 44.6102 6.17844 44.2822C6.17733 44.1927 6.17622 44.1033 6.17508 44.0111C6.17338 43.1703 6.17338 43.1703 6.37661 42.7764C6.74191 42.4323 7.00827 42.4407 7.46375 42.5773Z" fill="white"/>
<path d="M41.5278 33.2188C41.7619 33.4075 41.7962 33.5063 41.8902 33.8161C41.9133 34.1766 41.9111 34.5375 41.9128 34.8988C41.9147 34.9977 41.9165 35.0967 41.9185 35.1986C41.9229 36.1158 41.9229 36.1158 41.6184 36.5041C41.4112 36.618 41.2715 36.6301 41.0408 36.641C40.971 36.6459 40.9012 36.6508 40.8292 36.6558C40.6218 36.6037 40.6218 36.6037 40.4173 36.4306C40.1697 35.9213 40.2071 35.4233 40.2142 34.8552C40.2128 34.7421 40.2114 34.629 40.2099 34.5124C40.2104 34.4037 40.2108 34.2949 40.2113 34.1828C40.2117 34.0838 40.2121 33.9848 40.2126 33.8828C40.272 33.5457 40.3798 33.4296 40.6218 33.2188C40.9634 33.0936 41.178 33.1364 41.5278 33.2188Z" fill="white"/>
<path d="M38.3573 17.8872C38.6262 18.107 38.7042 18.2342 38.8103 18.5841C38.8309 18.9114 38.8271 19.2392 38.8273 19.5672C38.8284 19.6567 38.8295 19.7461 38.8306 19.8383C38.8323 20.6791 38.8323 20.6791 38.6291 21.073C38.3542 21.3319 38.2179 21.3725 37.8534 21.3655C37.5059 21.2613 37.3993 21.1806 37.1796 20.8739C37.1049 20.4464 37.125 20.0141 37.1286 19.5797C37.1265 19.4613 37.1243 19.343 37.1221 19.2211C37.1222 19.1074 37.1224 18.9937 37.1226 18.8765C37.1225 18.7727 37.1225 18.6689 37.1224 18.5619C37.2689 17.8534 37.8057 17.8102 38.3573 17.8872Z" fill="white"/>
<path d="M41.4374 43.3734C41.7063 43.5932 41.7842 43.7204 41.8904 44.0703C41.9134 44.4142 41.9113 44.7585 41.913 45.1032C41.9149 45.1974 41.9167 45.2916 41.9187 45.3886C41.9231 46.2552 41.9231 46.2552 41.6186 46.6588C41.3763 46.8679 41.2523 46.8577 40.9391 46.8454C40.5845 46.748 40.4826 46.6703 40.2597 46.3601C40.1853 45.9513 40.205 45.5379 40.2087 45.1219C40.2065 45.0091 40.2044 44.8964 40.2021 44.7802C40.2035 43.9591 40.2035 43.9591 40.4663 43.5476C40.8409 43.2827 40.9984 43.3045 41.4374 43.3734Z" fill="white"/>
<path d="M4.38348 42.5771C4.62799 42.7863 4.73286 42.9039 4.79419 43.2411C4.79741 43.5654 4.79966 43.8893 4.79682 44.2136C4.79898 44.3263 4.80114 44.4391 4.80337 44.5552C4.80204 45.3763 4.80204 45.3763 4.53919 45.7878C4.16463 46.0528 4.00715 46.031 3.56813 45.9621C3.29919 45.7423 3.22127 45.615 3.11515 45.2652C3.09212 44.9213 3.0942 44.577 3.0925 44.2323C3.09063 44.1381 3.08876 44.0439 3.08684 43.9468C3.08241 43.0802 3.08241 43.0802 3.38694 42.6767C3.70896 42.3986 4.00179 42.4723 4.38348 42.5771Z" fill="white"/>
<path d="M7.37393 37.4001C7.61705 37.5744 7.61705 37.5744 7.8269 37.8979C7.89473 38.3138 7.8901 38.7209 7.88353 39.1424C7.88615 39.3108 7.88615 39.3108 7.88883 39.4827C7.88444 40.2984 7.88444 40.2984 7.6167 40.71C7.29546 40.9411 7.11697 40.9512 6.73977 40.8846C6.32302 40.6058 6.32302 40.6059 6.23041 40.3005C6.16883 39.9184 6.17948 39.5357 6.17921 39.1486C6.1781 39.0643 6.17699 38.9801 6.17585 38.8933C6.17471 38.3611 6.18424 37.9268 6.53026 37.5184C6.83426 37.3468 7.03693 37.3482 7.37393 37.4001Z" fill="white"/>
<path d="M7.18018 32.2671C7.51732 32.3641 7.62618 32.5058 7.82638 32.8205C7.89157 33.2386 7.88545 33.648 7.87734 34.0712C7.87833 34.1843 7.87932 34.2974 7.88035 34.414C7.87366 35.2439 7.87366 35.2439 7.66145 35.538C7.38438 35.776 7.17843 35.8005 6.82983 35.8072C6.5541 35.686 6.42132 35.5953 6.27529 35.3102C6.16025 34.8775 6.16947 34.4635 6.17302 34.0152C6.17232 33.9266 6.17162 33.8381 6.1709 33.7468C6.17319 32.9038 6.17319 32.9038 6.37686 32.5218C6.66388 32.3115 6.84181 32.2897 7.18018 32.2671Z" fill="white"/>
<path d="M4.1001 32.2671C4.43725 32.3641 4.5461 32.5058 4.7463 32.8205C4.81149 33.2386 4.80537 33.648 4.79726 34.0712C4.79825 34.1843 4.79925 34.2974 4.80027 34.414C4.79359 35.2439 4.79359 35.2439 4.58137 35.538C4.3043 35.776 4.09836 35.8005 3.74976 35.8072C3.48782 35.6857 3.34519 35.5946 3.19531 35.328C3.10474 35.0807 3.09219 34.8976 3.09153 34.6316C3.09129 34.5408 3.09106 34.45 3.09082 34.3564C3.09152 34.2623 3.09222 34.1682 3.09294 34.0712C3.09224 33.9774 3.09154 33.8837 3.09082 33.7871C3.09311 32.8971 3.09311 32.8971 3.29678 32.5218C3.5838 32.3115 3.76173 32.2897 4.1001 32.2671Z" fill="white"/>
<path d="M41.5283 28.1413C41.7678 28.3281 41.7958 28.4258 41.8907 28.7386C41.9114 29.0826 41.9074 29.427 41.9077 29.7715C41.9088 29.8657 41.9099 29.9599 41.911 30.057C41.9127 30.9546 41.9127 30.9546 41.7095 31.3271C41.4225 31.5374 41.2445 31.5592 40.9062 31.5818C40.569 31.4848 40.4602 31.3432 40.26 31.0285C40.1948 30.6104 40.2009 30.2009 40.209 29.7778C40.208 29.6646 40.207 29.5515 40.206 29.435C40.2127 28.6019 40.2127 28.6019 40.433 28.3113C40.7937 27.9874 41.0888 28.0285 41.5283 28.1413Z" fill="white"/>
<path d="M38.4482 28.1413C38.7071 28.334 38.7499 28.5108 38.8106 28.8382C38.8303 29.1677 38.8274 29.4974 38.8276 29.8275C38.8287 29.9165 38.8298 30.0055 38.8309 30.0972C38.8327 30.9479 38.8327 30.9479 38.6294 31.3271C38.3424 31.5374 38.1645 31.5592 37.8261 31.5818C37.4889 31.4848 37.3801 31.3431 37.1799 31.0284C37.1147 30.6103 37.1208 30.2009 37.1289 29.7777C37.1279 29.6646 37.1269 29.5515 37.1259 29.4349C37.1326 28.6018 37.1326 28.6018 37.353 28.3112C37.714 27.987 38.0084 28.0293 38.4482 28.1413Z" fill="white"/>
<path d="M38.2663 22.9644C38.683 23.2432 38.683 23.2432 38.7756 23.5485C38.8372 23.9307 38.8265 24.3134 38.8268 24.7004C38.8279 24.7847 38.829 24.8689 38.8302 24.9557C38.8313 25.4879 38.8218 25.9222 38.4758 26.3307C38.1718 26.5022 37.9691 26.5009 37.6321 26.4489C37.389 26.2747 37.389 26.2747 37.1791 25.9511C37.1113 25.5352 37.1159 25.1281 37.1225 24.7066C37.1207 24.5943 37.119 24.4821 37.1172 24.3664C37.1216 23.5506 37.1216 23.5506 37.3893 23.139C37.7106 22.908 37.8891 22.8978 38.2663 22.9644Z" fill="white"/>
<path d="M41.4374 17.8871C41.7063 18.1068 41.7842 18.2341 41.8904 18.584C41.9134 18.9278 41.9113 19.2722 41.913 19.6169C41.9149 19.7111 41.9167 19.8053 41.9187 19.9023C41.9231 20.7689 41.9231 20.7689 41.6186 21.1724C41.3763 21.3816 41.2523 21.3714 40.9391 21.3591C40.5845 21.2617 40.4826 21.184 40.2597 20.8738C40.1853 20.4649 40.205 20.0516 40.2087 19.6355C40.2065 19.5228 40.2044 19.41 40.2021 19.2939C40.2035 18.4728 40.2035 18.4728 40.4663 18.0613C40.8409 17.7963 40.9984 17.8181 41.4374 17.8871Z" fill="white"/>
<path d="M41.2445 38.2565C41.5214 38.3136 41.6396 38.4457 41.7994 38.6944C41.9738 39.0777 41.9107 39.5484 41.9127 39.97C41.9145 40.0694 41.9164 40.1688 41.9183 40.2712C41.9229 41.2082 41.9229 41.2082 41.6182 41.5816C41.2886 41.7359 41.0857 41.8086 40.7349 41.7122C40.5293 41.5804 40.4051 41.4889 40.2593 41.2829C40.2005 40.8566 40.2174 40.4255 40.2197 39.9949C40.2179 39.8761 40.2161 39.7573 40.2142 39.635C40.2143 39.5208 40.2143 39.4067 40.2144 39.289C40.2142 39.1846 40.214 39.0801 40.2139 38.9725C40.3204 38.3206 40.7174 38.2318 41.2445 38.2565Z" fill="white"/>
<path d="M38.3572 33.2187C38.6117 33.4456 38.7059 33.5719 38.8101 33.9156C38.833 34.2408 38.8311 34.5665 38.8328 34.8925C38.8347 34.9812 38.8365 35.0698 38.8384 35.1611C38.8413 35.6835 38.8097 36.0546 38.5384 36.5041C38.33 36.6186 38.1928 36.6267 37.9608 36.6348C37.891 36.6385 37.8211 36.6422 37.7492 36.6461C37.4581 36.5866 37.3637 36.4566 37.1794 36.2054C37.1325 35.9289 37.1325 35.9289 37.1313 35.6143C37.1308 35.5006 37.1304 35.3869 37.1299 35.2698C37.1313 35.1514 37.1327 35.0331 37.1341 34.9112C37.1327 34.7929 37.1313 34.6746 37.1299 34.5526C37.1303 34.4389 37.1308 34.3252 37.1313 34.2081C37.1317 34.1043 37.1321 34.0004 37.1325 33.8935C37.191 33.5485 37.2935 33.433 37.5418 33.2187C37.8665 33.0998 38.0282 33.1228 38.3572 33.2187Z" fill="white"/>
<path d="M41.2445 12.77C41.5214 12.827 41.6396 12.9591 41.7994 13.2079C41.9738 13.5911 41.9107 14.0618 41.9127 14.4834C41.9145 14.5828 41.9164 14.6822 41.9183 14.7846C41.9229 15.7217 41.9229 15.7217 41.6182 16.095C41.2886 16.2493 41.0857 16.322 40.7349 16.2257C40.5293 16.0938 40.4051 16.0023 40.2593 15.7963C40.2005 15.37 40.2174 14.939 40.2197 14.5083C40.2179 14.3895 40.2161 14.2708 40.2142 14.1484C40.2143 14.0342 40.2143 13.9201 40.2144 13.8025C40.2142 13.698 40.214 13.5936 40.2139 13.4859C40.3204 12.834 40.7174 12.7452 41.2445 12.77Z" fill="white"/>
<path d="M38.165 38.2568C38.3575 38.296 38.3575 38.296 38.584 38.4765C38.876 38.9445 38.8303 39.4245 38.8331 39.9698C38.835 40.0585 38.8369 40.1471 38.8388 40.2384C38.8416 40.7583 38.8161 41.1385 38.5387 41.5814C38.1858 41.757 37.9843 41.7987 37.6044 41.7121C37.3609 41.5814 37.3609 41.5814 37.1798 41.2827C37.1373 40.8549 37.1462 40.4248 37.1458 39.9947C37.1436 39.876 37.1413 39.7572 37.1391 39.6348C37.1387 39.5206 37.1384 39.4065 37.138 39.2889C37.1373 39.1844 37.1365 39.08 37.1357 38.9723C37.239 38.32 37.6389 38.2311 38.165 38.2568Z" fill="white"/>
<path d="M38.165 12.7704C38.3575 12.8097 38.3575 12.8097 38.584 12.9902C38.876 13.4581 38.8303 13.9381 38.8331 14.4835C38.835 14.5721 38.8369 14.6607 38.8388 14.752C38.8416 15.2719 38.8161 15.6522 38.5387 16.0951C38.1858 16.2707 37.9843 16.3124 37.6044 16.2257C37.3609 16.0951 37.3609 16.0951 37.1798 15.7964C37.1373 15.3686 37.1462 14.9385 37.1458 14.5084C37.1436 14.3896 37.1413 14.2708 37.1391 14.1485C37.1387 14.0343 37.1384 13.9202 37.138 13.8026C37.1373 13.6981 37.1365 13.5936 37.1357 13.486C37.239 12.8337 37.6389 12.7448 38.165 12.7704Z" fill="white"/>
</svg>
