<svg width="28" height="28" viewBox="0 0 28 28" fill="none" xmlns="http://www.w3.org/2000/svg">
<g clip-path="url(#clip0_134_463)">
<path d="M4.89669 -0.014115C4.93576 -0.0143221 4.97483 -0.0145292 5.01507 -0.0147426C5.14699 -0.0153069 5.27889 -0.0150909 5.41081 -0.0148819C5.50593 -0.0151241 5.60106 -0.0154132 5.69619 -0.0157455C5.95838 -0.0165197 6.22058 -0.0166077 6.48277 -0.0165838C6.76524 -0.0166733 7.0477 -0.017384 7.33016 -0.0180092C7.94813 -0.0192544 8.5661 -0.019684 9.18407 -0.019959C9.5697 -0.020136 9.95532 -0.0204909 10.341 -0.0208842C11.408 -0.0219492 12.475 -0.0228419 13.5421 -0.023C13.6104 -0.0230102 13.6787 -0.0230204 13.7491 -0.0230309C13.8876 -0.0230508 14.0261 -0.0230706 14.1646 -0.0230903C14.2334 -0.0231002 14.3022 -0.0231102 14.373 -0.0231204C14.4418 -0.0231303 14.5107 -0.0231401 14.5816 -0.0231502C15.6977 -0.023343 16.8138 -0.0248141 17.9299 -0.0268482C19.0749 -0.0289184 20.22 -0.0299745 21.365 -0.029991C22.0082 -0.0300228 22.6515 -0.0304883 23.2947 -0.0320589C23.8423 -0.0333897 24.3899 -0.0337915 24.9375 -0.0329706C25.2171 -0.0325791 25.4966 -0.0326326 25.7762 -0.0338637C26.0319 -0.0349791 26.2876 -0.0348475 26.5434 -0.0337072C26.636 -0.033516 26.7287 -0.0337884 26.8214 -0.0345619C26.9471 -0.0355436 27.0727 -0.0348591 27.1984 -0.0337484C27.3033 -0.0338149 27.3033 -0.0338149 27.4103 -0.0338827C27.6471 0.0103651 27.7253 0.0762223 27.8639 0.272147C27.8907 0.425229 27.9006 0.545289 27.898 0.698019C27.8984 0.740755 27.8988 0.783491 27.8992 0.827523C27.9001 0.971296 27.8991 1.11499 27.8981 1.25876C27.8984 1.36265 27.8988 1.46654 27.8993 1.57043C27.9003 1.85637 27.8997 2.14228 27.8987 2.42821C27.898 2.73643 27.8988 3.04465 27.8995 3.35286C27.9005 3.95696 27.9 4.56105 27.899 5.16515C27.8983 5.65625 27.8981 6.14735 27.8982 6.63844C27.8983 6.70829 27.8983 6.77813 27.8983 6.85009C27.8984 6.99196 27.8984 7.13384 27.8985 7.27572C27.899 8.56928 27.898 9.86283 27.8963 11.1564C27.8948 12.3365 27.8945 13.5166 27.8953 14.6967C27.8955 14.9987 27.8957 15.3007 27.8959 15.6026C27.896 15.6584 27.896 15.6584 27.896 15.7153C27.8966 16.7018 27.8962 17.6883 27.8955 18.6748C27.8954 18.8163 27.8953 18.9578 27.8952 19.0993C27.8951 19.1689 27.8951 19.2385 27.895 19.3103C27.8947 19.8005 27.8949 20.2907 27.8953 20.7809C27.8957 21.3787 27.8953 21.9766 27.894 22.5745C27.8933 22.8794 27.893 23.1844 27.8936 23.4893C27.8941 23.7688 27.8936 24.0482 27.8924 24.3277C27.8921 24.4285 27.8922 24.5293 27.8927 24.6301C27.897 25.5974 27.7157 26.3669 27.0306 27.0919C26.3112 27.7713 25.4994 27.8971 24.5503 27.8902C24.4532 27.8903 24.3561 27.8905 24.2589 27.8907C23.9937 27.8912 23.7285 27.8904 23.4633 27.8893C23.1766 27.8883 22.89 27.8886 22.6033 27.8888C22.1073 27.8889 21.6112 27.8882 21.1152 27.887C20.398 27.8852 19.6807 27.8847 18.9635 27.8844C17.7998 27.8839 16.636 27.8825 15.4723 27.8804C14.3421 27.8784 13.2119 27.8769 12.0817 27.876C12.012 27.8759 11.9423 27.8758 11.8705 27.8758C11.5207 27.8755 11.171 27.8752 10.8212 27.875C7.92162 27.8727 5.02203 27.8689 2.12244 27.864C2.12244 27.846 2.12244 27.8281 2.12244 27.8096C2.18273 27.8035 2.18273 27.8035 2.24425 27.7973C2.80606 27.7244 3.28416 27.5235 3.67367 27.1012C4.00484 26.662 4.15317 26.1671 4.14983 25.6208C4.15008 25.5552 4.15008 25.5552 4.15034 25.4883C4.15077 25.3418 4.15043 25.1954 4.1501 25.0489C4.15025 24.9428 4.15046 24.8367 4.15071 24.7307C4.15125 24.4392 4.15112 24.1477 4.15088 23.8562C4.15075 23.5418 4.15124 23.2275 4.15167 22.9131C4.15232 22.3684 4.1526 21.8237 4.15264 21.279C4.15271 20.4548 4.15363 19.6306 4.15472 18.8065C4.15515 18.4757 4.15555 18.1449 4.15595 17.8142C4.15599 17.7774 4.15604 17.7407 4.15608 17.7028C4.15714 16.8284 4.15787 15.954 4.15854 15.0796C4.15857 15.0413 4.1586 15.0031 4.15863 14.9637C4.15931 14.0708 4.15989 13.1779 4.16037 12.285C4.16054 11.9751 4.16071 11.6652 4.16088 11.3553C4.1609 11.317 4.16092 11.2788 4.16094 11.2394C4.16142 10.3663 4.16202 9.49314 4.16311 8.62002C4.16316 8.58333 4.16321 8.54665 4.16325 8.50885C4.16376 8.10649 4.16431 7.70413 4.16489 7.30177C4.16599 6.51563 4.16655 5.72948 4.16641 4.94334C4.16636 4.40503 4.16688 3.86672 4.16786 3.32841C4.16841 3.01755 4.16869 2.70671 4.16826 2.39585C4.16787 2.11153 4.16822 1.82722 4.16918 1.5429C4.16939 1.43981 4.16932 1.33672 4.16895 1.23364C4.1685 1.09393 4.16904 0.954272 4.16983 0.814574C4.16946 0.774187 4.16908 0.733799 4.1687 0.692188C4.17138 0.452034 4.2049 0.299148 4.35373 0.108882C4.55541 -0.0255712 4.65578 -0.013749 4.89669 -0.014115ZM21.932 3.70072C21.6817 4.01192 21.5902 4.3076 21.6088 4.70412C21.6579 5.10711 21.8235 5.36403 22.1293 5.62589C22.4297 5.84766 22.7657 6.01169 23.0986 6.17891C23.1641 6.21201 23.1641 6.21201 23.2309 6.24579C23.2702 6.26531 23.3096 6.28483 23.3501 6.30494C23.4595 6.36958 23.5365 6.43431 23.619 6.53065C23.6523 6.67902 23.6462 6.81675 23.619 6.96603C23.4983 7.12199 23.3931 7.13127 23.2007 7.17691C22.8394 7.20909 22.5408 7.06944 22.2449 6.87419C22.1179 6.79131 22.041 6.74839 21.8912 6.71433C21.7055 6.7659 21.6497 6.85838 21.551 7.02045C21.4824 7.22202 21.4827 7.31177 21.5612 7.51025C21.7763 7.79826 22.2355 7.99685 22.585 8.05446C23.1965 8.09324 23.724 8.08881 24.2381 7.71433C24.5612 7.37587 24.674 6.99036 24.6679 6.52959C24.6321 6.1384 24.4744 5.80174 24.1841 5.53597C23.814 5.26838 23.3891 5.08004 22.9796 4.88099C22.8278 4.80216 22.7435 4.75596 22.6395 4.62589C22.6429 4.43201 22.6429 4.43201 22.6939 4.24494C22.9544 4.05778 23.3151 4.11006 23.619 4.1361C23.7366 4.17479 23.7366 4.17479 23.8299 4.22113C24.0448 4.31998 24.157 4.31816 24.381 4.24494C24.5095 4.07222 24.5433 3.96296 24.5476 3.74834C24.4668 3.52969 24.3693 3.47907 24.1633 3.37419C23.4635 3.11502 22.4924 3.17314 21.932 3.70072ZM7.47503 3.37702C7.36196 3.53971 7.37819 3.70746 7.37936 3.89864C7.37899 3.94086 7.37861 3.98309 7.37823 4.0266C7.37723 4.16628 7.37745 4.30593 7.37775 4.44562C7.37751 4.54261 7.37722 4.63959 7.37689 4.73658C7.3764 4.93989 7.37654 5.14319 7.37708 5.3465C7.3777 5.6073 7.3766 5.86806 7.37501 6.12885C7.37402 6.32914 7.37403 6.52942 7.37434 6.72971C7.37435 6.82588 7.37402 6.92204 7.37334 7.01821C7.37254 7.15256 7.37311 7.28683 7.37405 7.42117C7.37352 7.46104 7.37299 7.50091 7.37245 7.54198C7.37506 7.72025 7.37753 7.8122 7.50435 7.94303C7.63411 8.00753 7.71951 8.02193 7.86394 8.02045C7.90491 8.02087 7.94588 8.02129 7.98809 8.02173C8.15372 7.99198 8.21188 7.96331 8.32652 7.83678C8.35819 7.66105 8.35175 7.48695 8.34778 7.30893C8.34747 7.25722 8.34716 7.20551 8.34685 7.15223C8.34563 6.98696 8.3429 6.82175 8.34013 6.65651C8.33904 6.54451 8.33804 6.43251 8.33715 6.32051C8.33475 6.04587 8.33099 5.77126 8.32652 5.49664C8.36244 5.49664 8.39836 5.49664 8.43537 5.49664C8.44834 5.54133 8.46132 5.58602 8.47469 5.63206C8.5573 5.85915 8.66651 6.05915 8.78571 6.26875C8.80939 6.31074 8.83308 6.35273 8.85748 6.396C8.90797 6.48529 8.9586 6.5745 9.00937 6.66363C9.09013 6.80575 9.16997 6.94837 9.24978 7.09103C9.30253 7.18431 9.35532 7.27756 9.40815 7.37079C9.43274 7.4149 9.45732 7.459 9.48265 7.50444C9.64414 7.79899 9.64414 7.79899 9.90475 8.00004C10.0255 8.02361 10.0255 8.02361 10.1497 8.01705C10.1906 8.01684 10.2316 8.01663 10.2738 8.01641C10.4081 7.9982 10.4973 7.96251 10.6122 7.8912C10.6942 7.72726 10.6756 7.5578 10.6763 7.37793C10.6767 7.33624 10.677 7.29455 10.6774 7.2516C10.6784 7.1134 10.6791 6.9752 10.6796 6.83699C10.6798 6.78986 10.6801 6.74273 10.6803 6.69418C10.6814 6.44487 10.6822 6.19556 10.6827 5.94624C10.6833 5.68831 10.6852 5.43041 10.6874 5.17249C10.6888 4.97449 10.6892 4.7765 10.6894 4.5785C10.6897 4.48339 10.6903 4.38829 10.6913 4.29319C10.6927 4.16027 10.6926 4.02742 10.6922 3.89451C10.6929 3.85506 10.6936 3.81562 10.6943 3.77498C10.6925 3.59802 10.6901 3.50729 10.5645 3.37716C10.427 3.30886 10.3301 3.29619 10.1769 3.29596C10.1308 3.29491 10.0848 3.29385 10.0374 3.29277C9.85168 3.33057 9.80008 3.3844 9.68707 3.53746C9.65341 3.70687 9.65415 3.87449 9.6539 4.04681C9.653 4.09603 9.6521 4.14525 9.65118 4.19595C9.64854 4.35288 9.64737 4.50977 9.64625 4.66671C9.64472 4.77321 9.64309 4.87972 9.64136 4.98622C9.63734 5.24706 9.63464 5.50789 9.63265 5.76875C9.60984 5.72238 9.60984 5.72238 9.58657 5.67508C9.32343 5.1406 9.0557 4.60905 8.7721 4.08507C8.74798 4.03974 8.72386 3.9944 8.69901 3.94769C8.56602 3.70472 8.44102 3.49128 8.21768 3.31977C8.05403 3.28114 8.05403 3.28114 7.88434 3.29256C7.82808 3.29312 7.77182 3.29368 7.71385 3.29426C7.56841 3.30917 7.56841 3.30917 7.47503 3.37702ZM11.7674 3.37675C11.664 3.5415 11.6775 3.71007 11.6787 3.89864C11.6783 3.94086 11.6779 3.98309 11.6776 4.0266C11.6766 4.16628 11.6768 4.30593 11.6771 4.44562C11.6768 4.54261 11.6765 4.63959 11.6762 4.73658C11.6757 4.93989 11.6759 5.14319 11.6764 5.3465C11.677 5.6073 11.6759 5.86806 11.6743 6.12885C11.6733 6.32914 11.6734 6.52942 11.6737 6.72971C11.6737 6.82588 11.6733 6.92204 11.6727 7.01821C11.6719 7.15256 11.6724 7.28683 11.6734 7.42117C11.6728 7.46104 11.6723 7.50091 11.6718 7.54198C11.6743 7.71393 11.6786 7.81186 11.7949 7.94301C11.9339 8.00723 12.0274 8.02104 12.1803 8.02203C12.232 8.02272 12.2838 8.02341 12.3371 8.02412C12.3926 8.02396 12.4481 8.0238 12.5053 8.02364C12.5626 8.02392 12.6199 8.02421 12.6789 8.0245C12.7999 8.02485 12.9209 8.02478 13.0419 8.02432C13.2274 8.02385 13.4128 8.02542 13.5983 8.02715C13.7158 8.02724 13.8334 8.0272 13.9509 8.02704C14.0343 8.02796 14.0343 8.02796 14.1194 8.02889C14.171 8.02838 14.2226 8.02787 14.2757 8.02735C14.3438 8.02733 14.3438 8.02733 14.4133 8.02732C14.539 8.00921 14.539 8.00921 14.6269 7.9014C14.7248 7.72744 14.7149 7.59746 14.6939 7.4014C14.6439 7.27484 14.6439 7.27484 14.5306 7.18372C14.379 7.16434 14.2492 7.15829 14.098 7.16246C14.0349 7.16292 14.0349 7.16292 13.9706 7.16339C13.8364 7.16461 13.7022 7.16734 13.568 7.17011C13.477 7.1712 13.386 7.1722 13.295 7.17309C13.0719 7.1753 12.8489 7.17956 12.6258 7.18372C12.6258 6.80657 12.6258 6.42943 12.6258 6.04086C13.1258 6.05446 13.1258 6.05446 13.2819 6.06047C13.5065 6.06343 13.6302 6.05848 13.8274 5.94137C13.9455 5.82829 13.9455 5.82829 13.9626 5.65991C13.9235 5.4516 13.8881 5.40093 13.7143 5.27895C13.5275 5.25196 13.3447 5.25855 13.1565 5.26535C12.9814 5.26984 12.8063 5.27433 12.6258 5.27895C12.6258 4.90181 12.6258 4.52467 12.6258 4.1361C12.8224 4.13988 12.8224 4.13988 13.023 4.14375C13.1501 4.14545 13.2773 4.14677 13.4044 4.14805C13.4927 4.14915 13.581 4.15063 13.6692 4.15252C13.7962 4.15516 13.9231 4.15639 14.0502 4.15735C14.0895 4.15848 14.1289 4.1596 14.1694 4.16076C14.3591 4.16084 14.4577 4.15034 14.61 4.03285C14.7507 3.84096 14.7198 3.71637 14.6939 3.48303C14.607 3.36125 14.5591 3.3247 14.4108 3.29904C14.3643 3.29891 14.3178 3.29878 14.2699 3.29864C14.1906 3.29787 14.1906 3.29787 14.1097 3.29708C14.0527 3.29741 13.9958 3.29774 13.9371 3.29808C13.8785 3.29793 13.8199 3.29777 13.7596 3.29761C13.6357 3.2975 13.5118 3.2978 13.3879 3.29848C13.198 3.29936 13.0082 3.29849 12.8182 3.29745C12.698 3.29755 12.5777 3.29776 12.4575 3.29808C12.372 3.29759 12.372 3.29759 12.2848 3.29708C12.232 3.2976 12.1791 3.29811 12.1247 3.29864C12.0549 3.29884 12.0549 3.29884 11.9837 3.29904C11.863 3.31266 11.863 3.31266 11.7674 3.37675ZM15.1292 3.59188C15.1342 3.69596 15.1342 3.69596 15.1667 3.81146C15.1777 3.85543 15.1887 3.89939 15.2 3.94469C15.2609 4.16368 15.3287 4.37972 15.4001 4.59549C15.4157 4.64326 15.4313 4.69103 15.4473 4.74025C15.4975 4.89383 15.548 5.04728 15.5986 5.20072C15.6334 5.30631 15.6681 5.41191 15.7028 5.5175C15.7543 5.67431 15.8059 5.8311 15.8576 5.98786C15.9528 6.27685 16.0463 6.56628 16.1375 6.85655C16.1664 6.94693 16.1664 6.94693 16.1958 7.03914C16.2296 7.14535 16.2628 7.25175 16.2953 7.35837C16.3846 7.63497 16.4724 7.81363 16.7075 8.00004C16.9807 8.09113 17.2163 8.08326 17.4864 7.99664C17.8278 7.75048 17.8624 7.24877 17.9422 6.86059C17.9544 6.80261 17.9667 6.74462 17.9793 6.68489C18.0092 6.54284 18.0388 6.40073 18.068 6.25855C18.1429 6.46036 18.1948 6.66073 18.2375 6.87122C18.2482 6.9232 18.2589 6.97518 18.2699 7.02874C18.2918 7.13688 18.3131 7.24516 18.3336 7.35357C18.3982 7.66879 18.3982 7.66879 18.584 7.92479C18.8838 8.08937 19.1376 8.08692 19.466 8.00344C19.8983 7.73426 19.9963 7.03094 20.1509 6.56552C20.1707 6.50636 20.1707 6.50636 20.1908 6.44601C20.2601 6.23795 20.3291 6.02979 20.3979 5.82155C20.4688 5.60688 20.5409 5.39259 20.6131 5.17835C20.6687 5.0129 20.7235 4.8472 20.7781 4.68141C20.8043 4.60224 20.8308 4.52318 20.8577 4.44421C20.895 4.33406 20.9312 4.22359 20.9671 4.11298C20.9984 4.01894 20.9984 4.01894 21.0303 3.923C21.0655 3.73175 21.0466 3.65078 20.9524 3.48303C20.7207 3.27946 20.4819 3.30263 20.1905 3.31977C20.0321 3.66154 19.9271 4.01415 19.8208 4.37504C19.7921 4.4715 19.7921 4.4715 19.7629 4.5699C19.7228 4.70526 19.6828 4.84065 19.6429 4.97607C19.6019 5.11494 19.5608 5.25377 19.5195 5.39253C19.4598 5.59298 19.4005 5.79352 19.3412 5.99409C19.3227 6.05633 19.3041 6.11858 19.285 6.18271C19.2681 6.2403 19.2512 6.2979 19.2338 6.35724C19.2113 6.43328 19.2113 6.43328 19.1884 6.51086C19.1499 6.64382 19.1499 6.64382 19.1565 6.80276C19.1205 6.80276 19.0846 6.80276 19.0476 6.80276C19.0391 6.74631 19.0391 6.74631 19.0304 6.68872C18.9579 6.23053 18.8596 5.78102 18.7517 5.32997C18.7352 5.2583 18.7187 5.18662 18.7023 5.11494C18.6861 5.04721 18.6699 4.97948 18.6533 4.90969C18.6389 4.84859 18.6244 4.78748 18.6096 4.72452C18.558 4.572 18.5216 4.50395 18.3946 4.4082C18.2786 4.37292 18.2786 4.37292 18.1531 4.36399C18.1116 4.35915 18.0701 4.35431 18.0274 4.34932C17.8825 4.35459 17.8096 4.38588 17.6871 4.46263C17.5261 4.85108 17.443 5.26602 17.3487 5.67496C17.3229 5.78656 17.2966 5.89803 17.2703 6.0095C17.2537 6.08096 17.237 6.15242 17.2204 6.22389C17.2055 6.28804 17.1906 6.35218 17.1752 6.41826C17.1359 6.59237 17.1359 6.59237 17.1429 6.80276C17.1069 6.80276 17.071 6.80276 17.034 6.80276C17.0198 6.7353 17.0057 6.66783 16.9911 6.59832C16.921 6.28357 16.832 5.97509 16.7417 5.66565C16.7241 5.60525 16.7065 5.54485 16.6884 5.48263C16.6514 5.35577 16.6143 5.22895 16.5772 5.10215C16.5203 4.90799 16.4642 4.71364 16.4081 4.51928C16.3719 4.39572 16.3357 4.27217 16.2995 4.14864C16.2829 4.09059 16.2662 4.03254 16.249 3.97273C16.233 3.91876 16.217 3.86479 16.2006 3.80918C16.1868 3.76183 16.173 3.71449 16.1587 3.66571C16.1042 3.52546 16.0496 3.42876 15.9456 3.31977C15.5894 3.27955 15.3877 3.3334 15.1292 3.59188ZM7.43536 10.1327C7.30337 10.3611 7.21194 10.5711 7.25849 10.8383C7.34026 11.0877 7.44253 11.2377 7.67346 11.3742C8.01376 11.5 8.33462 11.4983 8.69475 11.4969C8.79118 11.4971 8.79118 11.4971 8.88955 11.4974C9.06728 11.4977 9.245 11.4976 9.42273 11.4973C9.61467 11.497 9.80662 11.4974 9.99856 11.4977C10.3743 11.4982 10.75 11.4981 11.1258 11.4978C11.4312 11.4975 11.7366 11.4975 12.042 11.4976C12.0855 11.4976 12.129 11.4976 12.1738 11.4977C12.2622 11.4977 12.3505 11.4977 12.4389 11.4978C13.2671 11.4981 14.0953 11.4977 14.9235 11.4971C15.6339 11.4966 16.3444 11.4967 17.0548 11.4972C17.8801 11.4978 18.7054 11.498 19.5306 11.4977C19.6187 11.4977 19.7067 11.4976 19.7947 11.4976C19.838 11.4976 19.8813 11.4976 19.9259 11.4976C20.2309 11.4975 20.5359 11.4976 20.8409 11.4979C21.2127 11.4982 21.5844 11.4981 21.9562 11.4975C22.1458 11.4972 22.3354 11.4971 22.5251 11.4975C22.7307 11.4978 22.9363 11.4974 23.142 11.4969C23.2317 11.4972 23.2317 11.4972 23.3233 11.4976C23.86 11.497 23.86 11.497 24.3163 11.2415C24.5307 10.9905 24.5685 10.8523 24.5614 10.5311C24.536 10.3297 24.4612 10.2173 24.3265 10.0681C24.0782 9.88801 23.866 9.84366 23.5638 9.84323C23.5085 9.84302 23.4532 9.84281 23.3962 9.8426C23.3355 9.84265 23.2748 9.84269 23.2123 9.84274C23.1154 9.8425 23.1154 9.8425 23.0167 9.84225C22.8374 9.84186 22.6582 9.84171 22.479 9.84167C22.2857 9.84157 22.0924 9.84116 21.8991 9.8408C21.4764 9.84006 21.0538 9.83973 20.6311 9.83949C20.3672 9.83934 20.1032 9.83911 19.8393 9.83886C19.1085 9.8382 18.3777 9.83764 17.6468 9.83746C17.5767 9.83744 17.5767 9.83744 17.5051 9.83742C17.4582 9.83741 17.4114 9.8374 17.363 9.83738C17.268 9.83736 17.173 9.83733 17.078 9.83731C17.0309 9.8373 16.9838 9.83729 16.9352 9.83727C16.1717 9.83706 15.4082 9.83611 14.6446 9.83484C13.8607 9.83355 13.0767 9.83287 12.2927 9.83281C11.8526 9.83276 11.4124 9.83245 10.9723 9.83146C10.5975 9.83062 10.2227 9.83034 9.84786 9.83079C9.65668 9.831 9.46551 9.83095 9.27434 9.83019C9.06692 9.8295 8.85952 9.82982 8.65211 9.83038C8.5919 9.82995 8.5317 9.82951 8.46967 9.82906C8.07923 9.83156 7.73558 9.85619 7.43536 10.1327ZM7.37754 13.4898C7.24698 13.751 7.21015 13.898 7.29931 14.1803C7.42005 14.4017 7.55314 14.5793 7.7823 14.6939C7.87071 14.6992 7.95934 14.7011 8.04791 14.7012C8.10438 14.7015 8.16086 14.7017 8.21905 14.702C8.31283 14.702 8.31283 14.702 8.40852 14.7019C8.47457 14.7021 8.54062 14.7023 8.60867 14.7025C8.79259 14.703 8.97652 14.7033 9.16045 14.7034C9.35859 14.7036 9.55673 14.7042 9.75488 14.7046C10.2337 14.7057 10.7126 14.7063 11.1914 14.7067C11.4168 14.707 11.6422 14.7073 11.8676 14.7076C12.6168 14.7085 13.3659 14.7093 14.1151 14.7097C14.3096 14.7098 14.5041 14.7099 14.6985 14.71C14.7469 14.71 14.7952 14.71 14.845 14.7101C15.6281 14.7105 16.4112 14.7119 17.1943 14.7137C17.9981 14.7155 18.8018 14.7164 19.6055 14.7166C20.0569 14.7167 20.5082 14.7172 20.9596 14.7186C21.344 14.7198 21.7284 14.7202 22.1128 14.7197C22.309 14.7194 22.5051 14.7196 22.7012 14.7206C22.9139 14.7217 23.1265 14.7212 23.3392 14.7205C23.4012 14.7211 23.4631 14.7217 23.5269 14.7223C23.8785 14.7194 24.0951 14.6862 24.381 14.4762C24.5679 14.2712 24.5726 14.0592 24.5627 13.7924C24.5341 13.5876 24.4686 13.4826 24.3265 13.3334C23.983 13.0899 23.6454 13.0848 23.2364 13.088C23.1386 13.0875 23.1386 13.0875 23.0389 13.087C22.8589 13.0863 22.6789 13.0866 22.4989 13.0872C22.3044 13.0877 22.11 13.087 21.9155 13.0864C21.5349 13.0854 21.1543 13.0856 20.7737 13.0862C20.4644 13.0867 20.155 13.0868 19.8456 13.0866C19.7795 13.0865 19.7795 13.0865 19.7121 13.0865C19.6225 13.0864 19.533 13.0863 19.4435 13.0863C18.6043 13.0856 17.7652 13.0863 16.9261 13.0875C16.2065 13.0885 15.4868 13.0883 14.7672 13.0873C13.931 13.0861 13.0949 13.0857 12.2587 13.0864C12.1695 13.0864 12.0803 13.0865 11.9911 13.0866C11.9472 13.0866 11.9033 13.0866 11.8581 13.0867C11.5492 13.0869 11.2403 13.0865 10.9314 13.086C10.5548 13.0854 10.1782 13.0856 9.80158 13.0867C9.60952 13.0873 9.41747 13.0875 9.22541 13.0868C9.01704 13.086 8.80871 13.087 8.60035 13.088C8.53987 13.0876 8.47939 13.0871 8.41708 13.0866C7.9877 13.0909 7.66339 13.1527 7.37754 13.4898ZM7.43877 16.6633C7.32329 16.8558 7.25183 17.0263 7.23809 17.2518C7.32038 17.5374 7.44793 17.7131 7.67346 17.9048C7.82488 17.9553 7.91674 17.9664 8.07316 17.9672C8.1456 17.9678 8.1456 17.9678 8.2195 17.9684C8.29876 17.9686 8.29876 17.9686 8.37963 17.9689C8.43539 17.9692 8.49116 17.9696 8.54861 17.9699C8.73344 17.971 8.91827 17.9717 9.1031 17.9722C9.19772 17.9725 9.19772 17.9725 9.29427 17.9729C9.6281 17.974 9.96193 17.9748 10.2958 17.9753C10.6407 17.9759 10.9857 17.9778 11.3306 17.9799C11.5958 17.9814 11.8609 17.9818 12.126 17.982C12.2532 17.9823 12.3804 17.9829 12.5076 17.9839C12.6855 17.9852 12.8634 17.9852 13.0414 17.9848C13.0939 17.9855 13.1464 17.9862 13.2005 17.9869C13.5165 17.9845 13.6893 17.9482 13.932 17.7415C14.0885 17.5635 14.1438 17.4219 14.1667 17.1837C14.1468 16.9455 14.0892 16.7771 13.932 16.5987C13.6211 16.3744 13.3163 16.3498 12.9436 16.3537C12.8901 16.3534 12.8365 16.3531 12.7812 16.3528C12.6052 16.3521 12.4292 16.353 12.2532 16.354C12.1303 16.354 12.0073 16.3539 11.8844 16.3538C11.6273 16.3537 11.3702 16.3544 11.113 16.3556C10.7839 16.3572 10.4547 16.357 10.1256 16.3563C9.87193 16.3559 9.61828 16.3564 9.36463 16.357C9.24327 16.3573 9.12192 16.3573 9.00057 16.3571C8.83086 16.3569 8.66118 16.3578 8.49147 16.359C8.44162 16.3588 8.39177 16.3585 8.34041 16.3583C7.98373 16.3624 7.7075 16.4091 7.43877 16.6633ZM16.0738 16.6259C15.8899 16.862 15.8301 17.016 15.8287 17.3115C15.8283 17.3688 15.8279 17.4262 15.8275 17.4853C15.8274 17.5482 15.8272 17.6112 15.8271 17.676C15.8267 17.7423 15.8264 17.8086 15.826 17.8769C15.8249 18.0968 15.8243 18.3167 15.8238 18.5366C15.8235 18.6124 15.8233 18.6882 15.8231 18.764C15.8221 19.1201 15.8213 19.4762 15.8208 19.8323C15.8203 20.2429 15.8189 20.6536 15.8167 21.0642C15.815 21.3819 15.8142 21.6995 15.814 22.0172C15.8139 22.2068 15.8134 22.3964 15.8121 22.586C15.8105 22.7977 15.8108 23.0094 15.8112 23.2211C15.8105 23.2836 15.8098 23.3461 15.809 23.4105C15.8113 23.763 15.8294 23.9936 16.0544 24.2722C16.3919 24.5512 16.7447 24.5207 17.1678 24.518C17.2419 24.5183 17.316 24.5187 17.39 24.5192C17.5903 24.5202 17.7905 24.5198 17.9908 24.5191C18.2007 24.5185 18.4107 24.5191 18.6207 24.5194C18.9732 24.5198 19.3256 24.5193 19.6781 24.5182C20.0852 24.517 20.4923 24.5174 20.8994 24.5186C21.2495 24.5196 21.5996 24.5198 21.9496 24.5192C22.1585 24.5188 22.3673 24.5188 22.5762 24.5195C22.7725 24.5202 22.9688 24.5197 23.1651 24.5185C23.2713 24.518 23.3774 24.5187 23.4835 24.5194C23.9485 24.5149 23.9485 24.5149 24.3265 24.2722C24.5704 24.0151 24.6051 23.7959 24.6063 23.4506C24.6066 23.396 24.6069 23.3414 24.6072 23.2851C24.6073 23.2258 24.6073 23.1665 24.6074 23.1053C24.6077 23.0424 24.608 22.9794 24.6082 22.9146C24.609 22.7064 24.6094 22.4982 24.6097 22.29C24.6099 22.1818 24.6102 22.0735 24.6104 21.9653C24.611 21.6637 24.6115 21.3621 24.6116 21.0606C24.6119 20.6715 24.6128 20.2825 24.6144 19.8935C24.6156 19.5921 24.6161 19.2907 24.6162 18.9893C24.6163 18.8096 24.6167 18.6299 24.6176 18.4502C24.6185 18.2495 24.6184 18.0488 24.618 17.8481C24.6188 17.7598 24.6188 17.7598 24.6196 17.6697C24.6176 17.3079 24.6062 16.9081 24.3602 16.6193C24.1118 16.3993 23.9065 16.3743 23.5862 16.3734C23.493 16.3729 23.493 16.3729 23.398 16.3724C23.2961 16.3723 23.2961 16.3723 23.1922 16.3722C23.1205 16.372 23.0488 16.3717 22.9749 16.3714C22.7784 16.3707 22.5818 16.3703 22.3853 16.3701C22.2624 16.3699 22.1396 16.3697 22.0167 16.3695C21.6322 16.3687 21.2476 16.3682 20.8631 16.368C20.4195 16.3678 19.9759 16.3668 19.5323 16.3652C19.1891 16.364 18.846 16.3635 18.5029 16.3634C18.298 16.3634 18.0932 16.363 17.8884 16.3621C17.6957 16.3612 17.503 16.3611 17.3103 16.3615C17.2061 16.3616 17.1019 16.3609 16.9977 16.3601C16.6341 16.3619 16.3551 16.3693 16.0738 16.6259ZM7.44217 19.9286C7.3226 20.1208 7.25236 20.2899 7.23809 20.5171C7.3251 20.8379 7.46795 20.9821 7.72788 21.1701C7.85338 21.2329 7.92492 21.2316 8.06455 21.2322C8.11231 21.2325 8.16007 21.2328 8.20928 21.2331C8.28807 21.2332 8.28807 21.2332 8.36845 21.2333C8.45129 21.2337 8.45129 21.2337 8.53581 21.2341C8.71916 21.2349 8.90252 21.2353 9.08588 21.2356C9.21305 21.2359 9.34023 21.2362 9.46741 21.2365C9.73441 21.2371 10.0014 21.2374 10.2684 21.2376C10.6105 21.2379 10.9526 21.2392 11.2947 21.2408C11.5575 21.2418 11.8204 21.2421 12.0832 21.2422C12.2093 21.2423 12.3354 21.2428 12.4616 21.2435C12.6381 21.2444 12.8146 21.2443 12.9911 21.2439C13.0432 21.2444 13.0953 21.2449 13.149 21.2455C13.4331 21.2437 13.6324 21.2214 13.8775 21.0613C14.0614 20.8625 14.1405 20.7207 14.1667 20.449C14.1468 20.2108 14.0891 20.0424 13.932 19.864C13.6197 19.6382 13.3123 19.6151 12.9378 19.619C12.8836 19.6187 12.8294 19.6184 12.7735 19.6181C12.5954 19.6174 12.4174 19.6183 12.2394 19.6193C12.1151 19.6193 11.9908 19.6192 11.8666 19.6191C11.6066 19.619 11.3467 19.6197 11.0868 19.6209C10.7538 19.6225 10.4209 19.6223 10.088 19.6216C9.83158 19.6212 9.57517 19.6217 9.31877 19.6223C9.196 19.6226 9.07324 19.6226 8.95047 19.6224C8.77892 19.6222 8.60741 19.6231 8.43587 19.6243C8.38531 19.6241 8.33476 19.6238 8.28267 19.6236C7.93801 19.6275 7.69807 19.6798 7.44217 19.9286ZM7.44217 23.1939C7.3226 23.3861 7.25236 23.5552 7.23809 23.7824C7.3251 24.1032 7.46795 24.2474 7.72788 24.4354C7.85338 24.4982 7.92492 24.497 8.06455 24.4975C8.11231 24.4978 8.16007 24.4981 8.20928 24.4984C8.28807 24.4985 8.28807 24.4985 8.36845 24.4986C8.45129 24.499 8.45129 24.499 8.53581 24.4994C8.71916 24.5002 8.90252 24.5006 9.08588 24.5009C9.21305 24.5012 9.34023 24.5015 9.46741 24.5018C9.73441 24.5024 10.0014 24.5027 10.2684 24.5029C10.6105 24.5032 10.9526 24.5045 11.2947 24.5061C11.5575 24.5071 11.8204 24.5074 12.0832 24.5075C12.2093 24.5076 12.3354 24.5081 12.4616 24.5088C12.6381 24.5097 12.8146 24.5096 12.9911 24.5092C13.0432 24.5098 13.0953 24.5103 13.149 24.5108C13.4331 24.509 13.6324 24.4867 13.8775 24.3266C14.0614 24.1279 14.1405 23.986 14.1667 23.7143C14.1468 23.4763 14.096 23.3056 13.932 23.1293C13.6146 22.9068 13.3755 22.8804 12.9934 22.8843C12.9387 22.884 12.8839 22.8837 12.8275 22.8834C12.6474 22.8827 12.4673 22.8836 12.2872 22.8846C12.1616 22.8846 12.0361 22.8845 11.9105 22.8844C11.6477 22.8843 11.3849 22.885 11.1221 22.8862C10.7854 22.8878 10.4488 22.8876 10.1121 22.8869C9.85293 22.8866 9.59377 22.887 9.33461 22.8877C9.21048 22.8879 9.08634 22.8879 8.96221 22.8877C8.7887 22.8875 8.61523 22.8884 8.44173 22.8896C8.39058 22.8894 8.33943 22.8891 8.28673 22.8889C7.94036 22.8928 7.69943 22.9438 7.44217 23.1939Z" fill="white"/>
<path d="M0.604303 11.6945C0.648963 11.6945 0.693622 11.6945 0.739636 11.6945C0.811582 11.6949 0.811582 11.6949 0.884982 11.6953C0.958924 11.6955 0.958924 11.6955 1.03436 11.6956C1.19184 11.6959 1.34932 11.6966 1.50679 11.6972C1.61355 11.6975 1.7203 11.6978 1.82705 11.698C2.08878 11.6986 2.35051 11.6995 2.61224 11.7007C2.61721 13.4108 2.62106 15.1209 2.62335 16.831C2.62363 17.0331 2.62391 17.2351 2.62419 17.4371C2.62425 17.4773 2.62431 17.5176 2.62437 17.559C2.62531 18.2097 2.62703 18.8604 2.62903 19.5111C2.63107 20.179 2.63228 20.847 2.63272 21.515C2.63302 21.927 2.63396 22.339 2.63573 22.7509C2.63702 23.0672 2.63715 23.3834 2.63686 23.6996C2.63692 23.8291 2.63735 23.9586 2.63819 24.0881C2.63927 24.2652 2.63901 24.4423 2.63841 24.6194C2.63905 24.6704 2.63968 24.7213 2.64034 24.7738C2.63668 25.1789 2.546 25.5536 2.28762 25.8741C2.25219 25.9022 2.21676 25.9303 2.18026 25.9592C2.12733 26.0029 2.12733 26.0029 2.07333 26.0476C1.71474 26.2827 1.34152 26.2694 0.92516 26.2313C0.598578 26.1375 0.344442 25.9369 0.159072 25.6511C-0.00795751 25.3477 -0.0309643 25.0938 -0.0276533 24.7515C-0.0279929 24.6971 -0.0283325 24.6426 -0.0286823 24.5866C-0.0295477 24.4051 -0.0288639 24.2236 -0.0281781 24.042C-0.0284732 23.9116 -0.0288609 23.7811 -0.029334 23.6507C-0.0302228 23.3337 -0.0300939 23.0166 -0.0294619 22.6996C-0.0289696 22.442 -0.0289039 22.1843 -0.0291406 21.9267C-0.0291739 21.89 -0.0292073 21.8533 -0.0292417 21.8154C-0.0293113 21.7408 -0.0293818 21.6662 -0.0294534 21.5916C-0.0300735 20.8929 -0.0293613 20.1942 -0.0281907 19.4955C-0.0272175 18.896 -0.0273877 18.2966 -0.0283907 17.6972C-0.0295557 17.0006 -0.0300144 16.3041 -0.0293459 15.6075C-0.0292765 15.5333 -0.0292081 15.459 -0.0291406 15.3848C-0.029107 15.3482 -0.0290734 15.3117 -0.0290388 15.274C-0.0288509 15.0166 -0.029168 14.7592 -0.0296803 14.5018C-0.0303083 14.1555 -0.0298746 13.8092 -0.0286149 13.4629C-0.0283266 13.3357 -0.0284105 13.2084 -0.0288898 13.0812C-0.0294829 12.9078 -0.0287407 12.7345 -0.0276533 12.5611C-0.0281389 12.5105 -0.0286245 12.4599 -0.0291248 12.4078C-0.0263658 12.1817 -0.0188307 12.0583 0.100357 11.8612C0.263141 11.714 0.392881 11.6938 0.604303 11.6945Z" fill="white"/>
</g>
<defs>
<clipPath id="clip0_134_463">
<rect width="27.864" height="27.864" fill="white"/>
</clipPath>
</defs>
</svg>
