<svg width="28" height="28" viewBox="0 0 28 28" fill="none" xmlns="http://www.w3.org/2000/svg">
<g clip-path="url(#clip0_134_400)">
<path d="M4.89669 -0.014176C4.93576 -0.0143831 4.97483 -0.0145902 5.01507 -0.0148036C5.14699 -0.015368 5.27889 -0.0151519 5.41081 -0.014943C5.50593 -0.0151851 5.60106 -0.0154743 5.69619 -0.0158066C5.95838 -0.0165807 6.22058 -0.0166687 6.48277 -0.0166448C6.76524 -0.0167343 7.0477 -0.017445 7.33016 -0.0180703C7.94813 -0.0193154 8.5661 -0.019745 9.18407 -0.02002C9.5697 -0.0201971 9.95532 -0.0205519 10.341 -0.0209453C11.408 -0.0220102 12.475 -0.0229029 13.5421 -0.023061C13.6104 -0.0230712 13.6787 -0.0230814 13.7491 -0.0230919C13.8876 -0.0231119 14.0261 -0.0231317 14.1646 -0.0231513C14.2334 -0.0231613 14.3022 -0.0231712 14.373 -0.0231815C14.4418 -0.0231913 14.5107 -0.0232011 14.5816 -0.0232112C15.6977 -0.0234041 16.8138 -0.0248752 17.9299 -0.0269092C19.0749 -0.0289794 20.22 -0.0300355 21.365 -0.030052C22.0082 -0.0300839 22.6515 -0.0305494 23.2947 -0.0321199C23.8423 -0.0334508 24.3899 -0.0338525 24.9375 -0.0330316C25.2171 -0.0326402 25.4966 -0.0326937 25.7762 -0.0339247C26.0319 -0.0350401 26.2876 -0.0349086 26.5434 -0.0337682C26.636 -0.0335771 26.7287 -0.0338494 26.8214 -0.0346229C26.9471 -0.0356047 27.0727 -0.0349202 27.1984 -0.0338094C27.3033 -0.0338759 27.3033 -0.0338759 27.4103 -0.0339437C27.6471 0.010304 27.7253 0.0761613 27.8639 0.272086C27.8907 0.425168 27.9006 0.545228 27.898 0.697958C27.8984 0.740694 27.8988 0.78343 27.8992 0.827462C27.9001 0.971235 27.8991 1.11493 27.8981 1.2587C27.8984 1.36259 27.8988 1.46648 27.8993 1.57037C27.9003 1.8563 27.8997 2.14222 27.8987 2.42815C27.898 2.73637 27.8988 3.04458 27.8995 3.3528C27.9005 3.9569 27.9 4.56099 27.899 5.16509C27.8983 5.65619 27.8981 6.14729 27.8982 6.63838C27.8983 6.70823 27.8983 6.77807 27.8983 6.85002C27.8984 6.9919 27.8984 7.13378 27.8985 7.27566C27.899 8.56921 27.898 9.86277 27.8963 11.1563C27.8948 12.3364 27.8945 13.5166 27.8953 14.6967C27.8955 14.9986 27.8957 15.3006 27.8959 15.6026C27.896 15.6583 27.896 15.6583 27.896 15.7152C27.8966 16.7017 27.8962 17.6882 27.8955 18.6748C27.8954 18.8163 27.8953 18.9578 27.8952 19.0992C27.8951 19.1689 27.8951 19.2385 27.895 19.3102C27.8947 19.8004 27.8949 20.2906 27.8953 20.7808C27.8957 21.3787 27.8953 21.9765 27.894 22.5744C27.8933 22.8794 27.893 23.1843 27.8936 23.4893C27.8941 23.7687 27.8936 24.0482 27.8924 24.3276C27.8921 24.4284 27.8922 24.5293 27.8927 24.6301C27.897 25.5973 27.7157 26.3668 27.0306 27.0918C26.3112 27.7713 25.4994 27.8971 24.5503 27.8901C24.4532 27.8902 24.3561 27.8904 24.2589 27.8907C23.9937 27.8912 23.7285 27.8903 23.4633 27.8892C23.1766 27.8883 22.89 27.8886 22.6033 27.8888C22.1073 27.8889 21.6112 27.8882 21.1152 27.887C20.398 27.8852 19.6807 27.8846 18.9635 27.8843C17.7998 27.8839 16.636 27.8824 15.4723 27.8804C14.3421 27.8784 13.2119 27.8768 12.0817 27.8759C12.012 27.8758 11.9423 27.8758 11.8705 27.8757C11.5207 27.8754 11.171 27.8752 10.8212 27.8749C7.92162 27.8726 5.02203 27.8688 2.12244 27.8639C2.12244 27.846 2.12244 27.828 2.12244 27.8095C2.18273 27.8034 2.18273 27.8034 2.24425 27.7972C2.80606 27.7244 3.28416 27.5234 3.67367 27.1012C4.00484 26.6619 4.15317 26.167 4.14983 25.6207C4.15008 25.5552 4.15008 25.5552 4.15034 25.4882C4.15077 25.3418 4.15043 25.1953 4.1501 25.0489C4.15025 24.9428 4.15046 24.8367 4.15071 24.7306C4.15125 24.4391 4.15112 24.1476 4.15088 23.8561C4.15075 23.5418 4.15124 23.2274 4.15167 22.913C4.15232 22.3683 4.1526 21.8236 4.15264 21.2789C4.15271 20.4547 4.15363 19.6306 4.15472 18.8064C4.15515 18.4756 4.15555 18.1449 4.15595 17.8141C4.15599 17.7774 4.15604 17.7406 4.15608 17.7028C4.15714 16.8283 4.15787 15.9539 4.15854 15.0795C4.15857 15.0413 4.1586 15.003 4.15863 14.9636C4.15931 14.0707 4.15989 13.1778 4.16037 12.285C4.16054 11.9751 4.16071 11.6651 4.16088 11.3552C4.1609 11.317 4.16092 11.2787 4.16094 11.2393C4.16142 10.3662 4.16202 9.49308 4.16311 8.61996C4.16316 8.58327 4.16321 8.54659 4.16325 8.50879C4.16376 8.10643 4.16431 7.70407 4.16489 7.30171C4.16599 6.51557 4.16655 5.72942 4.16641 4.94328C4.16636 4.40497 4.16688 3.86666 4.16786 3.32835C4.16841 3.01749 4.16869 2.70664 4.16826 2.39579C4.16787 2.11147 4.16822 1.82716 4.16918 1.54283C4.16939 1.43975 4.16932 1.33666 4.16895 1.23357C4.1685 1.09387 4.16904 0.954211 4.16983 0.814513C4.16946 0.774126 4.16908 0.733738 4.1687 0.692127C4.17138 0.451973 4.2049 0.299087 4.35373 0.108821C4.55541 -0.0256322 4.65578 -0.01381 4.89669 -0.014176ZM21.932 3.70066C21.6817 4.01186 21.5902 4.30754 21.6088 4.70406C21.6579 5.10705 21.8235 5.36397 22.1293 5.62583C22.4297 5.8476 22.7657 6.01163 23.0986 6.17884C23.1641 6.21195 23.1641 6.21195 23.2309 6.24573C23.2702 6.26525 23.3096 6.28477 23.3501 6.30488C23.4595 6.36952 23.5365 6.43425 23.619 6.53059C23.6523 6.67896 23.6462 6.81669 23.619 6.96597C23.4983 7.12193 23.3931 7.1312 23.2007 7.17685C22.8394 7.20902 22.5408 7.06938 22.2449 6.87413C22.1179 6.79125 22.041 6.74833 21.8912 6.71427C21.7055 6.76584 21.6497 6.85832 21.551 7.02039C21.4824 7.22196 21.4827 7.31171 21.5612 7.51019C21.7763 7.7982 22.2355 7.99679 22.585 8.0544C23.1965 8.09318 23.724 8.08875 24.2381 7.71427C24.5612 7.37581 24.674 6.9903 24.6679 6.52953C24.6321 6.13834 24.4744 5.80168 24.1841 5.53591C23.814 5.26832 23.3891 5.07997 22.9796 4.88093C22.8278 4.8021 22.7435 4.7559 22.6395 4.62583C22.6429 4.43195 22.6429 4.43195 22.6939 4.24488C22.9544 4.05772 23.3151 4.10999 23.619 4.13603C23.7366 4.17473 23.7366 4.17473 23.8299 4.22107C24.0448 4.31992 24.157 4.3181 24.381 4.24488C24.5095 4.07216 24.5433 3.9629 24.5476 3.74828C24.4668 3.52963 24.3693 3.47901 24.1633 3.37413C23.4635 3.11496 22.4924 3.17308 21.932 3.70066ZM7.47503 3.37696C7.36196 3.53965 7.37819 3.7074 7.37936 3.89858C7.37899 3.9408 7.37861 3.98303 7.37823 4.02653C7.37723 4.16622 7.37745 4.30587 7.37775 4.44556C7.37751 4.54255 7.37722 4.63953 7.37689 4.73652C7.3764 4.93983 7.37654 5.14313 7.37708 5.34644C7.3777 5.60724 7.3766 5.868 7.37501 6.12879C7.37402 6.32908 7.37403 6.52936 7.37434 6.72965C7.37435 6.82582 7.37402 6.92198 7.37334 7.01815C7.37254 7.1525 7.37311 7.28677 7.37405 7.42111C7.37352 7.46098 7.37299 7.50085 7.37245 7.54192C7.37506 7.72018 7.37753 7.81214 7.50435 7.94297C7.63411 8.00747 7.71951 8.02187 7.86394 8.02039C7.90491 8.02081 7.94588 8.02123 7.98809 8.02167C8.15372 7.99192 8.21188 7.96325 8.32652 7.83672C8.35819 7.66099 8.35175 7.48689 8.34778 7.30887C8.34747 7.25716 8.34716 7.20545 8.34685 7.15217C8.34563 6.9869 8.3429 6.82169 8.34013 6.65644C8.33904 6.54445 8.33804 6.43245 8.33715 6.32045C8.33475 6.0458 8.33099 5.7712 8.32652 5.49658C8.36244 5.49658 8.39836 5.49658 8.43537 5.49658C8.44834 5.54127 8.46132 5.58595 8.47469 5.632C8.5573 5.85909 8.66651 6.05909 8.78571 6.26869C8.80939 6.31068 8.83308 6.35267 8.85748 6.39593C8.90797 6.48523 8.9586 6.57443 9.00937 6.66357C9.09013 6.80569 9.16997 6.94831 9.24978 7.09097C9.30253 7.18425 9.35532 7.2775 9.40815 7.37073C9.43274 7.41483 9.45732 7.45894 9.48265 7.50438C9.64414 7.79893 9.64414 7.79893 9.90475 7.99998C10.0255 8.02355 10.0255 8.02355 10.1497 8.01699C10.1906 8.01678 10.2316 8.01657 10.2738 8.01635C10.4081 7.99814 10.4973 7.96245 10.6122 7.89114C10.6942 7.7272 10.6756 7.55774 10.6763 7.37786C10.6767 7.33618 10.677 7.29449 10.6774 7.25154C10.6784 7.11334 10.6791 6.97514 10.6796 6.83693C10.6798 6.7898 10.6801 6.74267 10.6803 6.69411C10.6814 6.4448 10.6822 6.1955 10.6827 5.94618C10.6833 5.68825 10.6852 5.43035 10.6874 5.17243C10.6888 4.97443 10.6892 4.77644 10.6894 4.57844C10.6897 4.48333 10.6903 4.38823 10.6913 4.29312C10.6927 4.16021 10.6926 4.02736 10.6922 3.89444C10.6929 3.855 10.6936 3.81556 10.6943 3.77492C10.6925 3.59796 10.6901 3.50723 10.5645 3.3771C10.427 3.3088 10.3301 3.29613 10.1769 3.2959C10.1308 3.29485 10.0848 3.29379 10.0374 3.29271C9.85168 3.33051 9.80008 3.38434 9.68707 3.53739C9.65341 3.70681 9.65415 3.87443 9.6539 4.04675C9.653 4.09597 9.6521 4.14518 9.65118 4.19589C9.64854 4.35282 9.64737 4.50971 9.64625 4.66665C9.64472 4.77315 9.64309 4.87966 9.64136 4.98616C9.63734 5.247 9.63464 5.50783 9.63265 5.76869C9.60984 5.72232 9.60984 5.72232 9.58657 5.67502C9.32343 5.14054 9.0557 4.60899 8.7721 4.08501C8.74798 4.03968 8.72386 3.99434 8.69901 3.94763C8.56602 3.70466 8.44102 3.49122 8.21768 3.31971C8.05403 3.28108 8.05403 3.28108 7.88434 3.2925C7.82808 3.29306 7.77182 3.29362 7.71385 3.2942C7.56841 3.3091 7.56841 3.3091 7.47503 3.37696ZM11.7674 3.37669C11.664 3.54144 11.6775 3.71 11.6787 3.89858C11.6783 3.9408 11.6779 3.98303 11.6776 4.02653C11.6766 4.16622 11.6768 4.30587 11.6771 4.44556C11.6768 4.54255 11.6765 4.63953 11.6762 4.73652C11.6757 4.93983 11.6759 5.14313 11.6764 5.34644C11.677 5.60724 11.6759 5.868 11.6743 6.12879C11.6733 6.32908 11.6734 6.52936 11.6737 6.72965C11.6737 6.82582 11.6733 6.92198 11.6727 7.01815C11.6719 7.1525 11.6724 7.28677 11.6734 7.42111C11.6728 7.46098 11.6723 7.50085 11.6718 7.54192C11.6743 7.71386 11.6786 7.8118 11.7949 7.94295C11.9339 8.00717 12.0274 8.02098 12.1803 8.02197C12.232 8.02266 12.2838 8.02335 12.3371 8.02406C12.3926 8.0239 12.4481 8.02374 12.5053 8.02358C12.5626 8.02386 12.6199 8.02415 12.6789 8.02444C12.7999 8.02479 12.9209 8.02472 13.0419 8.02426C13.2274 8.02379 13.4128 8.02536 13.5983 8.02709C13.7158 8.02717 13.8334 8.02714 13.9509 8.02698C14.0343 8.0279 14.0343 8.0279 14.1194 8.02883C14.171 8.02832 14.2226 8.02781 14.2757 8.02729C14.3438 8.02727 14.3438 8.02727 14.4133 8.02726C14.539 8.00915 14.539 8.00915 14.6269 7.90134C14.7248 7.72738 14.7149 7.5974 14.6939 7.40134C14.6439 7.27478 14.6439 7.27478 14.5306 7.18365C14.379 7.16428 14.2492 7.15823 14.098 7.1624C14.0349 7.16286 14.0349 7.16286 13.9706 7.16333C13.8364 7.16455 13.7022 7.16728 13.568 7.17005C13.477 7.17114 13.386 7.17213 13.295 7.17303C13.0719 7.17524 12.8489 7.1795 12.6258 7.18365C12.6258 6.80651 12.6258 6.42937 12.6258 6.0408C13.1258 6.0544 13.1258 6.0544 13.2819 6.06041C13.5065 6.06336 13.6302 6.05842 13.8274 5.94131C13.9455 5.82823 13.9455 5.82823 13.9626 5.65984C13.9235 5.45154 13.8881 5.40087 13.7143 5.27889C13.5275 5.2519 13.3447 5.25849 13.1565 5.26529C12.9814 5.26978 12.8063 5.27427 12.6258 5.27889C12.6258 4.90175 12.6258 4.52461 12.6258 4.13603C12.8224 4.13982 12.8224 4.13982 13.023 4.14369C13.1501 4.14539 13.2773 4.14671 13.4044 4.14799C13.4927 4.14909 13.581 4.15057 13.6692 4.15246C13.7962 4.1551 13.9231 4.15633 14.0502 4.15729C14.0895 4.15842 14.1289 4.15954 14.1694 4.1607C14.3591 4.16078 14.4577 4.15028 14.61 4.03278C14.7507 3.8409 14.7198 3.71631 14.6939 3.48297C14.607 3.36119 14.5591 3.32464 14.4108 3.29898C14.3643 3.29885 14.3178 3.29872 14.2699 3.29858C14.1906 3.29781 14.1906 3.29781 14.1097 3.29702C14.0527 3.29735 13.9958 3.29768 13.9371 3.29802C13.8785 3.29787 13.8199 3.29771 13.7596 3.29755C13.6357 3.29744 13.5118 3.29774 13.3879 3.29842C13.198 3.2993 13.0082 3.29843 12.8182 3.29739C12.698 3.29749 12.5777 3.2977 12.4575 3.29802C12.372 3.29753 12.372 3.29753 12.2848 3.29702C12.232 3.29754 12.1791 3.29805 12.1247 3.29858C12.0549 3.29878 12.0549 3.29878 11.9837 3.29898C11.863 3.3126 11.863 3.3126 11.7674 3.37669ZM15.1292 3.59182C15.1342 3.6959 15.1342 3.6959 15.1667 3.8114C15.1777 3.85537 15.1887 3.89933 15.2 3.94463C15.2609 4.16362 15.3287 4.37966 15.4001 4.59543C15.4157 4.6432 15.4313 4.69097 15.4473 4.74019C15.4975 4.89377 15.548 5.04722 15.5986 5.20066C15.6334 5.30625 15.6681 5.41184 15.7028 5.51744C15.7543 5.67425 15.8059 5.83104 15.8576 5.9878C15.9528 6.27679 16.0463 6.56622 16.1375 6.85649C16.1664 6.94687 16.1664 6.94687 16.1958 7.03908C16.2296 7.14529 16.2628 7.25169 16.2953 7.35831C16.3846 7.63491 16.4724 7.81357 16.7075 7.99998C16.9807 8.09107 17.2163 8.0832 17.4864 7.99658C17.8278 7.75042 17.8624 7.24871 17.9422 6.86053C17.9544 6.80254 17.9667 6.74456 17.9793 6.68482C18.0092 6.54278 18.0388 6.40067 18.068 6.25848C18.1429 6.4603 18.1948 6.66067 18.2375 6.87116C18.2482 6.92314 18.2589 6.97512 18.2699 7.02868C18.2918 7.13682 18.3131 7.2451 18.3336 7.35351C18.3982 7.66873 18.3982 7.66873 18.584 7.92473C18.8838 8.08931 19.1376 8.08686 19.466 8.00338C19.8983 7.7342 19.9963 7.03088 20.1509 6.56546C20.1707 6.5063 20.1707 6.5063 20.1908 6.44595C20.2601 6.23789 20.3291 6.02973 20.3979 5.82149C20.4688 5.60682 20.5409 5.39253 20.6131 5.17829C20.6687 5.01284 20.7235 4.84714 20.7781 4.68135C20.8043 4.60218 20.8308 4.52312 20.8577 4.44415C20.895 4.334 20.9312 4.22353 20.9671 4.11292C20.9984 4.01888 20.9984 4.01888 21.0303 3.92293C21.0655 3.73169 21.0466 3.65072 20.9524 3.48297C20.7207 3.2794 20.4819 3.30256 20.1905 3.31971C20.0321 3.66148 19.9271 4.01409 19.8208 4.37498C19.7921 4.47143 19.7921 4.47143 19.7629 4.56984C19.7228 4.7052 19.6828 4.84059 19.6429 4.97601C19.6019 5.11488 19.5608 5.25371 19.5195 5.39247C19.4598 5.59292 19.4005 5.79346 19.3412 5.99403C19.3227 6.05627 19.3041 6.11852 19.285 6.18265C19.2681 6.24024 19.2512 6.29784 19.2338 6.35718C19.2113 6.43322 19.2113 6.43322 19.1884 6.5108C19.1499 6.64375 19.1499 6.64375 19.1565 6.8027C19.1205 6.8027 19.0846 6.8027 19.0476 6.8027C19.0391 6.74625 19.0391 6.74625 19.0304 6.68866C18.9579 6.23047 18.8596 5.78095 18.7517 5.32991C18.7352 5.25824 18.7187 5.18656 18.7023 5.11488C18.6861 5.04715 18.6699 4.97942 18.6533 4.90963C18.6389 4.84852 18.6244 4.78742 18.6096 4.72446C18.558 4.57194 18.5216 4.50389 18.3946 4.40814C18.2786 4.37286 18.2786 4.37286 18.1531 4.36393C18.1116 4.35909 18.0701 4.35424 18.0274 4.34926C17.8825 4.35453 17.8096 4.38582 17.6871 4.46257C17.5261 4.85102 17.443 5.26596 17.3487 5.6749C17.3229 5.7865 17.2966 5.89797 17.2703 6.00944C17.2537 6.0809 17.237 6.15236 17.2204 6.22383C17.2055 6.28798 17.1906 6.35212 17.1752 6.4182C17.1359 6.59231 17.1359 6.59231 17.1429 6.8027C17.1069 6.8027 17.071 6.8027 17.034 6.8027C17.0198 6.73524 17.0057 6.66777 16.9911 6.59826C16.921 6.28351 16.832 5.97503 16.7417 5.66558C16.7241 5.60519 16.7065 5.54479 16.6884 5.48257C16.6514 5.35571 16.6143 5.22889 16.5772 5.10209C16.5203 4.90792 16.4642 4.71358 16.4081 4.51922C16.3719 4.39566 16.3357 4.27211 16.2995 4.14858C16.2829 4.09053 16.2662 4.03247 16.249 3.97267C16.233 3.91869 16.217 3.86472 16.2006 3.80912C16.1868 3.76177 16.173 3.71443 16.1587 3.66565C16.1042 3.52539 16.0496 3.4287 15.9456 3.31971C15.5894 3.27949 15.3877 3.33334 15.1292 3.59182ZM7.43536 10.1326C7.30337 10.3611 7.21194 10.571 7.25849 10.8382C7.34026 11.0877 7.44253 11.2377 7.67346 11.3741C8.01376 11.5 8.33462 11.4983 8.69475 11.4968C8.79118 11.4971 8.79118 11.4971 8.88955 11.4973C9.06728 11.4977 9.245 11.4975 9.42273 11.4972C9.61467 11.497 9.80662 11.4973 9.99856 11.4976C10.3743 11.4981 10.75 11.498 11.1258 11.4977C11.4312 11.4975 11.7366 11.4974 12.042 11.4975C12.0855 11.4976 12.129 11.4976 12.1738 11.4976C12.2622 11.4976 12.3505 11.4977 12.4389 11.4977C13.2671 11.498 14.0953 11.4977 14.9235 11.4971C15.6339 11.4966 16.3444 11.4967 17.0548 11.4972C17.8801 11.4978 18.7054 11.498 19.5306 11.4976C19.6187 11.4976 19.7067 11.4976 19.7947 11.4975C19.838 11.4975 19.8813 11.4975 19.9259 11.4975C20.2309 11.4974 20.5359 11.4976 20.8409 11.4978C21.2127 11.4981 21.5844 11.498 21.9562 11.4975C22.1458 11.4972 22.3354 11.4971 22.5251 11.4974C22.7307 11.4977 22.9363 11.4973 23.142 11.4968C23.2317 11.4972 23.2317 11.4972 23.3233 11.4975C23.86 11.4969 23.86 11.4969 24.3163 11.2415C24.5307 10.9904 24.5685 10.8522 24.5614 10.531C24.536 10.3297 24.4612 10.2172 24.3265 10.068C24.0782 9.88795 23.866 9.8436 23.5638 9.84317C23.5085 9.84296 23.4532 9.84275 23.3962 9.84254C23.3355 9.84258 23.2748 9.84263 23.2123 9.84268C23.1154 9.84244 23.1154 9.84244 23.0167 9.84219C22.8374 9.8418 22.6582 9.84165 22.479 9.84161C22.2857 9.84151 22.0924 9.8411 21.8991 9.84074C21.4764 9.84 21.0538 9.83967 20.6311 9.83943C20.3672 9.83928 20.1032 9.83905 19.8393 9.8388C19.1085 9.83814 18.3777 9.83758 17.6468 9.83739C17.5767 9.83738 17.5767 9.83738 17.5051 9.83736C17.4582 9.83735 17.4114 9.83733 17.363 9.83732C17.268 9.8373 17.173 9.83727 17.078 9.83725C17.0309 9.83724 16.9838 9.83722 16.9352 9.83721C16.1717 9.837 15.4082 9.83605 14.6446 9.83478C13.8607 9.83349 13.0767 9.83281 12.2927 9.83275C11.8526 9.8327 11.4124 9.83239 10.9723 9.8314C10.5975 9.83056 10.2227 9.83028 9.84786 9.83073C9.65668 9.83094 9.46551 9.83089 9.27434 9.83013C9.06692 9.82944 8.85952 9.82975 8.65211 9.83032C8.5919 9.82988 8.5317 9.82945 8.46967 9.82899C8.07923 9.8315 7.73558 9.85613 7.43536 10.1326ZM7.37754 13.4898C7.24698 13.7509 7.21015 13.8979 7.29931 14.1803C7.42005 14.4016 7.55314 14.5793 7.7823 14.6939C7.87071 14.6992 7.95934 14.701 8.04791 14.7012C8.10438 14.7014 8.16086 14.7017 8.21905 14.7019C8.31283 14.7019 8.31283 14.7019 8.40852 14.7019C8.47457 14.7021 8.54062 14.7023 8.60867 14.7025C8.79259 14.703 8.97652 14.7032 9.16045 14.7034C9.35859 14.7036 9.55673 14.7041 9.75488 14.7046C10.2337 14.7057 10.7126 14.7062 11.1914 14.7067C11.4168 14.7069 11.6422 14.7072 11.8676 14.7075C12.6168 14.7084 13.3659 14.7092 14.1151 14.7096C14.3096 14.7097 14.5041 14.7098 14.6985 14.7099C14.7469 14.71 14.7952 14.71 14.845 14.71C15.6281 14.7105 16.4112 14.7118 17.1943 14.7136C17.9981 14.7154 18.8018 14.7164 19.6055 14.7166C20.0569 14.7167 20.5082 14.7172 20.9596 14.7185C21.344 14.7197 21.7284 14.7202 22.1128 14.7196C22.309 14.7194 22.5051 14.7195 22.7012 14.7205C22.9139 14.7217 23.1265 14.7211 23.3392 14.7204C23.4012 14.721 23.4631 14.7216 23.5269 14.7222C23.8785 14.7193 24.0951 14.6861 24.381 14.4762C24.5679 14.2711 24.5726 14.0592 24.5627 13.7923C24.5341 13.5875 24.4686 13.4825 24.3265 13.3333C23.983 13.0898 23.6454 13.0847 23.2364 13.088C23.1386 13.0875 23.1386 13.0875 23.0389 13.087C22.8589 13.0862 22.6789 13.0865 22.4989 13.0872C22.3044 13.0877 22.11 13.0869 21.9155 13.0863C21.5349 13.0853 21.1543 13.0855 20.7737 13.0862C20.4644 13.0867 20.155 13.0867 19.8456 13.0865C19.7795 13.0865 19.7795 13.0865 19.7121 13.0864C19.6225 13.0863 19.533 13.0863 19.4435 13.0862C18.6043 13.0856 17.7652 13.0863 16.9261 13.0875C16.2065 13.0884 15.4868 13.0883 14.7672 13.0873C13.931 13.0861 13.0949 13.0856 12.2587 13.0863C12.1695 13.0864 12.0803 13.0864 11.9911 13.0865C11.9472 13.0865 11.9033 13.0866 11.8581 13.0866C11.5492 13.0868 11.2403 13.0865 10.9314 13.086C10.5548 13.0854 10.1782 13.0855 9.80158 13.0867C9.60952 13.0872 9.41747 13.0875 9.22541 13.0868C9.01704 13.086 8.80871 13.0869 8.60035 13.088C8.53987 13.0875 8.47939 13.087 8.41708 13.0865C7.9877 13.0909 7.66339 13.1526 7.37754 13.4898ZM7.43877 16.6633C7.32329 16.8557 7.25183 17.0262 7.23809 17.2517C7.32038 17.5373 7.44793 17.7131 7.67346 17.9048C7.82488 17.9552 7.91674 17.9663 8.07316 17.9672C8.1456 17.9678 8.1456 17.9678 8.2195 17.9684C8.29876 17.9686 8.29876 17.9686 8.37963 17.9688C8.43539 17.9692 8.49116 17.9695 8.54861 17.9699C8.73344 17.971 8.91827 17.9716 9.1031 17.9721C9.19772 17.9725 9.19772 17.9725 9.29427 17.9728C9.6281 17.9739 9.96193 17.9747 10.2958 17.9752C10.6407 17.9758 10.9857 17.9777 11.3306 17.9799C11.5958 17.9813 11.8609 17.9818 12.126 17.9819C12.2532 17.9822 12.3804 17.9828 12.5076 17.9839C12.6855 17.9852 12.8634 17.9851 13.0414 17.9848C13.0939 17.9854 13.1464 17.9861 13.2005 17.9869C13.5165 17.9844 13.6893 17.9481 13.932 17.7415C14.0885 17.5634 14.1438 17.4218 14.1667 17.1837C14.1468 16.9454 14.0892 16.777 13.932 16.5986C13.6211 16.3744 13.3163 16.3497 12.9436 16.3536C12.8901 16.3533 12.8365 16.353 12.7812 16.3527C12.6052 16.3521 12.4292 16.353 12.2532 16.3539C12.1303 16.3539 12.0073 16.3539 11.8844 16.3537C11.6273 16.3536 11.3702 16.3543 11.113 16.3556C10.7839 16.3571 10.4547 16.3569 10.1256 16.3563C9.87193 16.3559 9.61828 16.3563 9.36463 16.357C9.24327 16.3572 9.12192 16.3572 9.00057 16.357C8.83086 16.3569 8.66118 16.3578 8.49147 16.359C8.44162 16.3587 8.39177 16.3585 8.34041 16.3582C7.98373 16.3623 7.7075 16.4091 7.43877 16.6633ZM16.0738 16.6258C15.8899 16.8619 15.8301 17.016 15.8287 17.3114C15.8283 17.3688 15.8279 17.4261 15.8275 17.4852C15.8274 17.5482 15.8272 17.6111 15.8271 17.676C15.8267 17.7423 15.8264 17.8085 15.826 17.8768C15.8249 18.0968 15.8243 18.3167 15.8238 18.5366C15.8235 18.6123 15.8233 18.6881 15.8231 18.7639C15.8221 19.12 15.8213 19.4761 15.8208 19.8322C15.8203 20.2429 15.8189 20.6535 15.8167 21.0642C15.815 21.3818 15.8142 21.6995 15.814 22.0171C15.8139 22.2068 15.8134 22.3963 15.8121 22.5859C15.8105 22.7976 15.8108 23.0093 15.8112 23.221C15.8105 23.2835 15.8098 23.346 15.809 23.4104C15.8113 23.763 15.8294 23.9936 16.0544 24.2721C16.3919 24.5512 16.7447 24.5207 17.1678 24.518C17.2419 24.5183 17.316 24.5186 17.39 24.5191C17.5903 24.5201 17.7905 24.5197 17.9908 24.519C18.2007 24.5185 18.4107 24.519 18.6207 24.5193C18.9732 24.5197 19.3256 24.5192 19.6781 24.5182C20.0852 24.517 20.4923 24.5174 20.8994 24.5186C21.2495 24.5196 21.5996 24.5197 21.9496 24.5191C22.1585 24.5188 22.3673 24.5187 22.5762 24.5195C22.7725 24.5201 22.9688 24.5196 23.1651 24.5184C23.2713 24.518 23.3774 24.5186 23.4835 24.5193C23.9485 24.5148 23.9485 24.5148 24.3265 24.2721C24.5704 24.015 24.6051 23.7959 24.6063 23.4505C24.6066 23.3959 24.6069 23.3413 24.6072 23.285C24.6073 23.2257 24.6073 23.1664 24.6074 23.1053C24.6077 23.0423 24.608 22.9794 24.6082 22.9145C24.609 22.7063 24.6094 22.4981 24.6097 22.29C24.6099 22.1817 24.6102 22.0735 24.6104 21.9653C24.611 21.6637 24.6115 21.3621 24.6116 21.0605C24.6119 20.6715 24.6128 20.2825 24.6144 19.8934C24.6156 19.592 24.6161 19.2906 24.6162 18.9892C24.6163 18.8095 24.6167 18.6299 24.6176 18.4502C24.6185 18.2495 24.6184 18.0488 24.618 17.848C24.6188 17.7597 24.6188 17.7597 24.6196 17.6696C24.6176 17.3078 24.6062 16.908 24.3602 16.6192C24.1118 16.3992 23.9065 16.3743 23.5862 16.3733C23.493 16.3728 23.493 16.3728 23.398 16.3724C23.2961 16.3723 23.2961 16.3723 23.1922 16.3722C23.1205 16.3719 23.0488 16.3716 22.9749 16.3714C22.7784 16.3706 22.5818 16.3703 22.3853 16.37C22.2624 16.3699 22.1396 16.3697 22.0167 16.3694C21.6322 16.3687 21.2476 16.3682 20.8631 16.3679C20.4195 16.3677 19.9759 16.3667 19.5323 16.3652C19.1891 16.364 18.846 16.3634 18.5029 16.3634C18.298 16.3633 18.0932 16.363 17.8884 16.362C17.6957 16.3611 17.503 16.361 17.3103 16.3615C17.2061 16.3615 17.1019 16.3608 16.9977 16.36C16.6341 16.3618 16.3551 16.3692 16.0738 16.6258ZM7.44217 19.9286C7.3226 20.1207 7.25236 20.2899 7.23809 20.517C7.3251 20.8379 7.46795 20.982 7.72788 21.1701C7.85338 21.2328 7.92492 21.2316 8.06455 21.2321C8.11231 21.2324 8.16007 21.2327 8.20928 21.2331C8.28807 21.2332 8.28807 21.2332 8.36845 21.2333C8.45129 21.2337 8.45129 21.2337 8.53581 21.2341C8.71916 21.2349 8.90252 21.2352 9.08588 21.2355C9.21305 21.2358 9.34023 21.2362 9.46741 21.2365C9.73441 21.237 10.0014 21.2374 10.2684 21.2376C10.6105 21.2379 10.9526 21.2392 11.2947 21.2407C11.5575 21.2417 11.8204 21.242 12.0832 21.2421C12.2093 21.2423 12.3354 21.2427 12.4616 21.2434C12.6381 21.2443 12.8146 21.2442 12.9911 21.2439C13.0432 21.2444 13.0953 21.2449 13.149 21.2454C13.4331 21.2436 13.6324 21.2213 13.8775 21.0612C14.0614 20.8625 14.1405 20.7206 14.1667 20.449C14.1468 20.2107 14.0891 20.0423 13.932 19.8639C13.6197 19.6381 13.3123 19.615 12.9378 19.6189C12.8836 19.6187 12.8294 19.6184 12.7735 19.6181C12.5954 19.6174 12.4174 19.6183 12.2394 19.6193C12.1151 19.6192 11.9908 19.6192 11.8666 19.619C11.6066 19.6189 11.3467 19.6196 11.0868 19.6209C10.7538 19.6224 10.4209 19.6223 10.088 19.6216C9.83158 19.6212 9.57517 19.6216 9.31877 19.6223C9.196 19.6225 9.07324 19.6225 8.95047 19.6223C8.77892 19.6222 8.60741 19.6231 8.43587 19.6243C8.38531 19.624 8.33476 19.6238 8.28267 19.6235C7.93801 19.6275 7.69807 19.6798 7.44217 19.9286ZM7.44217 23.1939C7.3226 23.386 7.25236 23.5552 7.23809 23.7823C7.3251 24.1032 7.46795 24.2473 7.72788 24.4354C7.85338 24.4981 7.92492 24.4969 8.06455 24.4974C8.11231 24.4977 8.16007 24.4981 8.20928 24.4984C8.28807 24.4985 8.28807 24.4985 8.36845 24.4986C8.45129 24.499 8.45129 24.499 8.53581 24.4994C8.71916 24.5002 8.90252 24.5005 9.08588 24.5008C9.21305 24.5012 9.34023 24.5015 9.46741 24.5018C9.73441 24.5024 10.0014 24.5027 10.2684 24.5029C10.6105 24.5032 10.9526 24.5045 11.2947 24.506C11.5575 24.507 11.8204 24.5073 12.0832 24.5074C12.2093 24.5076 12.3354 24.508 12.4616 24.5087C12.6381 24.5096 12.8146 24.5095 12.9911 24.5092C13.0432 24.5097 13.0953 24.5102 13.149 24.5107C13.4331 24.5089 13.6324 24.4866 13.8775 24.3265C14.0614 24.1278 14.1405 23.9859 14.1667 23.7143C14.1468 23.4762 14.096 23.3056 13.932 23.1292C13.6146 22.9067 13.3755 22.8803 12.9934 22.8843C12.9387 22.884 12.8839 22.8837 12.8275 22.8834C12.6474 22.8827 12.4673 22.8836 12.2872 22.8846C12.1616 22.8846 12.0361 22.8845 11.9105 22.8843C11.6477 22.8842 11.3849 22.8849 11.1221 22.8862C10.7854 22.8877 10.4488 22.8876 10.1121 22.8869C9.85293 22.8865 9.59377 22.8869 9.33461 22.8876C9.21048 22.8878 9.08634 22.8879 8.96221 22.8876C8.7887 22.8875 8.61523 22.8884 8.44173 22.8896C8.39058 22.8893 8.33943 22.8891 8.28673 22.8888C7.94036 22.8928 7.69943 22.9438 7.44217 23.1939Z" fill="#0F00FF"/>
<path d="M0.604303 11.6945C0.648963 11.6945 0.693622 11.6945 0.739636 11.6945C0.811582 11.695 0.811582 11.695 0.884982 11.6954C0.958924 11.6955 0.958924 11.6955 1.03436 11.6956C1.19184 11.6959 1.34932 11.6966 1.50679 11.6973C1.61355 11.6976 1.7203 11.6978 1.82705 11.6981C2.08878 11.6987 2.35051 11.6996 2.61224 11.7007C2.61721 13.4108 2.62106 15.121 2.62335 16.8311C2.62363 17.0331 2.62391 17.2352 2.62419 17.4372C2.62425 17.4774 2.62431 17.5176 2.62437 17.5591C2.62531 18.2098 2.62703 18.8604 2.62903 19.5111C2.63107 20.1791 2.63228 20.8471 2.63272 21.5151C2.63302 21.9271 2.63396 22.339 2.63573 22.751C2.63702 23.0672 2.63715 23.3835 2.63686 23.6997C2.63692 23.8292 2.63735 23.9587 2.63819 24.0881C2.63927 24.2653 2.63901 24.4424 2.63841 24.6195C2.63905 24.6704 2.63968 24.7214 2.64034 24.7738C2.63668 25.179 2.546 25.5537 2.28762 25.8742C2.25219 25.9023 2.21676 25.9303 2.18026 25.9592C2.12733 26.003 2.12733 26.003 2.07333 26.0477C1.71474 26.2827 1.34152 26.2695 0.92516 26.2313C0.598578 26.1375 0.344442 25.937 0.159072 25.6512C-0.00795751 25.3478 -0.0309643 25.0939 -0.0276533 24.7515C-0.0279929 24.6971 -0.0283325 24.6427 -0.0286823 24.5867C-0.0295477 24.4051 -0.0288639 24.2236 -0.0281781 24.0421C-0.0284732 23.9116 -0.0288609 23.7812 -0.029334 23.6507C-0.0302228 23.3337 -0.0300939 23.0167 -0.0294619 22.6997C-0.0289696 22.442 -0.0289039 22.1844 -0.0291406 21.9267C-0.0291739 21.89 -0.0292073 21.8533 -0.0292417 21.8155C-0.0293113 21.7409 -0.0293818 21.6663 -0.0294534 21.5917C-0.0300735 20.893 -0.0293613 20.1943 -0.0281907 19.4955C-0.0272175 18.8961 -0.0273877 18.2967 -0.0283907 17.6972C-0.0295557 17.0007 -0.0300144 16.3041 -0.0293459 15.6076C-0.0292765 15.5333 -0.0292081 15.4591 -0.0291406 15.3848C-0.029107 15.3483 -0.0290734 15.3117 -0.0290388 15.2741C-0.0288509 15.0167 -0.029168 14.7593 -0.0296803 14.5019C-0.0303083 14.1556 -0.0298746 13.8093 -0.0286149 13.463C-0.0283266 13.3357 -0.0284105 13.2085 -0.0288898 13.0813C-0.0294829 12.9079 -0.0287407 12.7345 -0.0276533 12.5612C-0.0281389 12.5106 -0.0286245 12.46 -0.0291248 12.4079C-0.0263658 12.1817 -0.0188307 12.0584 0.100357 11.8612C0.263141 11.714 0.392881 11.6939 0.604303 11.6945Z" fill="#0F00FF"/>
</g>
<defs>
<clipPath id="clip0_134_400">
<rect width="27.864" height="27.864" fill="white"/>
</clipPath>
</defs>
</svg>
