<svg width="35" height="35" viewBox="0 0 35 35" fill="none" xmlns="http://www.w3.org/2000/svg">
<path d="M6.3683 2.12673C6.41459 2.12661 6.46087 2.1265 6.50855 2.12638C6.66278 2.12616 6.81699 2.1269 6.97122 2.12763C7.08212 2.12767 7.19301 2.12765 7.30391 2.12757C7.60438 2.12753 7.90486 2.12832 8.20533 2.12926C8.51956 2.13009 8.8338 2.13017 9.14803 2.13033C9.74281 2.13075 10.3376 2.13184 10.9324 2.13319C11.6096 2.13469 12.2869 2.13542 12.9641 2.13609C14.3571 2.13749 15.75 2.13985 17.1429 2.14283C17.1434 2.20802 17.144 2.2732 17.1445 2.34035C17.1497 2.95797 17.1556 3.57558 17.1621 4.19318C17.1655 4.51062 17.1686 4.82805 17.1711 5.14549C17.1736 5.45247 17.1767 5.75944 17.1803 6.06641C17.1815 6.18288 17.1825 6.29934 17.1833 6.41581C17.1923 7.7031 17.2707 8.80617 18.2062 9.77284C18.9732 10.4902 19.9042 10.6529 20.9174 10.661C20.9697 10.6617 21.022 10.6624 21.076 10.6631C21.2466 10.6651 21.4173 10.6668 21.5879 10.6685C21.7072 10.6699 21.8264 10.6713 21.9457 10.6727C22.2577 10.6764 22.5698 10.6797 22.8819 10.6829C23.2011 10.6863 23.5203 10.69 23.8395 10.6937C24.4644 10.7009 25.0894 10.7077 25.7143 10.7143C25.7314 11.6229 25.7445 12.5315 25.7525 13.4403C25.7563 13.8623 25.7615 14.2841 25.7699 14.7061C25.7779 15.1134 25.7823 15.5205 25.7842 15.9279C25.7856 16.0832 25.7882 16.2385 25.7922 16.3938C25.7976 16.6116 25.7983 16.829 25.7979 17.0469C25.8019 17.1429 25.8019 17.1429 25.806 17.241C25.8027 17.433 25.7896 17.5684 25.7143 17.7455C25.5494 17.8856 25.3779 17.9823 25.1885 18.0867C24.9612 18.2243 24.7776 18.3841 24.5902 18.57C24.5404 18.6194 24.5404 18.6194 24.4896 18.6697C24.3829 18.7765 24.277 18.884 24.1711 18.9915C24.0934 19.0694 24.0156 19.1472 23.9378 19.225C23.7285 19.4346 23.5199 19.6449 23.3115 19.8555C23.0924 20.0766 22.8724 20.2969 22.6525 20.5173C22.2364 20.9346 21.821 21.3525 21.4058 21.7707C20.7971 22.3837 20.1875 22.996 19.5778 23.608C19.5329 23.6531 19.4881 23.6981 19.4418 23.7445C19.3523 23.8344 19.2628 23.9243 19.1733 24.0141C18.9124 24.276 18.6517 24.5381 18.3913 24.8005C18.229 24.964 18.0665 25.1273 17.904 25.2907C17.8291 25.366 17.7543 25.4414 17.6795 25.5169C17.0425 26.1597 17.0425 26.1597 16.7049 26.4367C16.3386 26.7506 16.2525 27.158 16.14 27.6131C16.1283 27.6599 16.1166 27.7067 16.1046 27.7549C16.0665 27.9078 16.029 28.0608 15.9914 28.2139C15.9649 28.3209 15.9383 28.4278 15.9117 28.5348C15.842 28.8151 15.7728 29.0955 15.7037 29.376C15.606 29.7721 15.5077 30.1681 15.4095 30.5641C15.3572 30.7747 15.3052 30.9854 15.2532 31.1961C15.2295 31.2921 15.2058 31.388 15.1821 31.484C15.1614 31.5678 15.1407 31.6516 15.1195 31.7379C15.0844 31.8742 15.0445 32.0093 15 32.1428C13.8242 32.1491 12.6483 32.1538 11.4725 32.1567C10.9264 32.1581 10.3804 32.16 9.8344 32.163C9.35827 32.1657 8.88215 32.1674 8.40602 32.168C8.1541 32.1684 7.90221 32.1692 7.6503 32.1712C7.41274 32.173 7.17521 32.1735 6.93765 32.1731C6.80981 32.1732 6.68198 32.1747 6.55416 32.1762C5.89875 32.173 5.34625 32.0441 4.85704 31.5872C4.45702 31.1423 4.26922 30.6695 4.26852 30.0698C4.26829 30.0243 4.26805 29.9788 4.26781 29.932C4.26719 29.7796 4.26752 29.6273 4.26784 29.475C4.26759 29.3646 4.26728 29.2543 4.26692 29.1439C4.2661 28.8407 4.26612 28.5375 4.26628 28.2343C4.26631 27.9073 4.26557 27.5803 4.26493 27.2533C4.26382 26.6126 4.26345 25.9719 4.26338 25.3312C4.26331 24.8104 4.26304 24.2896 4.26261 23.7688C4.26143 22.2923 4.26082 20.8158 4.26092 19.3393C4.26092 19.2597 4.26093 19.1801 4.26093 19.0981C4.26094 19.0184 4.26094 18.9387 4.26095 18.8566C4.261 17.5649 4.25972 16.2732 4.25783 14.9815C4.25591 13.6553 4.25498 12.3291 4.2551 11.0029C4.25514 10.2583 4.25478 9.5137 4.25334 8.7691C4.25212 8.13512 4.25182 7.50115 4.25273 6.86717C4.25317 6.54376 4.25318 6.22036 4.25202 5.89695C4.25096 5.60069 4.25115 5.30446 4.25232 5.0082C4.25253 4.90122 4.25228 4.79423 4.25154 4.68726C4.24663 3.93487 4.30745 3.28577 4.84134 2.71412C5.28996 2.31078 5.76388 2.12583 6.3683 2.12673ZM8.83932 10.0488C8.60982 10.3859 8.59439 10.6459 8.63843 11.0491C8.79566 11.3756 8.99251 11.5448 9.30807 11.7187C9.56219 11.7846 9.80287 11.7949 10.0648 11.7965C10.1486 11.7971 10.2324 11.7978 10.3188 11.7984C10.4098 11.7988 10.5009 11.799 10.5919 11.7993C10.6612 11.7996 10.6612 11.7996 10.732 11.7999C10.9767 11.8009 11.2214 11.8015 11.4661 11.8018C11.7174 11.8021 11.9688 11.8038 12.2201 11.8057C12.4146 11.8069 12.6091 11.8073 12.8037 11.8074C12.8963 11.8076 12.9888 11.8081 13.0814 11.809C13.9132 11.8369 13.9132 11.8369 14.6391 11.4876C14.9123 11.1709 14.9569 10.9553 14.9516 10.5495C14.9241 10.2974 14.8338 10.164 14.6652 9.97766C14.2848 9.67816 13.9804 9.63499 13.5067 9.63204C13.381 9.63108 13.381 9.63108 13.2527 9.63009C13.1617 9.62977 13.0706 9.62948 12.9796 9.62923C12.9103 9.62895 12.9103 9.62895 12.8395 9.62866C12.5948 9.62766 12.3501 9.62704 12.1054 9.62675C11.8541 9.62638 11.6027 9.62477 11.3514 9.62286C11.1569 9.62161 10.9624 9.62127 10.7678 9.62117C10.6752 9.62097 10.5827 9.62043 10.4901 9.61955C9.57972 9.59272 9.57972 9.59272 8.83932 10.0488ZM8.83932 14.3345C8.60982 14.6716 8.59439 14.9316 8.63843 15.3348C8.79566 15.6613 8.99251 15.8306 9.30807 16.0044C9.56914 16.0728 9.81669 16.0801 10.0859 16.0808C10.1513 16.0811 10.1513 16.0811 10.218 16.0814C10.3636 16.082 10.5093 16.0821 10.6549 16.0822C10.7595 16.0825 10.8641 16.0828 10.9688 16.0832C11.2527 16.0841 11.5366 16.0845 11.8205 16.0848C11.9981 16.085 12.1756 16.0853 12.3531 16.0856C12.9091 16.0865 13.465 16.0871 14.021 16.0874C14.6619 16.0877 15.3028 16.0889 15.9437 16.0908C16.4396 16.0923 16.9356 16.0929 17.4316 16.093C17.7276 16.0931 18.0235 16.0935 18.3194 16.0947C18.598 16.0958 18.8766 16.0959 19.1551 16.0954C19.257 16.0953 19.3589 16.0956 19.4608 16.0963C20.3193 16.1285 20.3193 16.1285 21.0675 15.7733C21.3411 15.457 21.3855 15.2409 21.3802 14.8352C21.3527 14.5832 21.2623 14.4497 21.0938 14.2634C20.7059 13.958 20.3972 13.9204 19.9142 13.9191C19.8706 13.9189 19.827 13.9187 19.7821 13.9185C19.6364 13.918 19.4908 13.9179 19.3452 13.9178C19.2406 13.9174 19.1359 13.9171 19.0313 13.9168C18.7474 13.9159 18.4635 13.9154 18.1796 13.9151C18.002 13.9149 17.8245 13.9147 17.6469 13.9144C17.091 13.9135 16.535 13.9128 15.9791 13.9126C15.3382 13.9123 14.6973 13.9111 14.0564 13.9091C13.5604 13.9077 13.0645 13.907 12.5685 13.9069C12.2725 13.9069 11.9766 13.9065 11.6806 13.9053C11.4021 13.9042 11.1235 13.904 10.845 13.9046C10.7431 13.9047 10.6411 13.9044 10.5393 13.9037C9.60298 13.8723 9.60298 13.8723 8.83932 14.3345ZM8.83932 18.6202C8.60982 18.9573 8.59439 19.2173 8.63843 19.6205C8.79566 19.9471 8.99251 20.1163 9.30807 20.2902C9.55621 20.3541 9.78955 20.3658 10.0452 20.3665C10.1259 20.3669 10.2066 20.3673 10.2898 20.3677C10.4218 20.3678 10.4218 20.3678 10.5565 20.3679C10.6506 20.3682 10.7447 20.3686 10.8387 20.3689C11.0939 20.3698 11.349 20.3702 11.6042 20.3705C11.7638 20.3707 11.9234 20.371 12.0829 20.3713C12.5828 20.3722 13.0827 20.3729 13.5826 20.3731C14.1586 20.3734 14.7346 20.3746 15.3106 20.3765C15.7566 20.378 16.2025 20.3787 16.6484 20.3787C16.9144 20.3788 17.1804 20.3792 17.4464 20.3804C17.6969 20.3815 17.9473 20.3817 18.1977 20.3811C18.3326 20.381 18.4676 20.3819 18.6025 20.3829C19.3495 20.3885 19.3495 20.3885 19.9964 20.059C20.2693 19.7422 20.3141 19.5268 20.3088 19.1209C20.2813 18.8689 20.1909 18.7354 20.0224 18.5491C19.6484 18.2547 19.3492 18.2062 18.8835 18.2049C18.8027 18.2045 18.722 18.2041 18.6388 18.2037C18.5068 18.2036 18.5068 18.2036 18.3721 18.2035C18.278 18.2032 18.184 18.2028 18.0899 18.2025C17.8348 18.2016 17.5796 18.2012 17.3245 18.2009C17.1649 18.2007 17.0053 18.2004 16.8457 18.2001C16.3458 18.1992 15.8459 18.1985 15.346 18.1983C14.77 18.198 14.194 18.1968 13.618 18.1948C13.1721 18.1934 12.7262 18.1927 12.2802 18.1926C12.0142 18.1926 11.7482 18.1922 11.4822 18.191C11.2318 18.1899 10.9814 18.1897 10.7309 18.1903C10.596 18.1904 10.4611 18.1895 10.3261 18.1885C9.50161 18.187 9.50161 18.187 8.83932 18.6202ZM8.93328 22.7981C8.65849 23.1135 8.6146 23.3307 8.61986 23.7362C8.64739 23.9882 8.73773 24.1217 8.90629 24.308C9.31398 24.629 9.65888 24.6528 10.1631 24.6536C10.2401 24.6541 10.2401 24.6541 10.3187 24.6546C10.4879 24.6556 10.6571 24.6561 10.8263 24.6564C10.9445 24.6568 11.0626 24.6572 11.1808 24.6576C11.4285 24.6583 11.6762 24.6587 11.9239 24.6589C12.2401 24.6593 12.5562 24.6609 12.8724 24.6628C13.1166 24.6641 13.3608 24.6644 13.6049 24.6645C13.7214 24.6647 13.8379 24.6652 13.9544 24.6661C14.8906 24.7146 14.8906 24.7146 15.7096 24.3447C15.9844 24.0293 16.0283 23.8121 16.0231 23.4066C15.9955 23.1546 15.9052 23.0211 15.7366 22.8348C15.3289 22.5138 14.984 22.49 14.4798 22.4892C14.4028 22.4887 14.4028 22.4887 14.3243 22.4882C14.1551 22.4872 13.9859 22.4867 13.8167 22.4864C13.6985 22.486 13.5803 22.4856 13.4621 22.4852C13.2144 22.4845 12.9667 22.4841 12.7191 22.4839C12.4029 22.4835 12.0867 22.4819 11.7705 22.48C11.5263 22.4788 11.2822 22.4784 11.038 22.4783C10.9215 22.4781 10.805 22.4776 10.6885 22.4767C9.75229 22.4282 9.75229 22.4282 8.93328 22.7981Z" fill="#0F00FF"/>
<path d="M23.3035 22.7009C23.54 22.8123 23.6932 22.9404 23.8784 23.1266C23.9689 23.2171 23.9689 23.2171 24.0612 23.3094C24.1264 23.3753 24.1916 23.4412 24.2567 23.5071C24.3239 23.5745 24.3911 23.6418 24.4583 23.7092C24.6347 23.8861 24.8107 24.0635 24.9867 24.2409C25.1664 24.422 25.3466 24.6028 25.5267 24.7836C25.8798 25.1381 26.2324 25.493 26.5848 25.8482C26.499 26.0335 26.407 26.18 26.2711 26.3322C26.2345 26.3733 26.1979 26.4145 26.1601 26.4569C26.12 26.5014 26.0798 26.5458 26.0384 26.5915C25.9958 26.639 25.9531 26.6864 25.9092 26.7352C25.3442 27.3605 24.7663 27.9736 24.1824 28.5812C24.1264 28.6396 24.0703 28.698 24.0125 28.7582C22.0298 30.8143 20.3441 32.0585 17.4107 32.1428C17.3223 32.1428 17.2339 32.1428 17.1428 32.1428C17.1532 32.0687 17.1637 31.9946 17.1744 31.9182C17.2013 31.7062 17.2153 31.4975 17.2216 31.2839C17.3587 27.8303 19.8345 25.901 22.2086 23.697C22.5715 23.3627 22.9368 23.031 23.3035 22.7009Z" fill="#0F00FF"/>
<path d="M19.2856 2.14282C19.6617 2.45592 20.0092 2.78994 20.3547 3.13625C20.4129 3.19433 20.4711 3.25241 20.531 3.31225C20.6893 3.47024 20.8474 3.62838 21.0054 3.7866C21.1711 3.95246 21.3369 4.11814 21.5027 4.28386C21.7806 4.56164 22.0584 4.83955 22.3361 5.11755C22.6574 5.43926 22.979 5.76073 23.3007 6.08207C23.5772 6.35828 23.8536 6.63463 24.1299 6.91108C24.2948 7.07609 24.4597 7.24105 24.6248 7.4059C24.8082 7.58911 24.9914 7.7726 25.1746 7.95611C25.2295 8.01097 25.2845 8.06582 25.3412 8.12234C25.3907 8.172 25.4401 8.22166 25.4911 8.27282C25.5561 8.33787 25.5561 8.33787 25.6224 8.40424C25.7142 8.50443 25.7142 8.50443 25.7142 8.57139C24.9703 8.5776 24.2264 8.58236 23.4824 8.58527C23.137 8.58667 22.7915 8.58856 22.4461 8.5916C22.1126 8.59452 21.7792 8.59611 21.4457 8.59681C21.3186 8.5973 21.1914 8.59827 21.0643 8.59972C20.886 8.60166 20.7078 8.60193 20.5295 8.6018C20.4771 8.60277 20.4247 8.60373 20.3707 8.60472C20.0239 8.60212 19.8246 8.53796 19.5535 8.30354C19.274 7.98034 19.2477 7.73523 19.2552 7.32749C19.2552 7.24314 19.2552 7.24314 19.2551 7.1571C19.2553 6.97229 19.2574 6.78755 19.2595 6.60275C19.26 6.47421 19.2604 6.34566 19.2606 6.21712C19.2616 5.87958 19.2643 5.54207 19.2672 5.20454C19.27 4.85981 19.2712 4.51507 19.2726 4.17032C19.2754 3.49448 19.28 2.81865 19.2856 2.14282Z" fill="#0F00FF"/>
<path d="M28.961 19.5735C29.5425 19.9671 29.876 20.4125 30.0316 21.0995C30.1376 21.7742 29.9895 22.413 29.5982 22.9688C29.3577 23.2396 29.101 23.4914 28.8407 23.743C28.7711 23.8112 28.7017 23.8794 28.6323 23.9477C28.4639 24.1132 28.2947 24.2778 28.125 24.442C27.8856 24.3403 27.7327 24.1998 27.5501 24.0162C27.4898 23.9559 27.4295 23.8956 27.3673 23.8334C27.3021 23.7675 27.237 23.7017 27.1718 23.6358C27.1046 23.5684 27.0374 23.501 26.9702 23.4337C26.7938 23.2567 26.6178 23.0794 26.4418 22.9019C26.2621 22.7208 26.0819 22.5401 25.9018 22.3593C25.5487 22.0048 25.1961 21.6498 24.8437 21.2946C25.0111 20.939 25.2832 20.6963 25.5591 20.4205C25.6547 20.3247 25.7491 20.2278 25.8435 20.1309C26.7077 19.263 27.8452 18.9422 28.961 19.5735Z" fill="#0F00FF"/>
</svg>
