<svg width="28" height="17" viewBox="0 0 28 17" fill="none" xmlns="http://www.w3.org/2000/svg">
<path d="M3.19409 0.0186894C3.27476 0.0183935 3.27476 0.0183935 3.35705 0.0180917C3.53716 0.0175012 3.71727 0.0172937 3.89738 0.0170891C4.02658 0.0167529 4.15578 0.0163963 4.28498 0.0160209C4.67264 0.0149907 5.0603 0.0144209 5.44796 0.0139433C5.63088 0.0137078 5.8138 0.01342 5.99673 0.0131393C6.60547 0.0122268 7.21422 0.0114494 7.82296 0.0110606C7.98077 0.0109582 8.13858 0.0108551 8.29639 0.0107502C8.33561 0.0107243 8.37483 0.0106983 8.41524 0.0106716C9.04964 0.0102269 9.68403 0.00886872 10.3184 0.00712485C10.9709 0.00534589 11.6235 0.00438411 12.276 0.00421313C12.6419 0.00409742 13.0077 0.0036346 13.3736 0.00225718C13.7182 0.00100321 14.0628 0.000783237 14.4074 0.00133241C14.5333 0.00135887 14.6592 0.00102324 14.7852 0.000283331C15.888 -0.00582944 16.8854 0.0807328 17.729 0.874635C18.3078 1.48959 18.6088 2.23575 18.6046 3.07516C18.6048 3.12028 18.6051 3.16541 18.6053 3.2119C18.6058 3.36174 18.6056 3.51157 18.6054 3.66142C18.6056 3.76941 18.6059 3.87739 18.6062 3.98538C18.6069 4.27777 18.607 4.57016 18.6068 4.86255C18.6068 5.10703 18.607 5.35152 18.6073 5.59601C18.6079 6.173 18.6079 6.74999 18.6076 7.32698C18.6073 7.92134 18.6079 8.5157 18.6091 9.11006C18.61 9.62119 18.6103 10.1323 18.6102 10.6435C18.6101 10.9484 18.6102 11.2533 18.611 11.5582C18.6116 11.845 18.6115 12.1318 18.6108 12.4186C18.6107 12.5236 18.6108 12.6285 18.6113 12.7335C18.6152 13.7236 18.4537 14.6261 17.7323 15.369C17.029 15.9907 16.272 16.2451 15.3452 16.2413C15.264 16.2416 15.264 16.2416 15.1812 16.2419C15.0013 16.2425 14.8213 16.2423 14.6414 16.2421C14.5118 16.2423 14.3822 16.2426 14.2527 16.2429C13.938 16.2435 13.6234 16.2437 13.3088 16.2436C13.0529 16.2435 12.797 16.2436 12.5411 16.2438C12.4863 16.2438 12.4863 16.2438 12.4304 16.2439C12.3562 16.2439 12.2821 16.244 12.2079 16.2441C11.5131 16.2447 10.8183 16.2445 10.1235 16.2442C9.489 16.2439 8.85448 16.2445 8.21995 16.2456C7.56718 16.2466 6.91441 16.247 6.26164 16.2468C5.89566 16.2467 5.52968 16.2469 5.16369 16.2476C4.81945 16.2483 4.47522 16.2482 4.13098 16.2475C4.00495 16.2474 3.87892 16.2475 3.75289 16.248C2.52405 16.252 2.52405 16.252 2.01439 16.0664C1.97863 16.0534 1.94288 16.0404 1.90604 16.027C1.16886 15.7295 0.565927 15.1911 0.244107 14.4571C-0.00293084 13.859 -0.00108697 13.2943 0.00176205 12.6574C0.00147078 12.5475 0.00108843 12.4375 0.000622617 12.3276C-0.000350329 12.0307 2.1382e-05 11.7339 0.000703859 11.4371C0.00124985 11.1254 0.000742644 10.8137 0.000406518 10.5021C1.69216e-05 9.97879 0.00052854 9.45553 0.0015525 8.93226C0.00272013 8.32863 0.00234183 7.72502 0.00116061 7.12138C0.000184609 6.60168 5.04949e-05 6.08198 0.000610953 5.56227C0.000944252 5.25251 0.00099352 4.94275 0.000281279 4.63298C-0.000341855 4.34165 9.73676e-05 4.05035 0.00133149 3.75903C0.00161347 3.65257 0.00153674 3.54612 0.00106054 3.43966C-0.00312745 2.40773 0.188089 1.62389 0.916135 0.848441C1.55189 0.251859 2.34203 0.018521 3.19409 0.0186894Z" fill="#0F00FF"/>
<path d="M25.5731 1.62472C26.0783 1.60067 26.5204 1.73964 26.9054 2.0675C27.2451 2.39859 27.4695 2.76078 27.5161 3.24025C27.5171 3.31466 27.5172 3.38909 27.5165 3.46351C27.517 3.52559 27.517 3.52559 27.5174 3.58893C27.5182 3.72647 27.5178 3.86398 27.5174 4.00152C27.5177 4.1006 27.5181 4.19969 27.5185 4.29877C27.5195 4.56711 27.5194 4.83544 27.5191 5.10378C27.5189 5.32814 27.5193 5.55249 27.5196 5.77685C27.5203 6.30634 27.5203 6.83582 27.5197 7.3653C27.519 7.91076 27.5198 8.4562 27.5212 9.00166C27.5224 9.4707 27.5228 9.93973 27.5225 10.4088C27.5223 10.6886 27.5224 10.9684 27.5233 11.2482C27.5242 11.5114 27.5239 11.7746 27.5229 12.0379C27.5227 12.1342 27.5229 12.2305 27.5235 12.3268C27.5274 13.0566 27.4531 13.5775 26.9331 14.1242C26.5792 14.4346 26.1866 14.5703 25.7221 14.581C25.6661 14.583 25.6102 14.585 25.5526 14.5871C25.0016 14.525 24.5355 14.2371 24.0658 13.9607C24.0001 13.9226 23.9345 13.8845 23.8688 13.8464C23.7326 13.7676 23.5966 13.6885 23.4607 13.6092C23.1726 13.4416 22.8829 13.2769 22.5933 13.1119C22.3138 12.9527 22.0348 12.7929 21.7557 12.633C21.7074 12.6054 21.7074 12.6054 21.6582 12.5772C21.4335 12.4485 21.209 12.3195 20.9846 12.1905C20.8975 12.1406 20.8975 12.1406 20.8087 12.0897C20.7546 12.0585 20.7005 12.0273 20.6447 11.9952C20.5975 11.968 20.5503 11.9409 20.5017 11.913C20.4553 11.885 20.4088 11.8571 20.361 11.8284C20.3057 11.805 20.2504 11.7817 20.1935 11.7576C20.0144 11.5908 20.0143 11.5555 20.0004 11.3212C19.9994 11.1956 20.0003 11.0699 20.0025 10.9443C20.0025 10.8757 20.0025 10.8072 20.0024 10.7365C20.0023 10.5486 20.0042 10.3608 20.0065 10.173C20.0085 9.97658 20.0087 9.7802 20.009 9.58381C20.01 9.21199 20.0127 8.84021 20.0159 8.46841C20.0195 8.04509 20.0213 7.62178 20.0229 7.19845C20.0263 6.32772 20.0319 5.45701 20.0391 4.5863C21.0606 3.99694 21.0606 3.99694 21.1536 3.94332C21.3103 3.85293 21.4669 3.76254 21.6236 3.67215C21.6842 3.63719 21.7448 3.60223 21.8072 3.56622C21.8612 3.53505 21.9153 3.50388 21.9709 3.47177C22.1398 3.37437 22.3086 3.27698 22.4774 3.17959C22.7798 3.00511 23.0822 2.83056 23.3846 2.65596C23.5042 2.58694 23.6239 2.518 23.7436 2.44916C23.9837 2.3111 24.2235 2.17295 24.4608 2.0302C24.8323 1.80792 25.142 1.66604 25.5731 1.62472Z" fill="#0F00FF"/>
</svg>
